<svg width="2321" height="1073" xmlns="http://www.w3.org/2000/svg" xmlns:xlink="http://www.w3.org/1999/xlink" xml:space="preserve" overflow="hidden"><g transform="translate(-1634 -240)"><rect x="1749.5" y="243.5" width="748" height="178" stroke="#4EA72E" stroke-width="6.875" stroke-miterlimit="8" fill="#FFFFFF"/><rect x="1749.5" y="421.5" width="748" height="177" stroke="#4EA72E" stroke-width="6.875" stroke-miterlimit="8" fill="#FFFFFF"/><rect x="1749.5" y="598.5" width="748" height="355" stroke="#4EA72E" stroke-width="6.875" stroke-miterlimit="8" fill="#FFFFFF"/><rect x="1749.5" y="953.5" width="748" height="178" stroke="#4EA72E" stroke-width="6.875" stroke-miterlimit="8" fill="#FFFFFF"/><rect x="1749.5" y="1131.5" width="748" height="178" stroke="#4EA72E" stroke-width="6.875" stroke-miterlimit="8" fill="#FFFFFF"/><rect x="2676.5" y="421.5" width="319" height="177" stroke="#4EA72E" stroke-width="6.875" stroke-miterlimit="8" fill="#FFFFFF"/><rect x="2995.5" y="421.5" width="318" height="177" stroke="#4EA72E" stroke-width="6.875" stroke-miterlimit="8" fill="#FFFFFF"/><rect x="3313.5" y="421.5" width="319" height="177" stroke="#4EA72E" stroke-width="6.875" stroke-miterlimit="8" fill="#FFFFFF"/><rect x="2676.5" y="953.5" width="319" height="178" stroke="#4EA72E" stroke-width="6.875" stroke-miterlimit="8" fill="#FFFFFF"/><rect x="2995.5" y="953.5" width="318" height="178" stroke="#4EA72E" stroke-width="6.875" stroke-miterlimit="8" fill="#FFFFFF"/><rect x="3313.5" y="953.5" width="319" height="178" stroke="#4EA72E" stroke-width="6.875" stroke-miterlimit="8" fill="#FFFFFF"/><rect x="3632.5" y="953.5" width="319" height="178" stroke="#4EA72E" stroke-width="6.875" stroke-miterlimit="8" fill="#FFFFFF"/><path d="M2143.91 480.578C2148.94 480.578 2152.73 481.679 2155.3 483.881 2157.87 486.083 2159.15 489.278 2159.15 493.466 2159.15 494.898 2159.01 496.215 2158.72 497.417 2158.44 498.62 2157.99 499.809 2157.39 500.984 2156.78 502.159 2155.96 503.422 2154.93 504.773 2153.91 506.124 2152.77 507.495 2151.53 508.887 2150.29 510.278 2148.14 512.595 2145.09 515.837 2139.95 521.268 2136.18 526.01 2133.78 530.062L2149.06 530.062C2150.38 530.062 2151.45 529.981 2152.26 529.819 2153.07 529.657 2153.72 529.387 2154.2 529.009 2154.69 528.63 2155.08 528.137 2155.36 527.529 2155.64 526.921 2156 525.982 2156.43 524.713L2159.88 524.713 2159.19 536.547 2125.84 536.547 2125.84 534.601C2127 531.764 2128.56 528.86 2130.54 525.888 2132.51 522.916 2135.31 519.417 2138.93 515.391 2142.06 511.933 2144.32 509.312 2145.69 507.529 2147.21 505.584 2148.33 503.902 2149.08 502.483 2149.82 501.065 2150.35 499.728 2150.68 498.471 2151 497.215 2151.16 495.952 2151.16 494.682 2151.16 492.656 2150.84 490.866 2150.19 489.312 2149.54 487.758 2148.55 486.536 2147.21 485.644 2145.88 484.753 2144.19 484.307 2142.17 484.307 2137.12 484.307 2133.71 487.117 2131.95 492.737L2127.05 492.737 2127.05 484.955C2130.32 483.415 2133.38 482.301 2136.23 481.612 2139.08 480.923 2141.64 480.578 2143.91 480.578ZM2097.75 480.578C2100.8 480.578 2103.48 481.051 2105.77 481.997 2108.07 482.942 2109.83 484.3 2111.04 486.07 2112.26 487.84 2112.86 489.954 2112.86 492.412 2112.86 494.709 2112.41 496.729 2111.49 498.471 2110.57 500.214 2109.28 501.734 2107.62 503.031 2105.96 504.327 2103.8 505.597 2101.15 506.84L2101.15 507.205C2102.8 507.502 2104.39 508.009 2105.91 508.725 2107.44 509.441 2108.8 510.366 2109.99 511.501 2111.18 512.635 2112.13 513.993 2112.84 515.574 2113.56 517.154 2113.92 518.958 2113.92 520.984 2113.92 524.118 2113.24 526.901 2111.87 529.333 2110.51 531.764 2108.42 533.683 2105.61 535.088 2102.8 536.493 2099.38 537.195 2095.36 537.195 2093.03 537.195 2090.53 536.932 2087.84 536.405 2085.15 535.878 2082.69 535.182 2080.44 534.318L2080.44 525.726 2085.31 525.726C2086.25 528.536 2087.5 530.576 2089.06 531.845 2090.61 533.115 2092.72 533.75 2095.4 533.75 2098.91 533.75 2101.56 532.791 2103.36 530.873 2105.16 528.955 2106.06 526.118 2106.06 522.362 2106.06 518.417 2104.87 515.405 2102.49 513.324 2100.11 511.244 2096.63 510.204 2092.03 510.204L2088.39 510.204 2088.39 506.637C2092.03 506.421 2095.11 505.719 2097.61 504.53 2100.11 503.341 2101.96 501.815 2103.18 499.95 2104.39 498.086 2105 495.992 2105 493.669 2105 490.67 2104.21 488.36 2102.61 486.739 2101.02 485.117 2098.69 484.307 2095.64 484.307 2093.1 484.307 2091.03 484.996 2089.44 486.374 2087.85 487.752 2086.67 489.859 2085.91 492.696L2081.05 492.696 2081.05 484.996C2084.19 483.51 2087.12 482.402 2089.85 481.673 2092.57 480.943 2095.21 480.578 2097.75 480.578Z" fill-rule="evenodd"/><text fill="#000000" fill-opacity="0" font-family="Arial,Arial_MSFontService,sans-serif" font-size="56.6167" x="2080.44" y="530.118">32</text><path d="M2097.59 1042.21C2095.59 1042.21 2093.91 1042.52 2092.54 1043.14 2091.18 1043.77 2090.07 1044.6 2089.22 1045.66 2088.37 1046.71 2087.76 1047.95 2087.39 1049.37 2087.03 1050.78 2086.85 1052.3 2086.85 1053.93 2086.85 1055.68 2087.05 1057.32 2087.45 1058.85 2087.86 1060.38 2088.5 1061.69 2089.38 1062.8 2090.26 1063.91 2091.39 1064.79 2092.76 1065.43 2094.14 1066.08 2095.82 1066.41 2097.79 1066.41 2100 1066.41 2101.9 1065.95 2103.48 1065.05 2105.06 1064.14 2106.27 1062.8 2107.09 1061.02 2107.91 1059.23 2108.33 1057.13 2108.33 1054.7 2108.33 1052.1 2107.88 1049.87 2106.99 1047.99 2106.1 1046.11 2104.84 1044.68 2103.22 1043.69 2101.6 1042.71 2099.72 1042.21 2097.59 1042.21ZM2145.45 1040.02C2144.13 1040.02 2142.85 1040.17 2141.62 1040.47 2140.39 1040.77 2139.24 1041.2 2138.16 1041.77 2137.07 1042.33 2136.02 1043.05 2134.99 1043.91 2134.67 1044.21 2134.43 1044.52 2134.26 1044.85 2133.99 1045.36 2133.82 1046 2133.74 1046.75 2133.66 1047.51 2133.62 1048.78 2133.62 1050.56 2133.62 1055.72 2134.48 1059.65 2136.21 1062.35 2137.94 1065.06 2140.56 1066.41 2144.07 1066.41 2146.1 1066.41 2147.8 1066.06 2149.18 1065.35 2150.56 1064.65 2151.67 1063.69 2152.52 1062.46 2153.37 1061.23 2153.98 1059.78 2154.35 1058.12 2154.71 1056.46 2154.89 1054.65 2154.89 1052.71 2154.89 1048.71 2154.07 1045.6 2152.42 1043.37 2150.77 1041.14 2148.45 1040.02 2145.45 1040.02ZM2097.79 1016.68C2094.38 1016.68 2091.78 1017.61 2089.99 1019.46 2088.19 1021.31 2087.29 1023.93 2087.29 1027.34 2087.29 1028.93 2087.48 1030.43 2087.86 1031.84 2088.24 1033.24 2088.85 1034.46 2089.68 1035.49 2090.52 1036.51 2091.61 1037.33 2092.95 1037.94 2094.28 1038.54 2095.92 1038.85 2097.87 1038.85 2100.11 1038.85 2102 1038.41 2103.52 1037.53 2105.05 1036.65 2106.18 1035.37 2106.93 1033.68 2107.67 1031.99 2108.04 1030.04 2108.04 1027.83 2108.04 1025.39 2107.6 1023.33 2106.73 1021.65 2105.85 1019.96 2104.64 1018.71 2103.1 1017.9 2101.56 1017.09 2099.79 1016.68 2097.79 1016.68ZM2155.87 1013.24 2157.53 1015.46 2157.53 1017.45C2153.37 1017.45 2149.68 1018.34 2146.46 1020.13 2143.25 1021.91 2140.58 1024.53 2138.46 1027.99 2136.34 1031.45 2134.85 1035.55 2133.98 1040.31L2134.39 1040.47C2136.66 1038.85 2138.89 1037.66 2141.09 1036.9 2143.3 1036.15 2145.68 1035.77 2148.25 1035.77 2151.3 1035.77 2153.9 1036.44 2156.05 1037.77 2158.2 1039.11 2159.81 1040.99 2160.89 1043.41 2161.97 1045.83 2162.51 1048.66 2162.51 1051.9 2162.51 1055.41 2161.84 1058.51 2160.49 1061.2 2159.14 1063.89 2157.05 1066 2154.22 1067.54 2151.4 1069.08 2147.92 1069.85 2143.79 1069.85 2137.87 1069.85 2133.41 1068.02 2130.39 1064.34 2127.38 1060.67 2125.88 1055.25 2125.88 1048.09 2125.88 1043.28 2126.63 1038.78 2128.15 1034.59 2129.66 1030.41 2131.81 1026.75 2134.59 1023.63 2137.37 1020.51 2140.6 1018.05 2144.28 1016.25 2147.95 1014.46 2151.81 1013.45 2155.87 1013.24ZM2097.87 1013.24C2101.76 1013.24 2105.03 1013.78 2107.68 1014.88 2110.33 1015.97 2112.32 1017.55 2113.66 1019.62 2114.99 1021.69 2115.66 1024.16 2115.66 1027.06 2115.66 1030.03 2114.93 1032.59 2113.47 1034.74 2112.01 1036.88 2109.76 1038.63 2106.7 1039.98L2106.79 1040.51C2109.84 1041.7 2112.15 1043.44 2113.72 1045.72 2115.28 1048 2116.07 1050.75 2116.07 1053.97 2116.07 1057.13 2115.31 1059.91 2113.8 1062.31 2112.28 1064.72 2110.09 1066.58 2107.21 1067.89 2104.33 1069.2 2100.98 1069.85 2097.14 1069.85 2093.55 1069.85 2090.39 1069.25 2087.68 1068.05 2084.96 1066.85 2082.85 1065.09 2081.35 1062.78 2079.86 1060.47 2079.11 1057.75 2079.11 1054.61 2079.11 1052.26 2079.51 1050.22 2080.32 1048.49 2081.13 1046.77 2082.19 1045.34 2083.5 1044.22 2084.81 1043.1 2086.47 1042.08 2088.47 1041.16L2088.39 1040.63C2082.58 1038.12 2079.67 1033.81 2079.67 1027.7 2079.67 1024.92 2080.44 1022.44 2081.96 1020.25 2083.49 1018.06 2085.66 1016.34 2088.49 1015.1 2091.31 1013.86 2094.44 1013.24 2097.87 1013.24Z" fill-rule="evenodd"/><text fill="#000000" fill-opacity="0" font-family="Arial,Arial_MSFontService,sans-serif" font-size="56.6167" x="2079.11" y="1062.78">86</text><path d="M2115.98 793.068C2117.38 793.068 2118.56 793.561 2119.5 794.547 2120.45 795.534 2120.92 796.783 2120.92 798.296 2120.92 799.809 2120.45 801.059 2119.5 802.045 2118.56 803.031 2117.38 803.524 2115.98 803.524 2114.57 803.524 2113.4 803.031 2112.45 802.045 2111.51 801.059 2111.03 799.809 2111.03 798.296 2111.03 796.783 2111.51 795.534 2112.45 794.547 2113.4 793.561 2114.57 793.068 2115.98 793.068ZM2115.98 771.508C2117.38 771.508 2118.56 772.001 2119.5 772.987 2120.45 773.973 2120.92 775.223 2120.92 776.736 2120.92 778.249 2120.45 779.498 2119.5 780.484 2118.56 781.471 2117.38 781.964 2115.98 781.964 2114.57 781.964 2113.4 781.471 2112.45 780.484 2111.51 779.498 2111.03 778.249 2111.03 776.736 2111.03 775.223 2111.51 773.973 2112.45 772.987 2113.4 772.001 2114.57 771.508 2115.98 771.508ZM2115.98 749.947C2117.38 749.947 2118.56 750.44 2119.5 751.426 2120.45 752.412 2120.92 753.662 2120.92 755.175 2120.92 756.688 2120.45 757.938 2119.5 758.924 2118.56 759.91 2117.38 760.403 2115.98 760.403 2114.57 760.403 2113.4 759.91 2112.45 758.924 2111.51 757.938 2111.03 756.688 2111.03 755.175 2111.03 753.662 2111.51 752.412 2112.45 751.426 2113.4 750.44 2114.57 749.947 2115.98 749.947Z" fill-rule="evenodd"/><text fill="#000000" fill-opacity="0" font-family="Arial,Arial_MSFontService,sans-serif" font-size="53.5771" x="2111.03" y="796.827">⋮</text><path d="M2497.5 508.208 2653.77 508.209 2653.77 512.792 2497.5 512.792ZM2649.19 496.75 2676.69 510.5 2649.19 524.25Z" fill="#4EA72E"/><path d="M2497.5 1040.21 2653.77 1040.21 2653.77 1044.79 2497.5 1044.79ZM2649.19 1028.75 2676.69 1042.5 2649.19 1056.25Z" fill="#4EA72E"/><path d="M3177.89 493.212 3162.04 518.379 3162.04 518.947 3177.89 518.947 3177.89 508.855C3177.89 506.316 3177.93 503.472 3178.01 500.324 3178.09 497.177 3178.18 494.806 3178.29 493.212ZM3179.06 484.053 3184.86 484.053 3184.86 518.947 3185.71 518.947C3187.28 518.947 3188.4 518.832 3189.07 518.602 3189.75 518.372 3190.31 517.967 3190.75 517.386 3191.2 516.805 3191.61 515.853 3191.99 514.529L3195.07 514.529 3194.58 522.878 3184.86 522.878 3184.86 529.524C3184.86 531.334 3184.92 532.658 3185.04 533.496 3185.16 534.333 3185.36 534.995 3185.65 535.482 3185.93 535.968 3186.35 536.373 3186.9 536.698 3187.46 537.022 3188.36 537.346 3189.6 537.67L3189.6 539.656 3173.15 539.656 3173.15 537.67C3174.82 537.238 3175.94 536.758 3176.51 536.232 3177.08 535.705 3177.45 534.955 3177.62 533.982 3177.8 533.01 3177.89 531.524 3177.89 529.524L3177.89 522.878 3155.35 522.878 3155.35 519.838ZM3132.41 483.688 3134.64 483.688C3134.48 486.282 3134.4 489.875 3134.4 494.468L3134.4 529.078C3134.4 530.646 3134.49 531.828 3134.66 532.625 3134.84 533.422 3135.15 534.07 3135.6 534.57 3136.04 535.07 3136.68 535.461 3137.52 535.745 3138.36 536.029 3139.41 536.245 3140.68 536.394 3141.95 536.542 3143.63 536.644 3145.71 536.698L3145.71 539.656 3115.76 539.656 3115.76 536.698C3118.76 536.562 3120.9 536.38 3122.18 536.15 3123.46 535.921 3124.44 535.576 3125.12 535.117 3125.79 534.658 3126.29 534.009 3126.6 533.172 3126.91 532.334 3127.06 530.97 3127.06 529.078L3127.06 496.211C3127.06 495.13 3126.88 494.34 3126.5 493.84 3126.12 493.34 3125.56 493.09 3124.84 493.09 3123.97 493.09 3122.74 493.536 3121.15 494.428 3119.55 495.319 3117.58 496.548 3115.23 498.116L3113.45 494.995Z" fill-rule="evenodd"/><text fill="#000000" fill-opacity="0" font-family="Arial,Arial_MSFontService,sans-serif" font-size="55.9683" x="3113.45" y="532.66">14</text><path d="M3461.6 480.579C3466.63 480.579 3470.42 481.68 3472.99 483.882 3475.55 486.084 3476.84 489.279 3476.84 493.466 3476.84 494.898 3476.7 496.216 3476.41 497.418 3476.13 498.62 3475.68 499.809 3475.08 500.984 3474.47 502.16 3473.65 503.423 3472.62 504.774 3471.6 506.124 3470.46 507.496 3469.22 508.887 3467.98 510.279 3465.83 512.595 3462.78 515.838 3457.64 521.268 3453.87 526.01 3451.47 530.063L3466.75 530.063C3468.07 530.063 3469.14 529.982 3469.95 529.819 3470.76 529.657 3471.41 529.387 3471.89 529.009 3472.38 528.631 3472.77 528.138 3473.05 527.53 3473.33 526.922 3473.69 525.983 3474.12 524.713L3477.57 524.713 3476.88 536.547 3443.52 536.547 3443.52 534.602C3444.69 531.765 3446.25 528.86 3448.23 525.888 3450.2 522.916 3452.99 519.417 3456.61 515.392 3459.75 511.933 3462.01 509.313 3463.38 507.529 3464.9 505.584 3466.02 503.902 3466.77 502.484 3467.51 501.065 3468.04 499.728 3468.37 498.472 3468.69 497.215 3468.85 495.952 3468.85 494.682 3468.85 492.656 3468.53 490.866 3467.88 489.312 3467.23 487.759 3466.24 486.536 3464.9 485.645 3463.57 484.753 3461.88 484.307 3459.86 484.307 3454.8 484.307 3451.4 487.117 3449.64 492.737L3444.74 492.737 3444.74 484.956C3448.01 483.416 3451.07 482.301 3453.92 481.612 3456.77 480.923 3459.33 480.579 3461.6 480.579Z" fill-rule="evenodd"/><text fill="#000000" fill-opacity="0" font-family="Arial,Arial_MSFontService,sans-serif" font-size="55.9683" x="3443.52" y="529.551">2</text><text font-family="DengXian,DengXian_MSFontService,sans-serif" font-weight="400" font-size="83" transform="matrix(1 0 0 1 3484.13 537)">7</text><path d="M1672.12 483.688 1674.34 483.688C1674.18 486.282 1674.1 489.875 1674.1 494.468L1674.1 529.078C1674.1 530.646 1674.19 531.828 1674.36 532.625 1674.54 533.422 1674.85 534.07 1675.3 534.57 1675.74 535.07 1676.38 535.461 1677.22 535.745 1678.06 536.029 1679.11 536.245 1680.38 536.394 1681.65 536.542 1683.33 536.644 1685.41 536.698L1685.41 539.656 1655.46 539.656 1655.46 536.698C1658.46 536.562 1660.6 536.38 1661.88 536.15 1663.17 535.921 1664.14 535.576 1664.82 535.117 1665.5 534.658 1665.99 534.009 1666.3 533.172 1666.61 532.334 1666.77 530.97 1666.77 529.078L1666.77 496.211C1666.77 495.13 1666.58 494.34 1666.2 493.84 1665.82 493.34 1665.27 493.09 1664.54 493.09 1663.67 493.09 1662.44 493.536 1660.85 494.428 1659.25 495.319 1657.28 496.548 1654.93 498.116L1653.15 494.995Z" fill-rule="evenodd"/><text fill="#000000" fill-opacity="0" font-family="Arial,Arial_MSFontService,sans-serif" font-size="55.9683" x="1653.15" y="532.66">1</text><path d="M1670.78 1040.38C1669.45 1040.38 1668.18 1040.53 1666.95 1040.83 1665.72 1041.13 1664.56 1041.56 1663.48 1042.13 1662.4 1042.69 1661.35 1043.41 1660.32 1044.27 1660 1044.57 1659.75 1044.88 1659.59 1045.21 1659.32 1045.72 1659.15 1046.35 1659.07 1047.11 1658.98 1047.87 1658.94 1049.14 1658.94 1050.92 1658.94 1056.08 1659.81 1060.01 1661.54 1062.71 1663.27 1065.42 1665.89 1066.77 1669.4 1066.77 1671.43 1066.77 1673.13 1066.42 1674.51 1065.71 1675.88 1065.01 1677 1064.04 1677.85 1062.82 1678.7 1061.59 1679.31 1060.14 1679.67 1058.48 1680.04 1056.82 1680.22 1055.01 1680.22 1053.07 1680.22 1049.07 1679.4 1045.96 1677.75 1043.73 1676.1 1041.5 1673.78 1040.38 1670.78 1040.38ZM1681.19 1013.59 1682.85 1015.82 1682.85 1017.81C1678.69 1017.81 1675.01 1018.7 1671.79 1020.48 1668.58 1022.27 1665.91 1024.89 1663.79 1028.35 1661.67 1031.81 1660.17 1035.91 1659.31 1040.67L1659.71 1040.83C1661.98 1039.21 1664.22 1038.02 1666.42 1037.26 1668.62 1036.51 1671.01 1036.13 1673.57 1036.13 1676.63 1036.13 1679.23 1036.8 1681.38 1038.13 1683.52 1039.47 1685.14 1041.35 1686.22 1043.77 1687.3 1046.19 1687.84 1049.02 1687.84 1052.26 1687.84 1055.77 1687.16 1058.87 1685.81 1061.56 1684.46 1064.25 1682.38 1066.36 1679.55 1067.9 1676.73 1069.44 1673.25 1070.21 1669.12 1070.21 1663.2 1070.21 1658.73 1068.37 1655.72 1064.7 1652.71 1061.03 1651.2 1055.61 1651.2 1048.45 1651.2 1043.64 1651.96 1039.14 1653.47 1034.95 1654.99 1030.76 1657.13 1027.11 1659.92 1023.99 1662.7 1020.87 1665.93 1018.41 1669.6 1016.61 1673.28 1014.82 1677.14 1013.81 1681.19 1013.59Z" fill-rule="evenodd"/><text fill="#000000" fill-opacity="0" font-family="Arial,Arial_MSFontService,sans-serif" font-size="56.6167" x="1651.2" y="1063.13">6</text></g></svg>