<svg width="3233" height="1421" xmlns="http://www.w3.org/2000/svg" xmlns:xlink="http://www.w3.org/1999/xlink" xml:space="preserve" overflow="hidden"><g transform="translate(-660 -581)"><path d="M662.5 1250C662.5 959.222 975.229 723.5 1361 723.5 1746.77 723.5 2059.5 959.222 2059.5 1250 2059.5 1540.78 1746.77 1776.5 1361 1776.5 975.229 1776.5 662.5 1540.78 662.5 1250Z" stroke="#70AD47" stroke-width="4.58333" stroke-miterlimit="8" fill="#FFFFFF" fill-rule="evenodd"/><path d="M988.5 1052C988.5 944.028 1160.2 856.5 1372 856.5 1583.8 856.5 1755.5 944.028 1755.5 1052 1755.5 1159.97 1583.8 1247.5 1372 1247.5 1160.2 1247.5 988.5 1159.97 988.5 1052Z" stroke="#70AD47" stroke-width="4.58333" stroke-miterlimit="8" fill="#FFFFFF" fill-rule="evenodd"/><rect x="2276.5" y="583.5" width="639" height="178" stroke="#70AD47" stroke-width="4.58333" stroke-miterlimit="8" fill="#FFFFFF"/><rect x="2276.5" y="761.5" width="639" height="178" stroke="#70AD47" stroke-width="4.58333" stroke-miterlimit="8" fill="#FFFFFF"/><rect x="2276.5" y="1288.5" width="639" height="178" stroke="#70AD47" stroke-width="4.58333" stroke-miterlimit="8" fill="#FFFFFF"/><rect x="2276.5" y="1822.5" width="639" height="177" stroke="#70AD47" stroke-width="4.58333" stroke-miterlimit="8" fill="#FFFFFF"/><path d="M2276.5 939.5 2276.5 1290.29" stroke="#ED7D31" stroke-width="4.58333" stroke-miterlimit="8" fill="none" fill-rule="evenodd"/><path d="M2915.5 939.5 2915.5 1290.29" stroke="#ED7D31" stroke-width="4.58333" stroke-miterlimit="8" fill="none" fill-rule="evenodd"/><path d="M2276.5 1466.5 2276.5 1821.89" stroke="#ED7D31" stroke-width="4.58333" stroke-miterlimit="8" fill="none" fill-rule="evenodd"/><path d="M2915.5 1466.5 2915.5 1821.89" stroke="#ED7D31" stroke-width="4.58333" stroke-miterlimit="8" fill="none" fill-rule="evenodd"/><path d="M1419.71 1006.59C1422.19 1006.59 1424.5 1006.75 1426.62 1007.09 1428.74 1007.43 1431.08 1008 1433.65 1008.81L1431.38 1019.23 1427.49 1019.23C1427.38 1016.93 1427.03 1015.13 1426.44 1013.82 1425.84 1012.51 1424.99 1011.57 1423.88 1011 1422.78 1010.44 1421.3 1010.15 1419.47 1010.15 1417.22 1010.15 1415.25 1010.61 1413.55 1011.53 1411.85 1012.45 1410.55 1013.7 1409.66 1015.28 1408.77 1016.86 1408.32 1018.62 1408.32 1020.57 1408.32 1022.59 1408.85 1024.37 1409.92 1025.9 1410.99 1027.42 1413.04 1029.23 1416.06 1031.31 1418.71 1033.14 1420.73 1034.79 1422.12 1036.23 1423.51 1037.68 1424.54 1039.21 1425.2 1040.83 1425.86 1042.45 1426.19 1044.33 1426.19 1046.46 1426.19 1049.76 1425.4 1052.69 1423.82 1055.24 1422.24 1057.79 1420.01 1059.76 1417.14 1061.16 1414.26 1062.55 1410.98 1063.24 1407.31 1063.24 1404.82 1063.24 1402.14 1063.04 1399.26 1062.63 1396.39 1062.23 1393.81 1061.72 1391.54 1061.09L1393.97 1049.95 1397.86 1049.95C1397.86 1053.25 1398.63 1055.7 1400.15 1057.31 1401.68 1058.91 1404.04 1059.72 1407.23 1059.72 1410.9 1059.72 1413.79 1058.72 1415.9 1056.72 1418.01 1054.72 1419.06 1051.94 1419.06 1048.37 1419.06 1046.72 1418.77 1045.27 1418.19 1044.01 1417.61 1042.76 1416.73 1041.55 1415.56 1040.41 1414.38 1039.26 1412.68 1037.94 1410.47 1036.45 1408.47 1035.1 1406.81 1033.77 1405.48 1032.46 1404.16 1031.15 1403.11 1029.69 1402.32 1028.06 1401.54 1026.44 1401.15 1024.63 1401.15 1022.63 1401.15 1019.45 1401.92 1016.64 1403.46 1014.2 1405 1011.77 1407.17 1009.9 1409.98 1008.57 1412.79 1007.25 1416.03 1006.59 1419.71 1006.59Z" fill-rule="evenodd"/><text fill="#000000" fill-opacity="0" font-family="Arial,Arial_MSFontService,sans-serif" font-size="56.6572" x="1391.54" y="1056.16">𝑆</text><path d="M2599.1 644.298 2601.33 644.298C2601.17 646.892 2601.09 650.485 2601.09 655.079L2601.09 689.689C2601.09 691.256 2601.18 692.438 2601.35 693.235 2601.53 694.032 2601.84 694.681 2602.28 695.18 2602.73 695.68 2603.37 696.072 2604.21 696.356 2605.05 696.639 2606.1 696.855 2607.37 697.004 2608.64 697.153 2610.32 697.254 2612.4 697.308L2612.4 700.267 2582.45 700.267 2582.45 697.308C2585.45 697.173 2587.59 696.991 2588.87 696.761 2590.15 696.531 2591.13 696.187 2591.81 695.727 2592.48 695.268 2592.98 694.62 2593.29 693.782 2593.6 692.945 2593.75 691.58 2593.75 689.689L2593.75 656.821C2593.75 655.74 2593.56 654.95 2593.19 654.45 2592.81 653.951 2592.25 653.701 2591.52 653.701 2590.66 653.701 2589.43 654.146 2587.84 655.038 2586.24 655.93 2584.27 657.159 2581.92 658.726L2580.14 655.605Z" fill-rule="evenodd"/><text fill="#000000" fill-opacity="0" font-family="Arial,Arial_MSFontService,sans-serif" font-size="55.9683" x="2580.14" y="693.271">1</text><path d="M2596.23 827.171C2601.25 827.171 2605.05 828.272 2607.61 830.474 2610.18 832.676 2611.46 835.871 2611.46 840.058 2611.46 841.49 2611.32 842.807 2611.04 844.01 2610.75 845.212 2610.31 846.401 2609.7 847.576 2609.09 848.752 2608.28 850.015 2607.25 851.366 2606.22 852.716 2605.09 854.088 2603.84 855.479 2602.6 856.87 2600.45 859.187 2597.4 862.43 2592.27 867.86 2588.5 872.602 2586.09 876.655L2601.37 876.655C2602.7 876.655 2603.76 876.574 2604.57 876.411 2605.39 876.249 2606.03 875.979 2606.52 875.601 2607.01 875.223 2607.39 874.73 2607.67 874.122 2607.96 873.514 2608.32 872.575 2608.75 871.305L2612.19 871.305 2611.5 883.139 2578.15 883.139 2578.15 881.194C2579.31 878.357 2580.88 875.452 2582.85 872.48 2584.82 869.508 2587.62 866.009 2591.24 861.984 2594.38 858.525 2596.63 855.905 2598.01 854.121 2599.52 852.176 2600.65 850.494 2601.39 849.076 2602.14 847.657 2602.67 846.32 2602.99 845.064 2603.32 843.807 2603.48 842.544 2603.48 841.274 2603.48 839.248 2603.16 837.458 2602.51 835.904 2601.86 834.351 2600.87 833.128 2599.53 832.237 2598.19 831.345 2596.51 830.899 2594.48 830.899 2589.43 830.899 2586.03 833.709 2584.27 839.329L2579.37 839.329 2579.37 831.548C2582.64 830.008 2585.7 828.893 2588.55 828.204 2591.4 827.515 2593.96 827.171 2596.23 827.171Z" fill-rule="evenodd"/><text fill="#000000" fill-opacity="0" font-family="Arial,Arial_MSFontService,sans-serif" font-size="55.9683" x="2578.15" y="876.143">2</text><path d="M2589.58 1364.88 2591.97 1364.88 2586.14 1390.9C2585.54 1393.55 2585.24 1395.55 2585.24 1396.9 2585.24 1397.98 2585.42 1398.76 2585.77 1399.25 2586.12 1399.74 2586.68 1399.98 2587.43 1399.98 2588.24 1399.98 2589.11 1399.65 2590.03 1398.99 2590.95 1398.33 2592.24 1397.06 2593.92 1395.2L2596.23 1397.47C2593.58 1400.25 2591.43 1402.14 2589.78 1403.14 2588.14 1404.14 2586.28 1404.64 2584.23 1404.64 2582.48 1404.64 2581.07 1404 2580.02 1402.72 2578.96 1401.43 2578.44 1399.79 2578.44 1397.79 2578.44 1395.74 2578.81 1393.12 2579.57 1389.93L2582.61 1376.68C2583.23 1373.97 2583.54 1371.95 2583.54 1370.6 2583.54 1369.38 2583.25 1368.56 2582.67 1368.13 2582.09 1367.69 2580.95 1367.45 2579.25 1367.4L2579.69 1365.25ZM2588.49 1349.36 2595.66 1349.36 2593.8 1357.22 2586.62 1357.22Z" fill-rule="evenodd"/><text fill="#000000" fill-opacity="0" font-family="Arial,Arial_MSFontService,sans-serif" font-size="55.2793" x="2578.44" y="1397.73">𝑖</text><path d="M2500.58 1898.09C2502.28 1898.09 2503.63 1898.65 2504.61 1899.77 2505.6 1900.89 2506.09 1902.36 2506.09 1904.17 2506.09 1905.66 2505.78 1907.24 2505.16 1908.91L2505.65 1909.07C2508.13 1905.37 2510.61 1902.62 2513.06 1900.83 2515.52 1899.03 2518.01 1898.13 2520.52 1898.13 2523.12 1898.13 2525.09 1898.87 2526.44 1900.34 2527.79 1901.81 2528.47 1903.94 2528.47 1906.72L2528.47 1907.29C2528.47 1907.48 2528.45 1907.68 2528.42 1907.9 2530.75 1904.6 2533.07 1902.15 2535.38 1900.54 2537.69 1898.94 2540.08 1898.13 2542.57 1898.13 2545.05 1898.13 2546.97 1898.85 2548.32 1900.28 2549.67 1901.71 2550.35 1903.72 2550.35 1906.32 2550.35 1908.02 2549.96 1910.44 2549.17 1913.57L2546.54 1924.19C2545.81 1927.14 2545.45 1929.22 2545.45 1930.43 2545.45 1931.51 2545.62 1932.3 2545.97 1932.78 2546.32 1933.27 2546.88 1933.51 2547.63 1933.51 2548.45 1933.51 2549.31 1933.18 2550.23 1932.52 2551.15 1931.86 2552.44 1930.59 2554.12 1928.73L2556.43 1931C2554.11 1933.46 2552.08 1935.27 2550.35 1936.43 2548.62 1937.59 2546.65 1938.17 2544.43 1938.17 2542.68 1938.17 2541.27 1937.54 2540.22 1936.29 2539.16 1935.03 2538.64 1933.43 2538.64 1931.49 2538.64 1929.73 2539.08 1927.15 2539.98 1923.75L2541.76 1916.73C2542.41 1914.19 2542.83 1912.32 2543.03 1911.1 2543.24 1909.89 2543.34 1908.9 2543.34 1908.14 2543.34 1906.28 2543.03 1904.93 2542.41 1904.11 2541.79 1903.29 2540.77 1902.87 2539.37 1902.87 2538.23 1902.87 2537.02 1903.3 2535.72 1904.15 2534.42 1905 2533.06 1906.33 2531.63 1908.12 2530.19 1909.92 2529.03 1911.69 2528.12 1913.43 2527.22 1915.17 2526.49 1917.3 2525.95 1919.81L2522.26 1937.52 2515.25 1937.52 2519.91 1916.94C2520.48 1914.42 2520.87 1912.57 2521.07 1911.36 2521.27 1910.16 2521.37 1909.13 2521.37 1908.26 2521.37 1906.32 2521.03 1904.93 2520.34 1904.11 2519.65 1903.29 2518.58 1902.87 2517.12 1902.87 2516.09 1902.87 2514.92 1903.3 2513.61 1904.15 2512.3 1905 2510.9 1906.37 2509.42 1908.24 2507.93 1910.12 2506.77 1911.92 2505.93 1913.65 2505.09 1915.38 2504.39 1917.49 2503.82 1919.98L2499.97 1937.52 2492.96 1937.52 2498.88 1911.83C2499.47 1909.24 2499.77 1907.24 2499.77 1905.83 2499.77 1904.75 2499.6 1903.97 2499.25 1903.48 2498.89 1903 2498.34 1902.75 2497.58 1902.75 2496.75 1902.75 2495.86 1903.1 2494.93 1903.79 2494 1904.47 2492.72 1905.72 2491.1 1907.53L2488.79 1905.26C2491.17 1902.78 2493.21 1900.96 2494.93 1899.81 2496.64 1898.67 2498.53 1898.09 2500.58 1898.09Z" fill-rule="evenodd"/><text fill="#000000" fill-opacity="0" font-family="Arial,Arial_MSFontService,sans-serif" font-size="40.0815" x="2488.79" y="1933.16">𝑚</text><path d="M2582.93 1911.1 2632.86 1911.1 2632.86 1916.49 2582.93 1916.49Z" fill-rule="evenodd"/><text fill="#000000" fill-opacity="0" font-family="Arial,Arial_MSFontService,sans-serif" font-size="5.39014" x="2582.93" y="1915.82">−</text><path d="M2683.28 1881.56 2685.51 1881.56C2685.35 1884.15 2685.27 1887.74 2685.27 1892.34L2685.27 1926.95C2685.27 1928.51 2685.36 1929.7 2685.53 1930.49 2685.71 1931.29 2686.02 1931.94 2686.46 1932.44 2686.91 1932.94 2687.55 1933.33 2688.39 1933.61 2689.23 1933.9 2690.28 1934.11 2691.55 1934.26 2692.82 1934.41 2694.5 1934.51 2696.58 1934.57L2696.58 1937.52 2666.63 1937.52 2666.63 1934.57C2669.62 1934.43 2671.77 1934.25 2673.05 1934.02 2674.33 1933.79 2675.31 1933.44 2675.99 1932.99 2676.66 1932.53 2677.16 1931.88 2677.47 1931.04 2677.78 1930.2 2677.93 1928.84 2677.93 1926.95L2677.93 1894.08C2677.93 1893 2677.74 1892.21 2677.37 1891.71 2676.99 1891.21 2676.43 1890.96 2675.7 1890.96 2674.84 1890.96 2673.61 1891.4 2672.02 1892.3 2670.42 1893.19 2668.45 1894.42 2666.1 1895.98L2664.32 1892.86Z" fill-rule="evenodd"/><text fill="#000000" fill-opacity="0" font-family="Arial,Arial_MSFontService,sans-serif" font-size="55.9683" x="2664.32" y="1930.53">1</text><path d="M2593.68 1139.86C2595.09 1139.86 2596.26 1140.35 2597.21 1141.34 2598.15 1142.32 2598.63 1143.57 2598.63 1145.09 2598.63 1146.6 2598.15 1147.85 2597.21 1148.83 2596.26 1149.82 2595.09 1150.31 2593.68 1150.31 2592.28 1150.31 2591.1 1149.82 2590.16 1148.83 2589.21 1147.85 2588.74 1146.6 2588.74 1145.09 2588.74 1143.57 2589.21 1142.32 2590.16 1141.34 2591.1 1140.35 2592.28 1139.86 2593.68 1139.86ZM2593.68 1118.3C2595.09 1118.3 2596.26 1118.79 2597.21 1119.78 2598.15 1120.76 2598.63 1122.01 2598.63 1123.52 2598.63 1125.04 2598.15 1126.29 2597.21 1127.27 2596.26 1128.26 2595.09 1128.75 2593.68 1128.75 2592.28 1128.75 2591.1 1128.26 2590.16 1127.27 2589.21 1126.29 2588.74 1125.04 2588.74 1123.52 2588.74 1122.01 2589.21 1120.76 2590.16 1119.78 2591.1 1118.79 2592.28 1118.3 2593.68 1118.3ZM2593.68 1096.74C2595.09 1096.74 2596.26 1097.23 2597.21 1098.22 2598.15 1099.2 2598.63 1100.45 2598.63 1101.96 2598.63 1103.48 2598.15 1104.73 2597.21 1105.71 2596.26 1106.7 2595.09 1107.19 2593.68 1107.19 2592.28 1107.19 2591.1 1106.7 2590.16 1105.71 2589.21 1104.73 2588.74 1103.48 2588.74 1101.96 2588.74 1100.45 2589.21 1099.2 2590.16 1098.22 2591.1 1097.23 2592.28 1096.74 2593.68 1096.74Z" fill-rule="evenodd"/><text fill="#000000" fill-opacity="0" font-family="Arial,Arial_MSFontService,sans-serif" font-size="53.5771" x="2588.74" y="1143.62">⋮</text><path d="M2593.68 1661.1C2595.09 1661.1 2596.26 1661.59 2597.21 1662.58 2598.15 1663.56 2598.63 1664.81 2598.63 1666.33 2598.63 1667.84 2598.15 1669.09 2597.21 1670.08 2596.26 1671.06 2595.09 1671.56 2593.68 1671.56 2592.28 1671.56 2591.1 1671.06 2590.16 1670.08 2589.21 1669.09 2588.74 1667.84 2588.74 1666.33 2588.74 1664.81 2589.21 1663.56 2590.16 1662.58 2591.1 1661.59 2592.28 1661.1 2593.68 1661.1ZM2593.68 1639.54C2595.09 1639.54 2596.26 1640.03 2597.21 1641.02 2598.15 1642 2598.63 1643.25 2598.63 1644.77 2598.63 1646.28 2598.15 1647.53 2597.21 1648.52 2596.26 1649.5 2595.09 1649.99 2593.68 1649.99 2592.28 1649.99 2591.1 1649.5 2590.16 1648.52 2589.21 1647.53 2588.74 1646.28 2588.74 1644.77 2588.74 1643.25 2589.21 1642 2590.16 1641.02 2591.1 1640.03 2592.28 1639.54 2593.68 1639.54ZM2593.68 1617.98C2595.09 1617.98 2596.26 1618.47 2597.21 1619.46 2598.15 1620.44 2598.63 1621.69 2598.63 1623.21 2598.63 1624.72 2598.15 1625.97 2597.21 1626.96 2596.26 1627.94 2595.09 1628.43 2593.68 1628.43 2592.28 1628.43 2591.1 1627.94 2590.16 1626.96 2589.21 1625.97 2588.74 1624.72 2588.74 1623.21 2588.74 1621.69 2589.21 1620.44 2590.16 1619.46 2591.1 1618.47 2592.28 1617.98 2593.68 1617.98Z" fill-rule="evenodd"/><text fill="#000000" fill-opacity="0" font-family="Arial,Arial_MSFontService,sans-serif" font-size="53.5771" x="2588.74" y="1664.86">⋮</text><path d="M1018.46 1391.06 1018.78 1392.36C1004.3 1397.11 996.087 1400.57 994.141 1402.73L990.899 1396.9C994.574 1396.9 1003.76 1394.95 1018.46 1391.06ZM1003.54 1367.07 1003.54 1381.01 1011.65 1381.01 1011.65 1367.07ZM1013.59 1362.2 1018.13 1366.09 1015.54 1368.04 1015.54 1378.09C1015.54 1379.39 1015.65 1381.44 1015.86 1384.25L1011.65 1386.2 1011.65 1382.95 1003.54 1382.95 1003.54 1385.55 999.329 1387.17C999.545 1383.28 999.653 1379.06 999.653 1374.52 999.653 1369.98 999.545 1365.99 999.329 1362.53L1003.54 1365.12 1011.32 1365.12ZM1029.81 1338.54C1034.34 1340.26 1037.26 1341.67 1038.56 1342.75 1039.86 1343.83 1040.5 1344.91 1040.5 1345.99 1040.5 1346.86 1040.23 1347.83 1039.69 1348.91 1039.15 1349.99 1038.78 1350.53 1038.56 1350.53 1037.91 1350.53 1037.26 1349.78 1036.61 1348.26 1035.32 1345.88 1032.83 1342.97 1029.16 1339.51ZM982.145 1338.54 989.602 1342.1 987.009 1344.37 987.009 1361.56 989.278 1361.56 992.844 1357.99 998.356 1363.5 987.009 1363.5 987.009 1388.79 997.384 1386.2 997.708 1387.49C983.01 1392.9 975.121 1396.57 974.04 1398.52L970.473 1392.36C974.148 1391.71 978.147 1390.84 982.469 1389.76L982.469 1363.5 981.173 1363.5C978.363 1363.5 975.769 1363.82 973.391 1364.47L970.473 1361.56 982.469 1361.56 982.469 1349.56C982.469 1346.97 982.361 1343.29 982.145 1338.54ZM1020.08 1336.91 1026.89 1340.81 1024.62 1343.07 1024.62 1354.1 1035.97 1354.1 1040.18 1349.88 1046.34 1356.04 1024.62 1356.04C1024.62 1366.42 1025.48 1376.15 1027.21 1385.22 1028.72 1382.41 1030.29 1378.63 1031.91 1373.88 1033.53 1369.12 1034.56 1365.34 1034.99 1362.53L1041.15 1367.72C1039.64 1368.36 1037.91 1371.28 1035.97 1376.47 1033.8 1381.66 1031.64 1386.41 1029.48 1390.73 1032.07 1395.71 1035.75 1399.92 1040.5 1403.38 1041.59 1399.92 1042.88 1395.27 1044.4 1389.44L1045.69 1389.76C1045.04 1394.73 1044.67 1398.89 1044.56 1402.24 1044.45 1405.59 1044.72 1408.35 1045.37 1410.51 1045.58 1411.38 1045.37 1411.81 1044.72 1411.81 1043.85 1411.81 1041.75 1410.84 1038.4 1408.89 1035.05 1406.95 1030.99 1402.19 1026.24 1394.63 1019.11 1403.06 1011 1409.22 1001.92 1413.11L1001.27 1412.13C1011.43 1405.65 1019 1398.41 1023.97 1390.41 1021.59 1381.12 1020.4 1369.66 1020.4 1356.04L1004.19 1356.04C1001.38 1356.04 998.789 1356.37 996.411 1357.02L993.493 1354.1 1020.4 1354.1 1020.4 1345.02C1020.4 1342.64 1020.29 1339.94 1020.08 1336.91ZM921.516 1336.91 928.325 1340.81 925.731 1342.43C928.541 1347.18 933.08 1352.26 939.348 1357.66 945.617 1363.07 953.506 1366.53 963.016 1368.04L963.016 1369.34C959.774 1369.98 957.721 1371.5 956.856 1373.88 952.101 1372.15 947.238 1369.34 942.266 1365.45 935.134 1359.61 929.19 1352.37 924.434 1343.72 917.95 1354.53 911.033 1362.85 903.684 1368.69L938.7 1368.69 942.266 1365.45 947.778 1370.63 927.352 1370.63 927.352 1386.52 940.969 1386.52 944.86 1382.63 950.696 1388.47 927.352 1388.47 927.352 1406.95 949.723 1406.95 954.262 1402.08 961.071 1408.89 901.091 1408.89C898.281 1408.89 895.687 1409.22 893.309 1409.86L890.391 1406.95 922.813 1406.95 922.813 1388.47 910.817 1388.47C908.007 1388.47 905.414 1388.79 903.036 1389.44L900.118 1386.52 922.813 1386.52 922.813 1370.63 912.438 1370.63C909.628 1370.63 907.143 1370.96 904.981 1371.61L902.712 1369.34C897.956 1372.79 892.877 1375.6 887.473 1377.77L887.149 1376.79C895.579 1371.82 902.604 1365.88 908.223 1358.96 913.843 1352.04 918.274 1344.7 921.516 1336.91Z" fill-rule="evenodd"/><text fill="#000000" fill-opacity="0" font-family="Arial,Arial_MSFontService,sans-serif" font-size="76.1914" x="887.149" y="1403.58">全域</text><path d="M1077.33 1349.68 1093.62 1349.68 1093.18 1351.67C1092.15 1351.88 1091.41 1352.13 1090.97 1352.4 1090.52 1352.67 1090.12 1353.07 1089.75 1353.61 1089.39 1354.15 1089.02 1355 1088.66 1356.14 1088.29 1357.29 1087.83 1359.16 1087.26 1361.76L1082.19 1384.45C1081.84 1385.99 1081.57 1387.46 1081.36 1388.85 1081.16 1390.24 1081.06 1391.68 1081.06 1393.17 1081.06 1396.11 1081.78 1398.34 1083.23 1399.85 1084.67 1401.37 1086.86 1402.12 1089.77 1402.12 1092.53 1402.12 1094.83 1401.56 1096.66 1400.42 1098.5 1399.29 1099.97 1397.65 1101.08 1395.52 1102.19 1393.38 1103.12 1390.61 1103.88 1387.21L1109.51 1361.72C1110.1 1359.02 1110.4 1356.84 1110.4 1355.19 1110.4 1353.92 1110.08 1353.04 1109.45 1352.54 1108.81 1352.04 1107.81 1351.75 1106.43 1351.67L1106.88 1349.68 1122.28 1349.68 1121.83 1351.67C1120.83 1351.88 1120.09 1352.13 1119.62 1352.42 1119.15 1352.7 1118.73 1353.11 1118.37 1353.65 1118 1354.19 1117.64 1355.04 1117.29 1356.21 1116.94 1357.37 1116.48 1359.22 1115.91 1361.76L1110.65 1386.03C1109.59 1390.87 1108.11 1394.72 1106.19 1397.58 1104.27 1400.45 1101.87 1402.51 1098.99 1403.78 1096.12 1405.05 1092.6 1405.69 1088.44 1405.69 1083.76 1405.69 1080.18 1404.56 1077.7 1402.31 1075.21 1400.05 1073.97 1396.76 1073.97 1392.44 1073.97 1390.92 1074.12 1389.19 1074.43 1387.23 1074.74 1385.27 1075.18 1383.06 1075.75 1380.6L1079.97 1361.72C1080.59 1358.93 1080.9 1356.76 1080.9 1355.19 1080.9 1353.98 1080.59 1353.11 1079.97 1352.58 1079.34 1352.05 1078.32 1351.75 1076.89 1351.67Z" fill-rule="evenodd"/><text fill="#000000" fill-opacity="0" font-family="Arial,Arial_MSFontService,sans-serif" font-size="56.0088" x="1073.97" y="1398.69">𝑈</text><rect x="3252.5" y="1286.5" width="638" height="177" stroke="#70AD47" stroke-width="4.58333" stroke-miterlimit="8" fill="#FFFFFF"/><rect x="3252.5" y="1463.5" width="638" height="178" stroke="#70AD47" stroke-width="4.58333" stroke-miterlimit="8" fill="#FFFFFF"/><path d="M3574.23 1346.95 3576.46 1346.95C3576.3 1349.54 3576.22 1353.14 3576.22 1357.73L3576.22 1392.34C3576.22 1393.91 3576.31 1395.09 3576.48 1395.88 3576.66 1396.68 3576.97 1397.33 3577.42 1397.83 3577.86 1398.33 3578.5 1398.72 3579.34 1399.01 3580.18 1399.29 3581.23 1399.51 3582.5 1399.65 3583.77 1399.8 3585.45 1399.9 3587.53 1399.96L3587.53 1402.92 3557.58 1402.92 3557.58 1399.96C3560.58 1399.82 3562.72 1399.64 3564 1399.41 3565.29 1399.18 3566.26 1398.84 3566.94 1398.38 3567.62 1397.92 3568.11 1397.27 3568.42 1396.43 3568.73 1395.59 3568.89 1394.23 3568.89 1392.34L3568.89 1359.47C3568.89 1358.39 3568.7 1357.6 3568.32 1357.1 3567.94 1356.6 3567.39 1356.35 3566.66 1356.35 3565.79 1356.35 3564.56 1356.8 3562.97 1357.69 3561.37 1358.58 3559.4 1359.81 3557.05 1361.38L3555.27 1358.26Z" fill-rule="evenodd"/><text fill="#000000" fill-opacity="0" font-family="Arial,Arial_MSFontService,sans-serif" font-size="55.9683" x="3555.27" y="1395.92">1</text><path d="M0.00840113-1.1458 313.961 1.15612 313.944 3.44773-0.00840113 1.1458ZM309.47-11.4813 336.868 2.46995 309.268 16.018Z" fill="#4472C4" transform="matrix(1 0 0 -1 2915 1377.47)"/><path d="M0.0226969-1.14561 36.0843-0.431153 71.885 1.65265 107.121 5.01406 141.51 9.56193 174.767 15.2043 190.893 18.4095 206.626 21.8533 221.938 25.5257 236.792 29.4153 251.153 33.5109 264.988 37.8012 278.26 42.275 290.935 46.9212 302.978 51.7289 314.354 56.687 325.029 61.7849 334.967 67.0121 344.135 72.3583 352.498 77.8138 360.022 83.3695 366.671 89.0173 372.41 94.7499 377.204 100.561 381.012 106.447 383.792 112.399 385.496 118.409 386.064 124.344 386.622 130.176 386.584 129.972 388.234 135.793 388.17 135.62 390.878 141.418 390.802 141.28 394.531 147.044 394.453 146.937 399.17 152.655 399.096 152.573 404.763 158.234 404.695 158.172 411.28 163.764 411.219 163.716 418.684 169.229 418.629 169.191 426.94 174.612 426.891 174.582 436.013 179.901 435.969 179.877 445.866 185.082 445.826 185.062 456.463 190.142 456.427 190.126 467.769 195.069 467.736 195.055 479.747 199.85 479.716 199.838 492.362 204.474 492.334 204.464 505.578 208.928 505.552 208.92 519.36 213.202 519.335 213.194 533.672 217.283 533.648 217.276 548.479 221.16 548.456 221.154 563.744 224.821 563.722 224.816 579.434 228.255 579.412 228.25 595.511 231.45 595.479 231.444 628.7 237.081 628.658 237.074 663.006 241.617 662.965 241.612 698.159 244.969 698.117 244.966 733.874 247.047 733.83 247.046 746.958 247.306 746.912 249.597 733.763 249.336 697.962 247.253 662.727 243.891 628.337 239.343 595.08 233.701 578.954 230.496 563.221 227.052 547.91 223.38 533.056 219.49 518.694 215.395 504.86 211.104 491.587 206.63 478.912 201.984 466.869 197.177 455.493 192.219 444.819 187.121 434.88 181.894 425.712 176.547 417.349 171.092 409.826 165.536 403.177 159.888 397.437 154.156 392.643 148.344 388.835 142.459 386.055 136.507 384.351 130.497 383.783 124.562 383.225 118.73 383.263 118.934 381.613 113.113 381.677 113.286 378.969 107.488 379.046 107.626 375.316 101.862 375.394 101.969 370.678 96.2507 370.752 96.3323 365.084 90.6714 365.152 90.734 358.568 85.1414 358.629 85.1898 351.164 79.677 351.218 79.715 342.907 74.2933 342.956 74.3235 333.835 69.0043 333.878 69.0286 323.982 63.8235 324.021 63.8433 313.384 58.7635 313.42 58.7799 302.079 53.8368 302.112 53.8506 290.1 49.0556 290.131 49.0673 277.485 44.4318 277.514 44.4418 264.269 39.9772 264.296 39.9858 250.487 35.7036 250.512 35.7111 236.175 31.6225 236.199 31.6291 221.369 27.7457 221.392 27.7514 206.103 24.0845 206.125 24.0896 190.414 20.6505 190.435 20.655 174.336 17.4552 174.368 17.461 141.147 11.8248 141.189 11.8311 106.841 7.28868 106.882 7.29339 71.6885 3.93597 71.7307 3.93921 35.973 1.85792 36.0169 1.85963-0.0226969 1.14561ZM742.625 234.613 769.847 248.905 742.08 262.108Z" fill="#4472C4" transform="matrix(1 0 0 -1 1507 920.905)"/><path d="M0.0137108-1.14575 35.2017-0.724668 70.1275 0.503199 104.502 2.48391 138.051 5.16374 170.497 8.48869 186.227 10.377 201.575 12.4062 216.511 14.57 231.001 16.8618 245.01 19.2748 258.504 21.8024 271.45 24.4381 283.812 27.1752 295.557 30.0072 306.651 32.9277 317.06 35.9303 326.751 39.0088 335.69 42.1574 343.845 45.3706 351.182 48.6435 357.671 51.9727 363.281 55.3567 367.98 58.798 371.738 62.3055 374.515 65.8966 376.248 69.5892 376.818 73.1877 377.363 76.6256 377.268 76.3179 378.879 79.7491 378.749 79.5352 381.391 82.9529 381.267 82.8162 384.907 86.2138 384.802 86.127 389.405 89.4977 389.32 89.4411 394.852 92.7782 394.783 92.7399 401.209 96.0367 401.153 96.0098 408.439 99.2596 408.392 99.24 416.504 102.436 416.464 102.421 425.367 105.557 425.333 105.546 434.993 108.614 434.963 108.605 445.345 111.6 445.319 111.593 456.388 114.507 456.365 114.501 468.088 117.328 468.067 117.323 480.41 120.056 480.39 120.051 493.317 122.683 493.3 122.68 506.777 125.204 506.76 125.201 520.753 127.612 520.738 127.609 535.213 129.898 535.198 129.896 550.12 132.058 550.106 132.056 565.44 134.083 565.426 134.082 581.139 135.968 581.12 135.966 613.543 139.288 613.517 139.286 647.041 141.964 647.016 141.962 681.365 143.941 681.339 143.94 716.239 145.167 716.212 145.166 728.472 145.313 728.445 147.605 716.172 147.458 681.246 146.23 646.871 144.249 613.322 141.569 580.876 138.244 565.146 136.356 549.798 134.327 534.862 132.163 520.372 129.871 506.363 127.458 492.869 124.931 479.924 122.295 467.562 119.558 455.817 116.726 444.723 113.806 434.313 110.803 424.622 107.725 415.683 104.576 407.529 101.363 400.191 98.09 393.702 94.7609 388.092 91.3769 383.393 87.9356 379.635 84.4282 376.858 80.8372 375.125 77.1447 374.555 73.5462 374.01 70.1082 374.105 70.4159 372.494 66.9846 372.625 67.1986 369.982 63.7807 370.107 63.9175 366.466 60.5198 366.571 60.6066 361.968 57.2358 362.053 57.2925 356.521 53.9553 356.59 53.9936 350.164 50.6967 350.22 50.7237 342.934 47.4738 342.981 47.4934 334.869 44.2973 334.909 44.312 326.006 41.1763 326.04 41.1876 316.381 38.119 316.41 38.1279 306.028 35.1333 306.054 35.1404 294.985 32.2264 295.008 32.2322 283.285 29.4055 283.306 29.4103 270.964 26.6777 270.983 26.6817 258.056 24.0498 258.074 24.0533 244.596 21.5288 244.613 21.5318 230.62 19.1215 230.635 19.1241 216.161 16.8347 216.175 16.837 201.254 14.6752 201.268 14.6772 185.933 12.6498 185.947 12.6515 170.234 10.7652 170.254 10.7674 137.831 7.44478 137.856 7.44711 104.332 4.76931 104.358 4.77105 70.0084 2.79181 70.0341 2.793 35.1345 1.56605 35.161 1.56668-0.0137108 1.14575ZM724.04 132.655 751.373 146.733 723.711 160.153Z" fill="#4472C4" transform="matrix(1 0 0 -1 1525 996.733)"/><path d="M1530.01 1087.85 1547.52 1088.06 1565 1088.68 1582.41 1089.7 1599.73 1091.1 1633.89 1094.99 1667.25 1100.27 1699.5 1106.8 1715.14 1110.52 1730.4 1114.51 1745.25 1118.77 1759.66 1123.28 1773.59 1128.02 1787.01 1133 1799.88 1138.18 1812.17 1143.57 1823.85 1149.14 1834.89 1154.89 1845.24 1160.8 1854.88 1166.86 1863.77 1173.05 1871.88 1179.38 1879.18 1185.81 1885.62 1192.36 1891.18 1198.99 1895.82 1205.71 1899.5 1212.51 1902.18 1219.37 1903.82 1226.27 1904.37 1233.12 1904.91 1239.88 1904.88 1239.7 1906.48 1246.45 1906.43 1246.3 1909.06 1253.01 1909 1252.89 1912.62 1259.56 1912.55 1259.46 1917.12 1266.08 1917.06 1266 1922.55 1272.56 1922.49 1272.49 1928.88 1278.97 1928.82 1278.92 1936.06 1285.3 1936 1285.26 1944.06 1291.54 1944.01 1291.51 1952.86 1297.67 1952.81 1297.64 1962.41 1303.67 1962.37 1303.65 1972.68 1309.53 1972.64 1309.51 1983.64 1315.24 1983.6 1315.22 1995.25 1320.78 1995.21 1320.76 2007.48 1326.13 2007.44 1326.12 2020.29 1331.29 2020.26 1331.28 2033.64 1336.24 2033.62 1336.23 2047.52 1340.97 2047.49 1340.96 2061.87 1345.46 2061.84 1345.45 2076.67 1349.7 2076.64 1349.7 2091.88 1353.68 2091.85 1353.67 2107.46 1357.38 2107.42 1357.37 2139.63 1363.9 2139.59 1363.9 2172.89 1369.16 2172.84 1369.15 2206.96 1373.04 2206.93 1373.04 2224.21 1374.44 2224.19 1374.44 2241.57 1375.45 2241.54 1375.45 2253.57 1375.81 2253.5 1378.1 2241.46 1377.74 2224.04 1376.72 2206.72 1375.32 2172.56 1371.43 2139.2 1366.16 2106.95 1359.62 2091.31 1355.9 2076.05 1351.91 2061.2 1347.65 2046.79 1343.14 2032.86 1338.4 2019.44 1333.42 2006.57 1328.24 1994.28 1322.85 1982.6 1317.28 1971.56 1311.53 1961.21 1305.62 1951.57 1299.56 1942.68 1293.37 1934.57 1287.05 1927.27 1280.61 1920.83 1274.07 1915.27 1267.43 1910.63 1260.71 1906.95 1253.91 1904.27 1247.06 1902.63 1240.15 1902.08 1233.3 1901.54 1226.54 1901.57 1226.72 1899.97 1219.97 1900.02 1220.13 1897.39 1213.41 1897.45 1213.54 1893.83 1206.86 1893.9 1206.96 1889.33 1200.34 1889.39 1200.42 1883.9 1193.86 1883.96 1193.93 1877.57 1187.45 1877.63 1187.51 1870.39 1181.12 1870.45 1181.16 1862.39 1174.88 1862.44 1174.92 1853.59 1168.75 1853.64 1168.78 1844.04 1162.75 1844.08 1162.78 1833.77 1156.89 1833.81 1156.91 1822.81 1151.18 1822.85 1151.2 1811.2 1145.64 1811.24 1145.66 1798.97 1140.29 1799.01 1140.3 1786.16 1135.13 1786.19 1135.14 1772.81 1130.18 1772.83 1130.19 1758.93 1125.45 1758.96 1125.46 1744.58 1120.96 1744.61 1120.97 1729.78 1116.72 1729.81 1116.73 1714.57 1112.74 1714.6 1112.75 1698.99 1109.04 1699.03 1109.05 1666.82 1102.52 1666.86 1102.52 1633.56 1097.26 1633.61 1097.27 1599.49 1093.38 1599.52 1093.38 1582.24 1091.98 1582.26 1091.99 1564.88 1090.97 1564.9 1090.97 1547.45 1090.35 1547.48 1090.35 1529.99 1090.15ZM2249.24 1363.11 2276.45 1377.42 2248.67 1390.6Z" fill="#4472C4"/><path d="M1475.03 1156.85 1493.84 1157.4 1512.65 1159.02 1531.38 1161.68 1549.99 1165.33 1568.46 1169.96 1586.74 1175.51 1604.8 1181.97 1622.6 1189.29 1640.1 1197.43 1657.27 1206.37 1674.07 1216.07 1690.47 1226.49 1706.43 1237.61 1721.9 1249.38 1736.87 1261.77 1751.28 1274.75 1765.1 1288.28 1778.3 1302.33 1790.83 1316.87 1802.67 1331.85 1813.77 1347.25 1824.1 1363.03 1833.63 1379.16 1842.3 1395.6 1850.1 1412.32 1856.98 1429.28 1862.9 1446.46 1867.83 1463.81 1871.72 1481.3 1874.55 1498.9 1876.28 1516.57 1876.86 1534.23 1877.44 1551.87 1877.44 1551.79 1879.15 1569.39 1879.14 1569.32 1881.96 1586.85 1881.95 1586.78 1885.83 1604.21 1885.82 1604.14 1890.73 1621.43 1890.71 1621.37 1896.61 1638.49 1896.59 1638.43 1903.44 1655.34 1903.42 1655.28 1911.19 1671.95 1911.16 1671.9 1919.82 1688.29 1919.79 1688.24 1929.29 1704.33 1929.26 1704.28 1939.56 1720.02 1939.53 1719.98 1950.6 1735.33 1950.57 1735.29 1962.38 1750.24 1962.35 1750.2 1974.85 1764.7 1974.82 1764.66 1987.98 1778.68 1987.95 1778.64 2001.74 1792.14 2001.7 1792.11 2016.08 1805.05 2016.04 1805.02 2030.97 1817.39 2030.93 1817.36 2046.37 1829.1 2046.33 1829.07 2062.25 1840.16 2062.21 1840.13 2078.56 1850.53 2078.52 1850.5 2095.28 1860.18 2095.24 1860.15 2112.36 1869.07 2112.32 1869.05 2129.78 1877.17 2129.73 1877.15 2147.48 1884.45 2147.43 1884.43 2165.43 1890.86 2165.38 1890.85 2183.61 1896.39 2183.55 1896.37 2201.96 1900.98 2201.91 1900.97 2220.46 1904.61 2220.4 1904.6 2239.07 1907.25 2239 1907.24 2253.62 1908.32 2253.45 1910.61 2238.79 1909.53 2220.05 1906.87 2201.44 1903.21 2182.97 1898.59 2164.69 1893.03 2146.63 1886.58 2128.83 1879.26 2111.33 1871.11 2094.16 1862.17 2077.35 1852.47 2060.96 1842.05 2045 1830.94 2029.53 1819.17 2014.56 1806.77 2000.15 1793.79 1986.33 1780.26 1973.13 1766.21 1960.6 1751.68 1948.76 1736.69 1937.66 1721.29 1927.33 1705.51 1917.8 1689.39 1909.12 1672.94 1901.33 1656.22 1894.45 1639.26 1888.53 1622.09 1883.6 1604.74 1879.71 1587.25 1876.88 1569.65 1875.15 1551.98 1874.57 1534.31 1873.99 1516.68 1873.99 1516.75 1872.28 1499.15 1872.28 1499.22 1869.47 1481.7 1869.48 1481.76 1865.6 1464.34 1865.61 1464.4 1860.7 1447.11 1860.72 1447.17 1854.82 1430.06 1854.84 1430.12 1847.99 1413.21 1848.01 1413.26 1840.24 1396.59 1840.26 1396.64 1831.61 1380.25 1831.64 1380.3 1822.14 1364.22 1822.17 1364.26 1811.87 1348.53 1811.9 1348.57 1800.83 1333.21 1800.86 1333.25 1789.05 1318.31 1789.08 1318.34 1776.58 1303.85 1776.61 1303.88 1763.44 1289.87 1763.48 1289.9 1749.69 1276.4 1749.72 1276.44 1735.35 1263.49 1735.39 1263.52 1720.46 1251.16 1720.5 1251.19 1705.06 1239.45 1705.1 1239.48 1689.18 1228.39 1689.22 1228.42 1672.87 1218.02 1672.91 1218.04 1656.15 1208.37 1656.19 1208.39 1639.06 1199.48 1639.11 1199.5 1621.65 1191.37 1621.7 1191.4 1603.95 1184.1 1604 1184.12 1585.99 1177.68 1586.05 1177.7 1567.82 1172.16 1567.87 1172.17 1549.46 1167.56 1549.52 1167.58 1530.96 1163.93 1531.02 1163.94 1512.36 1161.29 1512.42 1161.3 1493.68 1159.69 1493.74 1159.69 1474.97 1159.15ZM2249.61 1895.52 2276.43 1910.54 2248.31 1922.99Z" fill="#4472C4"/></g></svg>