<svg width="1934" height="1082" xmlns="http://www.w3.org/2000/svg" xmlns:xlink="http://www.w3.org/1999/xlink" xml:space="preserve" overflow="hidden"><g transform="translate(-1221 -630)"><path d="M1623 796.5C1623 704.545 1697.77 630 1790 630 1882.23 630 1957 704.545 1957 796.5 1957 888.455 1882.23 963 1790 963 1697.77 963 1623 888.455 1623 796.5Z" fill="#FFFFFF" fill-rule="evenodd"/><path d="M1734.61 765.916C1737.26 765.916 1739.54 766.132 1741.46 766.564L1739.88 773.454 1736.31 773.454C1735.93 771.914 1735.44 770.806 1734.83 770.13 1734.22 769.455 1733.32 769.117 1732.14 769.117 1730.6 769.117 1729.29 769.543 1728.22 770.394 1727.16 771.245 1726.25 772.508 1725.49 774.183 1724.73 775.858 1724.03 778.114 1723.38 780.951L1722.37 785.369 1732.78 785.369 1731.89 789.462 1721.44 789.462 1713.9 824.802C1712.66 830.665 1710.75 835.035 1708.18 837.912 1705.62 840.79 1702.39 842.229 1698.5 842.229 1697.36 842.229 1696.47 842.161 1695.82 842.026L1696.51 838.46C1696.78 838.541 1697.42 838.581 1698.42 838.581 1699.63 838.581 1700.67 838.27 1701.54 837.649 1702.4 837.028 1703.21 835.947 1703.95 834.407 1704.69 832.867 1705.37 830.732 1706 828.003L1714.71 789.462 1707.86 789.462 1708.47 786.666C1710.28 786.557 1711.58 786.409 1712.38 786.22 1713.18 786.031 1713.8 785.747 1714.24 785.369 1714.69 784.99 1715.07 784.497 1715.38 783.889 1715.69 783.282 1716.09 782.167 1716.57 780.546 1718 775.683 1720.21 772.028 1723.2 769.583 1726.18 767.138 1729.99 765.916 1734.61 765.916Z" fill-rule="evenodd"/><text fill="#000000" fill-opacity="0" font-family="Arial,Arial_MSFontService,sans-serif" font-size="76.313" x="1695.82" y="832.689">𝑓</text><path d="M1829.94 761.999C1837.83 764.079 1843.89 768.571 1848.12 775.474 1852.35 782.377 1854.46 790.706 1854.46 800.459 1854.46 810.24 1852.35 818.568 1848.14 825.444 1843.92 832.32 1837.86 836.799 1829.94 838.879L1828.97 835.759C1835.21 833.678 1839.85 829.571 1842.89 823.438 1845.93 817.305 1847.45 809.51 1847.45 800.054 1847.45 790.922 1845.94 783.336 1842.91 777.298 1839.88 771.259 1835.2 767.2 1828.85 765.119ZM1775.91 761.999 1777.01 765.119C1770.68 767.2 1766 771.259 1762.96 777.298 1759.92 783.336 1758.4 790.922 1758.4 800.054 1758.4 809.51 1759.92 817.305 1762.96 823.438 1766 829.571 1770.64 833.678 1776.88 835.759L1775.91 838.879C1767.99 836.799 1761.93 832.32 1757.71 825.444 1753.5 818.568 1751.39 810.24 1751.39 800.459 1751.39 790.706 1753.51 782.377 1757.73 775.474 1761.96 768.571 1768.02 764.079 1775.91 761.999Z" fill-rule="evenodd"/><path d="M1791.1 784.68C1792.8 784.68 1794.15 785.24 1795.13 786.362 1796.12 787.483 1796.61 788.949 1796.61 790.759 1796.61 792.191 1796.29 793.785 1795.64 795.541L1796.13 795.703C1798.77 791.975 1801.29 789.212 1803.68 787.415 1806.08 785.619 1808.54 784.72 1811.08 784.72 1813.59 784.72 1815.53 785.443 1816.88 786.888 1818.23 788.334 1818.9 790.34 1818.9 792.907 1818.9 794.609 1818.51 797.027 1817.73 800.161L1815.09 810.779C1814.36 813.724 1814 815.805 1814 817.021 1814 818.101 1814.17 818.885 1814.53 819.371 1814.88 819.857 1815.43 820.101 1816.19 820.101 1817 820.101 1817.86 819.77 1818.78 819.108 1819.7 818.446 1821 817.183 1822.67 815.318L1824.98 817.588C1822.66 820.074 1820.63 821.891 1818.9 823.039 1817.17 824.187 1815.2 824.761 1812.99 824.761 1811.23 824.761 1809.82 824.133 1808.77 822.877 1807.72 821.62 1807.19 820.02 1807.19 818.074 1807.19 816.318 1807.64 813.738 1808.53 810.334L1810.31 803.322C1810.96 800.783 1811.38 798.905 1811.59 797.689 1811.79 796.473 1811.89 795.487 1811.89 794.731 1811.89 792.866 1811.58 791.522 1810.96 790.698 1810.34 789.874 1809.32 789.462 1807.92 789.462 1806.79 789.462 1805.56 789.915 1804.25 790.82 1802.94 791.725 1801.55 793.089 1800.08 794.913 1798.61 796.737 1797.42 798.506 1796.53 800.222 1795.64 801.938 1794.91 804.052 1794.34 806.565L1790.49 824.113 1783.48 824.113 1789.4 798.419C1789.99 795.825 1790.29 793.825 1790.29 792.42 1790.29 791.34 1790.11 790.556 1789.76 790.07 1789.41 789.584 1788.86 789.34 1788.1 789.34 1787.26 789.34 1786.38 789.685 1785.45 790.374 1784.52 791.063 1783.24 792.312 1781.62 794.123L1779.31 791.853C1781.79 789.259 1783.86 787.415 1785.51 786.321 1787.16 785.227 1789.02 784.68 1791.1 784.68Z" fill-rule="evenodd"/><text fill="#000000" fill-opacity="0" font-family="Arial,Arial_MSFontService,sans-serif" font-size="40.0815" x="1779.31" y="819.751">𝑛</text><path d="M1221 1137C1221 1044.77 1295.54 970 1387.5 970 1479.46 970 1554 1044.77 1554 1137 1554 1229.23 1479.46 1304 1387.5 1304 1295.54 1304 1221 1229.23 1221 1137Z" fill="#FFFFFF" fill-rule="evenodd"/><path d="M1318.46 1108.52C1321.11 1108.52 1323.39 1108.74 1325.31 1109.17L1323.73 1116.06 1320.16 1116.06C1319.78 1114.52 1319.29 1113.41 1318.68 1112.74 1318.08 1112.06 1317.18 1111.72 1315.99 1111.72 1314.45 1111.72 1313.14 1112.15 1312.08 1113 1311.01 1113.85 1310.1 1115.11 1309.34 1116.79 1308.59 1118.46 1307.88 1120.72 1307.23 1123.56L1306.22 1127.97 1316.64 1127.97 1315.74 1132.07 1305.29 1132.07 1297.75 1167.41C1296.51 1173.27 1294.6 1177.64 1292.04 1180.52 1289.47 1183.39 1286.24 1184.83 1282.35 1184.83 1281.22 1184.83 1280.32 1184.77 1279.68 1184.63L1280.36 1181.06C1280.63 1181.15 1281.27 1181.19 1282.27 1181.19 1283.49 1181.19 1284.53 1180.88 1285.39 1180.25 1286.25 1179.63 1287.06 1178.55 1287.8 1177.01 1288.54 1175.47 1289.23 1173.34 1289.85 1170.61L1298.56 1132.07 1291.71 1132.07 1292.32 1129.27C1294.13 1129.16 1295.43 1129.01 1296.23 1128.82 1297.03 1128.64 1297.65 1128.35 1298.1 1127.97 1298.54 1127.6 1298.92 1127.1 1299.23 1126.49 1299.54 1125.89 1299.94 1124.77 1300.43 1123.15 1301.86 1118.29 1304.07 1114.63 1307.05 1112.19 1310.04 1109.74 1313.84 1108.52 1318.46 1108.52Z" fill-rule="evenodd"/><text fill="#000000" fill-opacity="0" font-family="Arial,Arial_MSFontService,sans-serif" font-size="76.313" x="1279.68" y="1175.29">𝑓</text><path d="M1436.43 1061.02C1444.23 1067.13 1451.04 1077.12 1456.85 1090.99 1462.66 1104.87 1465.57 1122.19 1465.57 1142.97 1465.57 1163.8 1462.66 1181.15 1456.85 1195.03 1451.04 1208.9 1444.23 1218.89 1436.43 1225L1434.08 1222.28C1440.91 1215.96 1446.56 1206.12 1451.02 1192.78 1455.47 1179.43 1457.7 1162.84 1457.7 1143.01 1457.7 1123.18 1455.47 1106.59 1451.02 1093.24 1446.56 1079.89 1440.91 1070.06 1434.08 1063.74ZM1377.73 1061.02 1380.08 1063.74C1373.24 1070.06 1367.6 1079.89 1363.14 1093.24 1358.68 1106.59 1356.45 1123.18 1356.45 1143.01 1356.45 1162.84 1358.68 1179.43 1363.14 1192.78 1367.6 1206.12 1373.24 1215.96 1380.08 1222.28L1377.73 1225C1369.92 1218.89 1363.11 1208.9 1357.3 1195.03 1351.49 1181.15 1348.59 1163.8 1348.59 1142.97 1348.59 1122.19 1351.49 1104.87 1357.3 1090.99 1363.11 1077.12 1369.92 1067.13 1377.73 1061.02Z" fill-rule="evenodd"/><path d="M1395.24 1064.84C1396.94 1064.84 1398.28 1065.4 1399.27 1066.52 1400.25 1067.64 1400.75 1069.11 1400.75 1070.92 1400.75 1072.35 1400.42 1073.94 1399.77 1075.7L1400.26 1075.86C1402.91 1072.13 1405.43 1069.37 1407.82 1067.57 1410.21 1065.78 1412.68 1064.88 1415.22 1064.88 1417.73 1064.88 1419.66 1065.6 1421.01 1067.05 1422.36 1068.49 1423.04 1070.5 1423.04 1073.06 1423.04 1074.77 1422.65 1077.18 1421.86 1080.32L1419.23 1090.94C1418.5 1093.88 1418.13 1095.96 1418.13 1097.18 1418.13 1098.26 1418.31 1099.04 1418.66 1099.53 1419.01 1100.01 1419.57 1100.26 1420.32 1100.26 1421.13 1100.26 1422 1099.93 1422.92 1099.26 1423.83 1098.6 1425.13 1097.34 1426.81 1095.48L1429.12 1097.74C1426.79 1100.23 1424.77 1102.05 1423.04 1103.2 1421.31 1104.34 1419.34 1104.92 1417.12 1104.92 1415.36 1104.92 1413.96 1104.29 1412.91 1103.03 1411.85 1101.78 1411.32 1100.18 1411.32 1098.23 1411.32 1096.48 1411.77 1093.89 1412.66 1090.49L1414.45 1083.48C1415.09 1080.94 1415.52 1079.06 1415.72 1077.85 1415.92 1076.63 1416.03 1075.64 1416.03 1074.89 1416.03 1073.02 1415.71 1071.68 1415.09 1070.86 1414.47 1070.03 1413.46 1069.62 1412.05 1069.62 1410.92 1069.62 1409.7 1070.07 1408.39 1070.98 1407.08 1071.88 1405.68 1073.25 1404.21 1075.07 1402.74 1076.89 1401.56 1078.66 1400.67 1080.38 1399.77 1082.09 1399.04 1084.21 1398.48 1086.72L1394.63 1104.27 1387.62 1104.27 1393.53 1078.58C1394.13 1075.98 1394.42 1073.98 1394.42 1072.58 1394.42 1071.5 1394.25 1070.71 1393.9 1070.23 1393.55 1069.74 1392.99 1069.5 1392.24 1069.5 1391.4 1069.5 1390.51 1069.84 1389.58 1070.53 1388.65 1071.22 1387.37 1072.47 1385.75 1074.28L1383.44 1072.01C1385.93 1069.42 1387.99 1067.57 1389.64 1066.48 1391.29 1065.38 1393.15 1064.84 1395.24 1064.84Z" fill-rule="evenodd"/><text fill="#000000" fill-opacity="0" font-family="Arial,Arial_MSFontService,sans-serif" font-size="40.0815" x="1383.44" y="1099.91">𝑛</text><path d="M1411.95 1187.25C1410.66 1187.25 1409.38 1187.66 1408.12 1188.49 1406.87 1189.31 1405.47 1190.67 1403.93 1192.58 1402.39 1194.48 1401.13 1196.44 1400.16 1198.44 1399.19 1200.44 1398.36 1202.99 1397.69 1206.1L1397.32 1207.8C1396.92 1209.69 1396.72 1211.53 1396.72 1213.31 1396.72 1215.44 1397.18 1216.98 1398.11 1217.93 1399.05 1218.88 1400.59 1219.35 1402.75 1219.35 1403.86 1219.35 1404.92 1219.17 1405.92 1218.8 1406.92 1218.44 1407.94 1217.83 1408.98 1217 1410.02 1216.16 1411 1215.06 1411.93 1213.69 1412.87 1212.33 1413.72 1210.65 1414.51 1208.65 1415.29 1206.65 1415.9 1204.51 1416.33 1202.23 1416.76 1199.94 1416.98 1197.76 1416.98 1195.68 1416.98 1192.87 1416.58 1190.76 1415.78 1189.36 1414.99 1187.95 1413.71 1187.25 1411.95 1187.25ZM1404.86 1163.95 1407.21 1163.95 1400.08 1192.32 1400.61 1192.48C1403.23 1188.97 1405.69 1186.43 1407.98 1184.86 1410.28 1183.29 1412.58 1182.51 1414.87 1182.51 1417.82 1182.51 1420.11 1183.63 1421.74 1185.87 1423.38 1188.11 1424.19 1191.28 1424.19 1195.36 1424.19 1199.81 1423.29 1204.2 1421.5 1208.51 1419.7 1212.82 1417.21 1216.23 1414.02 1218.76 1410.83 1221.29 1407.27 1222.55 1403.32 1222.55 1399.73 1222.55 1396.54 1221.67 1393.76 1219.92L1390.03 1222.55 1387.43 1221.9 1397.93 1175.58C1398.55 1172.82 1398.86 1170.82 1398.86 1169.58 1398.86 1168.45 1398.52 1167.65 1397.83 1167.19 1397.14 1166.73 1395.91 1166.47 1394.12 1166.42L1394.61 1164.31Z" fill-rule="evenodd"/><text fill="#000000" fill-opacity="0" font-family="Arial,Arial_MSFontService,sans-serif" font-size="58.6025" x="1387.43" y="1215.22">𝑏</text><path d="M1382.28 1140.73 1406.78 1140.73 1431.28 1140.73 1431.28 1145.73 1406.78 1145.73 1382.28 1145.73Z" fill-rule="evenodd"/><path d="M2033 1137C2033 1044.77 2107.77 970 2200 970 2292.23 970 2367 1044.77 2367 1137 2367 1229.23 2292.23 1304 2200 1304 2107.77 1304 2033 1229.23 2033 1137Z" fill="#FFFFFF" fill-rule="evenodd"/><path d="M2131.04 1108.52C2133.69 1108.52 2135.97 1108.74 2137.89 1109.17L2136.31 1116.06 2132.74 1116.06C2132.37 1114.52 2131.87 1113.41 2131.26 1112.74 2130.66 1112.06 2129.76 1111.72 2128.57 1111.72 2127.03 1111.72 2125.73 1112.15 2124.66 1113 2123.59 1113.85 2122.68 1115.11 2121.92 1116.79 2121.17 1118.46 2120.46 1120.72 2119.82 1123.56L2118.8 1127.97 2129.22 1127.97 2128.33 1132.07 2117.87 1132.07 2110.33 1167.41C2109.09 1173.27 2107.18 1177.64 2104.62 1180.52 2102.05 1183.39 2098.82 1184.83 2094.93 1184.83 2093.8 1184.83 2092.91 1184.77 2092.26 1184.63L2092.95 1181.06C2093.22 1181.15 2093.85 1181.19 2094.85 1181.19 2096.07 1181.19 2097.11 1180.88 2097.97 1180.25 2098.84 1179.63 2099.64 1178.55 2100.38 1177.01 2101.13 1175.47 2101.81 1173.34 2102.43 1170.61L2111.14 1132.07 2104.29 1132.07 2104.9 1129.27C2106.71 1129.16 2108.01 1129.01 2108.81 1128.82 2109.61 1128.64 2110.23 1128.35 2110.68 1127.97 2111.12 1127.6 2111.5 1127.1 2111.81 1126.49 2112.12 1125.89 2112.52 1124.77 2113.01 1123.15 2114.44 1118.29 2116.65 1114.63 2119.63 1112.19 2122.62 1109.74 2126.42 1108.52 2131.04 1108.52Z" fill-rule="evenodd"/><text fill="#000000" fill-opacity="0" font-family="Arial,Arial_MSFontService,sans-serif" font-size="76.313" x="2092.26" y="1175.29">𝑓</text><path d="M2249.01 1061.02C2256.82 1067.13 2263.62 1077.12 2269.43 1090.99 2275.24 1104.87 2278.15 1122.19 2278.15 1142.97 2278.15 1163.8 2275.24 1181.15 2269.43 1195.03 2263.62 1208.9 2256.82 1218.89 2249.01 1225L2246.66 1222.28C2253.49 1215.96 2259.14 1206.12 2263.6 1192.78 2268.06 1179.43 2270.28 1162.84 2270.28 1143.01 2270.28 1123.18 2268.06 1106.59 2263.6 1093.24 2259.14 1079.89 2253.49 1070.06 2246.66 1063.74ZM2190.31 1061.02 2192.66 1063.74C2185.82 1070.06 2180.18 1079.89 2175.72 1093.24 2171.26 1106.59 2169.03 1123.18 2169.03 1143.01 2169.03 1162.84 2171.26 1179.43 2175.72 1192.78 2180.18 1206.12 2185.82 1215.96 2192.66 1222.28L2190.31 1225C2182.5 1218.89 2175.69 1208.9 2169.88 1195.03 2164.08 1181.15 2161.17 1163.8 2161.17 1142.97 2161.17 1122.19 2164.08 1104.87 2169.88 1090.99 2175.69 1077.12 2182.5 1067.13 2190.31 1061.02Z" fill-rule="evenodd"/><path d="M2207.82 1064.84C2209.52 1064.84 2210.86 1065.4 2211.85 1066.52 2212.83 1067.64 2213.33 1069.11 2213.33 1070.92 2213.33 1072.35 2213 1073.94 2212.35 1075.7L2212.84 1075.86C2215.49 1072.13 2218.01 1069.37 2220.4 1067.57 2222.79 1065.78 2225.26 1064.88 2227.8 1064.88 2230.31 1064.88 2232.24 1065.6 2233.59 1067.05 2234.94 1068.49 2235.62 1070.5 2235.62 1073.06 2235.62 1074.77 2235.23 1077.18 2234.44 1080.32L2231.81 1090.94C2231.08 1093.88 2230.71 1095.96 2230.71 1097.18 2230.71 1098.26 2230.89 1099.04 2231.24 1099.53 2231.59 1100.01 2232.15 1100.26 2232.9 1100.26 2233.71 1100.26 2234.58 1099.93 2235.5 1099.26 2236.41 1098.6 2237.71 1097.34 2239.39 1095.48L2241.7 1097.74C2239.37 1100.23 2237.35 1102.05 2235.62 1103.2 2233.89 1104.34 2231.92 1104.92 2229.7 1104.92 2227.94 1104.92 2226.54 1104.29 2225.49 1103.03 2224.43 1101.78 2223.91 1100.18 2223.91 1098.23 2223.91 1096.48 2224.35 1093.89 2225.24 1090.49L2227.03 1083.48C2227.67 1080.94 2228.1 1079.06 2228.3 1077.85 2228.51 1076.63 2228.61 1075.64 2228.61 1074.89 2228.61 1073.02 2228.3 1071.68 2227.67 1070.86 2227.05 1070.03 2226.04 1069.62 2224.63 1069.62 2223.5 1069.62 2222.28 1070.07 2220.97 1070.98 2219.66 1071.88 2218.27 1073.25 2216.79 1075.07 2215.32 1076.89 2214.14 1078.66 2213.25 1080.38 2212.35 1082.09 2211.63 1084.21 2211.06 1086.72L2207.21 1104.27 2200.2 1104.27 2206.11 1078.58C2206.71 1075.98 2207.01 1073.98 2207.01 1072.58 2207.01 1071.5 2206.83 1070.71 2206.48 1070.23 2206.13 1069.74 2205.57 1069.5 2204.82 1069.5 2203.98 1069.5 2203.09 1069.84 2202.16 1070.53 2201.23 1071.22 2199.95 1072.47 2198.33 1074.28L2196.02 1072.01C2198.51 1069.42 2200.57 1067.57 2202.22 1066.48 2203.87 1065.38 2205.74 1064.84 2207.82 1064.84Z" fill-rule="evenodd"/><text fill="#000000" fill-opacity="0" font-family="Arial,Arial_MSFontService,sans-serif" font-size="40.0815" x="2196.02" y="1099.91">𝑛</text><path d="M2224.53 1187.25C2223.24 1187.25 2221.96 1187.66 2220.71 1188.49 2219.45 1189.31 2218.05 1190.67 2216.51 1192.58 2214.97 1194.48 2213.71 1196.44 2212.74 1198.44 2211.77 1200.44 2210.94 1202.99 2210.27 1206.1L2209.9 1207.8C2209.5 1209.69 2209.3 1211.53 2209.3 1213.31 2209.3 1215.44 2209.76 1216.98 2210.69 1217.93 2211.63 1218.88 2213.17 1219.35 2215.34 1219.35 2216.44 1219.35 2217.5 1219.17 2218.5 1218.8 2219.5 1218.44 2220.52 1217.83 2221.56 1217 2222.6 1216.16 2223.58 1215.06 2224.51 1213.69 2225.45 1212.33 2226.3 1210.65 2227.09 1208.65 2227.87 1206.65 2228.48 1204.51 2228.91 1202.23 2229.34 1199.94 2229.56 1197.76 2229.56 1195.68 2229.56 1192.87 2229.16 1190.76 2228.36 1189.36 2227.57 1187.95 2226.29 1187.25 2224.53 1187.25ZM2217.44 1163.95 2219.79 1163.95 2212.66 1192.32 2213.19 1192.48C2215.81 1188.97 2218.27 1186.43 2220.56 1184.86 2222.86 1183.29 2225.16 1182.51 2227.45 1182.51 2230.4 1182.51 2232.69 1183.63 2234.32 1185.87 2235.96 1188.11 2236.77 1191.28 2236.77 1195.36 2236.77 1199.81 2235.88 1204.2 2234.08 1208.51 2232.28 1212.82 2229.79 1216.23 2226.6 1218.76 2223.41 1221.29 2219.85 1222.55 2215.9 1222.55 2212.31 1222.55 2209.12 1221.67 2206.34 1219.92L2202.61 1222.55 2200.02 1221.9 2210.51 1175.58C2211.13 1172.82 2211.44 1170.82 2211.44 1169.58 2211.44 1168.45 2211.1 1167.65 2210.41 1167.19 2209.72 1166.73 2208.49 1166.47 2206.7 1166.42L2207.19 1164.31Z" fill-rule="evenodd"/><text fill="#000000" fill-opacity="0" font-family="Arial,Arial_MSFontService,sans-serif" font-size="58.6025" x="2200.02" y="1215.22">𝑏</text><path d="M2194.86 1140.73 2219.36 1140.73 2243.86 1140.73 2243.86 1145.73 2219.36 1145.73 2194.86 1145.73Z" fill-rule="evenodd"/><path d="M0 0 166.886 104.791" stroke="#156082" stroke-width="6.875" stroke-miterlimit="8" fill="none" fill-rule="evenodd" transform="matrix(-1 0 0 1 1672.39 915.5)"/><path d="M1908.5 915.5 2082.49 1020.29" stroke="#156082" stroke-width="6.875" stroke-miterlimit="8" fill="none" fill-rule="evenodd"/><text font-family="DengXian,DengXian_MSFontService,sans-serif" font-weight="400" font-size="83" transform="matrix(1 0 0 1 1760.95 1164)">…</text><path d="M2413.88 1118.36 2432.24 1136.68 2450.6 1118.36 2454.41 1122.13 2436.25 1140.61 2454.45 1159.01 2450.4 1163.06 2432.24 1144.54 2413.52 1162.9 2409.75 1159.09 2428.27 1140.61 2409.83 1122.41Z" fill-rule="evenodd"/><text fill="#000000" fill-opacity="0" font-family="Arial,Arial_MSFontService,sans-serif" font-size="44.7017" x="2409.75" y="1157.47">×</text><path d="M2505.77 1128.04C2502.99 1128.04 2500.49 1129.16 2498.28 1131.41 2496.06 1133.65 2494.33 1136.66 2493.09 1140.42 2491.84 1144.19 2491.22 1147.96 2491.22 1151.71 2491.22 1154.52 2491.61 1156.62 2492.38 1158.01 2493.15 1159.4 2494.44 1160.1 2496.25 1160.1 2498.03 1160.1 2499.78 1159.33 2501.5 1157.79 2503.21 1156.25 2504.98 1154.06 2506.81 1151.2 2508.63 1148.35 2509.92 1145.06 2510.68 1141.34L2511.04 1139.59C2511.28 1138.49 2511.45 1137.53 2511.53 1136.72 2511.61 1135.91 2511.65 1135.03 2511.65 1134.08 2511.65 1132 2511.2 1130.48 2510.31 1129.5 2509.42 1128.53 2507.91 1128.04 2505.77 1128.04ZM2504.96 1124.84C2506.72 1124.84 2508.36 1125.04 2509.89 1125.43 2511.41 1125.82 2512.99 1126.52 2514.61 1127.52L2518.34 1124.84 2520.93 1125.49 2514.97 1151.18C2514.38 1153.75 2514.08 1155.75 2514.08 1157.18 2514.08 1158.26 2514.26 1159.05 2514.61 1159.53 2514.96 1160.02 2515.51 1160.26 2516.27 1160.26 2517.08 1160.26 2517.94 1159.93 2518.86 1159.27 2519.78 1158.61 2521.08 1157.34 2522.75 1155.48L2525.06 1157.75C2522.63 1160.34 2520.56 1162.19 2518.84 1163.28 2517.13 1164.38 2515.27 1164.92 2513.27 1164.92 2511.6 1164.92 2510.26 1164.37 2509.26 1163.26 2508.26 1162.15 2507.76 1160.68 2507.76 1158.84 2507.76 1157.36 2508.07 1155.78 2508.69 1154.1L2508.16 1153.94C2505.57 1157.72 2503.11 1160.49 2500.79 1162.25 2498.46 1164 2496.01 1164.88 2493.41 1164.88 2490.44 1164.88 2488.14 1163.76 2486.5 1161.52 2484.87 1159.28 2484.05 1156.13 2484.05 1152.08 2484.05 1147.43 2484.96 1142.96 2486.79 1138.68 2488.61 1134.4 2491.12 1131.02 2494.3 1128.55 2497.49 1126.08 2501.04 1124.84 2504.96 1124.84Z" fill-rule="evenodd"/><text fill="#000000" fill-opacity="0" font-family="Arial,Arial_MSFontService,sans-serif" font-size="40.0815" x="2484.05" y="1159.91">𝑎</text><path d="M2637.5 805.5C2652.41 805.5 2664.5 807.515 2664.5 810L2664.5 1236.68C2664.5 1239.17 2676.59 1241.18 2691.5 1241.18 2676.59 1241.18 2664.5 1243.2 2664.5 1245.68L2664.5 1666C2664.5 1668.49 2652.41 1670.5 2637.5 1670.5" stroke="#156082" stroke-width="6.875" stroke-miterlimit="8" fill="none" fill-rule="evenodd"/><path d="M2794.82 1206.56 2797.17 1206.56 2790.2 1234.65 2790.69 1234.81C2793.26 1231.41 2795.68 1228.94 2797.96 1227.41 2800.25 1225.89 2802.55 1225.12 2804.87 1225.12 2807.39 1225.12 2809.32 1225.85 2810.67 1227.29 2812.02 1228.74 2812.69 1230.74 2812.69 1233.31 2812.69 1235.01 2812.3 1237.43 2811.52 1240.56L2808.89 1251.18C2808.16 1254.13 2807.79 1256.21 2807.79 1257.42 2807.79 1258.5 2807.97 1259.29 2808.32 1259.77 2808.67 1260.26 2809.22 1260.5 2809.98 1260.5 2810.79 1260.5 2811.65 1260.17 2812.57 1259.51 2813.49 1258.85 2814.79 1257.59 2816.46 1255.72L2818.77 1257.99C2816.18 1260.72 2814.05 1262.6 2812.39 1263.62 2810.73 1264.65 2808.86 1265.16 2806.78 1265.16 2805.02 1265.16 2803.62 1264.54 2802.58 1263.3 2801.54 1262.06 2801.02 1260.45 2801.02 1258.48 2801.02 1256.72 2801.47 1254.14 2802.36 1250.74L2804.1 1243.73C2804.72 1241.21 2805.14 1239.33 2805.36 1238.07 2805.58 1236.82 2805.68 1235.84 2805.68 1235.13 2805.68 1233.22 2805.37 1231.86 2804.75 1231.06 2804.13 1230.26 2803.12 1229.87 2801.71 1229.87 2800.6 1229.87 2799.37 1230.32 2798.02 1231.24 2796.67 1232.16 2795.25 1233.56 2793.77 1235.44 2792.28 1237.32 2791.1 1239.11 2790.22 1240.83 2789.34 1242.54 2788.65 1244.59 2788.14 1246.97L2784.45 1264.52 2777.44 1264.52 2787.85 1218.19C2788.5 1215.3 2788.82 1213.3 2788.82 1212.2 2788.82 1211.06 2788.48 1210.26 2787.79 1209.8 2787.1 1209.34 2785.87 1209.09 2784.08 1209.03L2784.57 1206.93Z" fill-rule="evenodd"/><text fill="#000000" fill-opacity="0" font-family="Arial,Arial_MSFontService,sans-serif" font-size="58.6025" x="2777.44" y="1257.84">ℎ</text><path d="M2849.92 1246.52 2899.85 1246.52 2899.85 1251.91 2849.92 1251.91ZM2849.92 1229.7 2899.85 1229.7 2899.85 1235.09 2849.92 1235.09Z" fill-rule="evenodd"/><text fill="#000000" fill-opacity="0" font-family="Arial,Arial_MSFontService,sans-serif" font-size="22.209" x="2849.92" y="1249.14">=</text><path d="M3007.84 1265.16C3006.46 1266.19 3005.43 1267.28 3004.74 1268.43 3004.05 1269.58 3003.71 1270.88 3003.71 1272.34 3003.71 1274.77 3004.67 1276.56 3006.61 1277.71 3008.54 1278.86 3011.49 1279.43 3015.46 1279.43 3017.89 1279.43 3019.98 1279.11 3021.72 1278.46 3023.46 1277.81 3024.8 1276.88 3025.71 1275.66 3026.63 1274.45 3027.09 1273.03 3027.09 1271.41 3027.09 1270.65 3027 1269.91 3026.81 1269.2 3026.62 1268.48 3026.26 1267.84 3025.73 1267.27 3025.21 1266.7 3024.46 1266.25 3023.49 1265.91 3022.51 1265.58 3021.24 1265.41 3019.68 1265.41L3013.64 1265.41C3011.45 1265.41 3009.52 1265.33 3007.84 1265.16ZM2972.72 1228.28C2969.45 1228.28 2966.94 1229.7 2965.2 1232.54 2963.46 1235.38 2962.59 1239.42 2962.59 1244.66 2962.59 1250.22 2963.47 1254.5 2965.24 1257.48 2967.01 1260.47 2969.54 1261.96 2972.84 1261.96 2974.65 1261.96 2976.19 1261.52 2977.46 1260.65 2978.73 1259.77 2979.76 1258.59 2980.56 1257.1 2981.36 1255.61 2981.93 1253.89 2982.28 1251.93 2982.63 1249.97 2982.81 1247.93 2982.81 1245.79 2982.81 1241.82 2982.37 1238.52 2981.49 1235.9 2980.61 1233.28 2979.42 1231.36 2977.9 1230.13 2976.39 1228.9 2974.66 1228.28 2972.72 1228.28ZM3014.73 1228.16C3012.16 1228.16 3010.21 1229.01 3008.85 1230.72 3007.5 1232.42 3006.83 1234.88 3006.83 1238.09 3006.83 1241.47 3007.52 1244.08 3008.9 1245.91 3010.27 1247.75 3012.26 1248.67 3014.85 1248.67 3016.23 1248.67 3017.41 1248.41 3018.38 1247.88 3019.35 1247.35 3020.14 1246.63 3020.75 1245.71 3021.36 1244.79 3021.8 1243.73 3022.09 1242.53 3022.37 1241.33 3022.51 1240.06 3022.51 1238.74 3022.51 1236.36 3022.17 1234.38 3021.5 1232.78 3020.82 1231.19 3019.91 1230.02 3018.74 1229.28 3017.58 1228.53 3016.24 1228.16 3014.73 1228.16ZM3014.81 1225.08C3016.76 1225.08 3018.69 1225.31 3020.61 1225.77L3034.95 1225.77 3034.95 1229.87 3027.46 1229.58 3027.09 1230.03C3027.93 1230.86 3028.59 1232.01 3029.08 1233.45 3029.56 1234.9 3029.81 1236.46 3029.81 1238.13 3029.81 1242.54 3028.45 1245.93 3025.73 1248.33 3023.02 1250.72 3019.16 1251.91 3014.16 1251.91 3011.92 1251.91 3009.99 1251.63 3008.37 1251.06 3006.31 1252.63 3005.29 1254.17 3005.29 1255.68 3005.29 1256.68 3005.48 1257.44 3005.88 1257.95 3006.27 1258.46 3006.92 1258.83 3007.82 1259.04 3008.73 1259.26 3010.1 1259.37 3011.93 1259.37L3021.66 1259.37C3024.53 1259.37 3026.86 1259.81 3028.67 1260.71 3030.48 1261.6 3031.77 1262.79 3032.54 1264.29 3033.31 1265.79 3033.7 1267.54 3033.7 1269.54 3033.7 1272.08 3032.97 1274.34 3031.51 1276.33 3030.05 1278.32 3027.94 1279.86 3025.19 1280.97 3022.43 1282.08 3019.22 1282.63 3015.54 1282.63 3012.81 1282.63 3010.32 1282.47 3008.06 1282.15 3005.81 1281.82 3003.88 1281.27 3002.27 1280.5 3000.66 1279.73 2999.42 1278.72 2998.54 1277.46 2997.66 1276.21 2997.22 1274.63 2997.22 1272.74 2997.22 1271.04 2997.79 1269.49 2998.93 1268.1 3000.06 1266.71 3001.67 1265.49 3003.75 1264.43 3002.48 1263.92 3001.48 1263.17 3000.75 1262.17 3000.02 1261.17 2999.66 1259.99 2999.66 1258.64 2999.66 1257.1 3000.09 1255.69 3000.95 1254.4 3001.82 1253.12 3003.34 1251.66 3005.53 1250.01 3003.59 1248.87 3002.11 1247.33 3001.09 1245.39 3000.08 1243.44 2999.57 1241.23 2999.57 1238.74 2999.57 1236.42 2999.96 1234.4 3000.73 1232.68 3001.5 1230.97 3002.57 1229.55 3003.93 1228.43 3005.3 1227.31 3006.91 1226.47 3008.77 1225.91 3010.64 1225.36 3012.65 1225.08 3014.81 1225.08ZM2972.88 1225.08C2978.66 1225.08 2983.04 1226.76 2986.01 1230.13 2988.98 1233.49 2990.47 1238.32 2990.47 1244.62 2990.47 1249.1 2989.73 1252.88 2988.24 1255.96 2986.75 1259.04 2984.65 1261.35 2981.92 1262.87 2979.19 1264.4 2975.96 1265.16 2972.23 1265.16 2966.61 1265.16 2962.32 1263.51 2959.36 1260.2 2956.4 1256.89 2954.93 1251.99 2954.93 1245.51 2954.93 1241.05 2955.7 1237.28 2957.26 1234.2 2958.81 1231.12 2960.94 1228.83 2963.64 1227.33 2966.34 1225.83 2969.42 1225.08 2972.88 1225.08ZM2940.99 1206.52 2943.42 1206.52 2943.42 1254.38C2943.42 1256.71 2943.53 1258.32 2943.75 1259.23 2943.96 1260.13 2944.37 1260.82 2944.98 1261.29 2945.59 1261.77 2946.58 1262.18 2947.96 1262.53L2947.96 1264.52 2931.87 1264.52 2931.87 1262.53C2933.22 1262.18 2934.16 1261.81 2934.69 1261.44 2935.22 1261.06 2935.59 1260.61 2935.82 1260.08 2936.05 1259.55 2936.22 1258.84 2936.31 1257.93 2936.4 1257.03 2936.45 1255.84 2936.45 1254.38L2936.45 1220.46C2936.45 1217.87 2936.43 1216.06 2936.39 1215.03 2936.35 1214.01 2936.24 1213.13 2936.07 1212.42 2935.89 1211.7 2935.65 1211.14 2935.34 1210.74 2935.03 1210.33 2934.61 1210.01 2934.08 1209.76 2933.55 1209.52 2932.6 1209.28 2931.22 1209.03L2931.22 1206.93Z" fill-rule="evenodd"/><text fill="#000000" fill-opacity="0" font-family="Arial,Arial_MSFontService,sans-serif" font-size="76.1104" x="2931.22" y="1273.12">log</text><path d="M3061.46 1254.94C3060.56 1254.94 3059.58 1255.23 3058.51 1255.82 3057.44 1256.4 3056.38 1257.27 3055.34 1258.43 3054.29 1259.58 3053.33 1261 3052.45 1262.7 3051.56 1264.4 3050.86 1266.35 3050.35 1268.55 3050.19 1269.62 3050.01 1270.68 3049.81 1271.71 3049.61 1272.74 3049.51 1273.7 3049.51 1274.6 3049.51 1276.21 3049.88 1277.34 3050.6 1278.01 3051.33 1278.67 3052.49 1279.01 3054.1 1279.01 3055.73 1279.01 3057.23 1278.49 3058.6 1277.44 3059.97 1276.4 3061.15 1275.04 3062.13 1273.35 3063.11 1271.66 3063.88 1269.76 3064.44 1267.66 3064.99 1265.55 3065.27 1263.43 3065.27 1261.28 3065.27 1259.16 3064.97 1257.57 3064.36 1256.52 3063.76 1255.47 3062.79 1254.94 3061.46 1254.94ZM3054.49 1240.7 3056.63 1240.7 3052.46 1257.71 3052.88 1257.92C3053.89 1256.73 3054.86 1255.69 3055.78 1254.81 3056.71 1253.92 3057.61 1253.2 3058.49 1252.63 3059.38 1252.07 3060.26 1251.64 3061.13 1251.37 3062 1251.09 3062.91 1250.95 3063.84 1250.95 3066.18 1250.95 3067.99 1251.8 3069.26 1253.51 3070.53 1255.22 3071.17 1257.71 3071.17 1260.99 3071.17 1263.85 3070.73 1266.54 3069.84 1269.07 3068.96 1271.61 3067.76 1273.82 3066.25 1275.73 3064.74 1277.64 3062.99 1279.14 3061 1280.24 3059 1281.34 3056.89 1281.9 3054.67 1281.9 3053.24 1281.9 3051.92 1281.75 3050.71 1281.46 3049.49 1281.18 3048.31 1280.69 3047.16 1280.02 3046.66 1280.3 3046.16 1280.61 3045.64 1280.94 3045.13 1281.28 3044.64 1281.6 3044.18 1281.9 3043.83 1281.8 3043.45 1281.7 3043.05 1281.61 3042.65 1281.52 3042.28 1281.42 3041.92 1281.3L3049.07 1249.37C3049.29 1248.38 3049.45 1247.56 3049.56 1246.93 3049.67 1246.29 3049.72 1245.74 3049.72 1245.26 3049.72 1244.88 3049.66 1244.56 3049.54 1244.28 3049.42 1244 3049.22 1243.78 3048.92 1243.61 3048.62 1243.44 3048.22 1243.31 3047.73 1243.23 3047.23 1243.16 3046.61 1243.11 3045.85 1243.09L3046.3 1241.06Z" fill-rule="evenodd"/><text fill="#000000" fill-opacity="0" font-family="Arial,Arial_MSFontService,sans-serif" font-size="41.1929" x="3041.92" y="1276.75">𝑏</text><path d="M3106.09 1225.08C3107.79 1225.08 3109.14 1225.64 3110.12 1226.76 3111.11 1227.89 3111.6 1229.35 3111.6 1231.16 3111.6 1232.59 3111.28 1234.19 3110.63 1235.94L3111.12 1236.11C3113.77 1232.38 3116.29 1229.62 3118.68 1227.82 3121.07 1226.02 3123.53 1225.12 3126.07 1225.12 3128.59 1225.12 3130.52 1225.85 3131.87 1227.29 3133.22 1228.74 3133.89 1230.74 3133.89 1233.31 3133.89 1235.01 3133.5 1237.43 3132.72 1240.56L3130.08 1251.18C3129.36 1254.13 3128.99 1256.21 3128.99 1257.42 3128.99 1258.5 3129.17 1259.29 3129.52 1259.77 3129.87 1260.26 3130.42 1260.5 3131.18 1260.5 3131.99 1260.5 3132.85 1260.17 3133.77 1259.51 3134.69 1258.85 3135.99 1257.59 3137.66 1255.72L3139.97 1257.99C3137.65 1260.48 3135.62 1262.29 3133.89 1263.44 3132.17 1264.59 3130.19 1265.16 3127.98 1265.16 3126.22 1265.16 3124.82 1264.54 3123.76 1263.28 3122.71 1262.02 3122.18 1260.42 3122.18 1258.48 3122.18 1256.72 3122.63 1254.14 3123.52 1250.74L3125.3 1243.73C3125.95 1241.19 3126.38 1239.31 3126.58 1238.09 3126.78 1236.88 3126.88 1235.89 3126.88 1235.13 3126.88 1233.27 3126.57 1231.93 3125.95 1231.1 3125.33 1230.28 3124.32 1229.87 3122.91 1229.87 3121.78 1229.87 3120.55 1230.32 3119.24 1231.22 3117.93 1232.13 3116.54 1233.49 3115.07 1235.32 3113.6 1237.14 3112.41 1238.91 3111.52 1240.63 3110.63 1242.34 3109.9 1244.45 3109.33 1246.97L3105.48 1264.52 3098.47 1264.52 3104.39 1238.82C3104.98 1236.23 3105.28 1234.23 3105.28 1232.82 3105.28 1231.74 3105.11 1230.96 3104.76 1230.47 3104.4 1229.99 3103.85 1229.74 3103.09 1229.74 3102.26 1229.74 3101.37 1230.09 3100.44 1230.78 3099.51 1231.47 3098.23 1232.72 3096.61 1234.53L3094.3 1232.26C3096.78 1229.66 3098.85 1227.82 3100.5 1226.72 3102.15 1225.63 3104.01 1225.08 3106.09 1225.08Z" fill-rule="evenodd"/><text fill="#000000" fill-opacity="0" font-family="Arial,Arial_MSFontService,sans-serif" font-size="40.0815" x="3094.3" y="1260.15">𝑛</text><path d="M1588.51 1663.6C1587.24 1669.47 1586.61 1674.4 1586.61 1678.4 1586.61 1681.42 1587.07 1683.64 1587.99 1685.06 1588.91 1686.48 1590.39 1687.19 1592.45 1687.19 1595.47 1687.19 1598.34 1685.16 1601.06 1681.09 1603.77 1677.02 1606.08 1671.19 1607.97 1663.6ZM1605.13 1636.29C1601.97 1636.29 1599.04 1638.29 1596.36 1642.29 1593.67 1646.28 1591.38 1652.01 1589.49 1659.47L1608.9 1659.47C1610.17 1653.77 1610.8 1648.86 1610.8 1644.76 1610.8 1641.92 1610.35 1639.8 1609.43 1638.39 1608.51 1636.99 1607.08 1636.29 1605.13 1636.29ZM1605.62 1633C1613.45 1633 1617.37 1637.98 1617.37 1647.92 1617.37 1650.73 1617.05 1654.09 1616.42 1657.99 1615.78 1661.89 1614.78 1665.87 1613.4 1669.93 1612.02 1673.98 1610.28 1677.56 1608.17 1680.69 1606.06 1683.81 1603.63 1686.22 1600.88 1687.92 1598.12 1689.62 1595.15 1690.47 1591.96 1690.47 1587.93 1690.47 1584.93 1689.24 1582.96 1686.78 1580.99 1684.33 1580 1680.64 1580 1675.72 1580 1673.05 1580.3 1669.75 1580.9 1665.83 1581.49 1661.91 1582.47 1657.91 1583.83 1653.82 1585.2 1649.72 1586.95 1646.09 1589.1 1642.91 1591.25 1639.74 1593.72 1637.29 1596.52 1635.58 1599.32 1633.86 1602.35 1633 1605.62 1633Z" fill-rule="evenodd"/><text fill="#000000" fill-opacity="0" font-family="Arial,Arial_MSFontService,sans-serif" font-size="57.4678" x="1580" y="1683.29">𝜃</text><path d="M1706.86 1627.71C1714.75 1629.79 1720.81 1634.28 1725.04 1641.19 1729.27 1648.09 1731.38 1656.42 1731.38 1666.17 1731.38 1675.95 1729.27 1684.28 1725.06 1691.16 1720.84 1698.03 1714.78 1702.51 1706.86 1704.59L1705.89 1701.47C1712.13 1699.39 1716.77 1695.28 1719.81 1689.15 1722.85 1683.02 1724.37 1675.22 1724.37 1665.77 1724.37 1656.63 1722.86 1649.05 1719.83 1643.01 1716.8 1636.97 1712.12 1632.91 1705.77 1630.83ZM1655.97 1627.71 1657.06 1630.83C1650.74 1632.91 1646.06 1636.97 1643.02 1643.01 1639.98 1649.05 1638.46 1656.63 1638.46 1665.77 1638.46 1675.22 1639.98 1683.02 1643.02 1689.15 1646.06 1695.28 1650.7 1699.39 1656.94 1701.47L1655.97 1704.59C1648.05 1702.51 1641.99 1698.03 1637.77 1691.16 1633.56 1684.28 1631.45 1675.95 1631.45 1666.17 1631.45 1656.42 1633.56 1648.09 1637.79 1641.19 1642.02 1634.28 1648.08 1629.79 1655.97 1627.71Z" fill-rule="evenodd"/><path d="M1684.57 1633.86 1686.8 1633.86C1686.64 1636.45 1686.56 1640.04 1686.56 1644.64L1686.56 1679.25C1686.56 1680.81 1686.65 1682 1686.82 1682.79 1687 1683.59 1687.31 1684.24 1687.76 1684.74 1688.2 1685.24 1688.84 1685.63 1689.68 1685.91 1690.52 1686.2 1691.57 1686.41 1692.84 1686.56 1694.11 1686.71 1695.79 1686.81 1697.87 1686.87L1697.87 1689.82 1667.92 1689.82 1667.92 1686.87C1670.92 1686.73 1673.06 1686.55 1674.34 1686.32 1675.62 1686.09 1676.6 1685.74 1677.28 1685.28 1677.95 1684.83 1678.45 1684.18 1678.76 1683.34 1679.07 1682.5 1679.22 1681.14 1679.22 1679.25L1679.22 1646.38C1679.22 1645.3 1679.04 1644.51 1678.66 1644.01 1678.28 1643.51 1677.72 1643.26 1677 1643.26 1676.13 1643.26 1674.9 1643.7 1673.31 1644.6 1671.71 1645.49 1669.74 1646.72 1667.39 1648.28L1665.61 1645.16Z" fill-rule="evenodd"/><text fill="#000000" fill-opacity="0" font-family="Arial,Arial_MSFontService,sans-serif" font-size="55.9683" x="1665.61" y="1682.83">1</text><path d="M1768.23 1643.91 1786.58 1662.22 1804.94 1643.91 1808.75 1647.68 1790.6 1666.16 1808.79 1684.56 1804.74 1688.61 1786.58 1670.09 1767.86 1688.45 1764.09 1684.64 1782.61 1666.16 1764.17 1647.96Z" fill-rule="evenodd"/><text fill="#000000" fill-opacity="0" font-family="Arial,Arial_MSFontService,sans-serif" font-size="44.7017" x="1764.09" y="1683.02">×</text><path d="M1846.91 1650.39C1848.61 1650.39 1849.95 1650.95 1850.94 1652.07 1851.93 1653.19 1852.42 1654.66 1852.42 1656.47 1852.42 1657.9 1852.09 1659.5 1851.45 1661.25L1851.93 1661.41C1854.58 1657.69 1857.1 1654.92 1859.49 1653.13 1861.88 1651.33 1864.35 1650.43 1866.89 1650.43 1869.4 1650.43 1871.33 1651.15 1872.68 1652.6 1874.03 1654.05 1874.71 1656.05 1874.71 1658.62 1874.71 1660.32 1874.32 1662.74 1873.53 1665.87L1870.9 1676.49C1870.17 1679.44 1869.81 1681.52 1869.81 1682.73 1869.81 1683.81 1869.98 1684.6 1870.33 1685.08 1870.68 1685.57 1871.24 1685.81 1871.99 1685.81 1872.8 1685.81 1873.67 1685.48 1874.59 1684.82 1875.51 1684.16 1876.8 1682.89 1878.48 1681.03L1880.79 1683.3C1878.46 1685.78 1876.44 1687.6 1874.71 1688.75 1872.98 1689.9 1871.01 1690.47 1868.79 1690.47 1867.04 1690.47 1865.63 1689.84 1864.58 1688.59 1863.52 1687.33 1863 1685.73 1863 1683.79 1863 1682.03 1863.44 1679.45 1864.33 1676.04L1866.12 1669.03C1866.77 1666.49 1867.19 1664.62 1867.39 1663.4 1867.6 1662.18 1867.7 1661.2 1867.7 1660.44 1867.7 1658.58 1867.39 1657.23 1866.77 1656.41 1866.14 1655.59 1865.13 1655.17 1863.73 1655.17 1862.59 1655.17 1861.37 1655.63 1860.06 1656.53 1858.75 1657.44 1857.36 1658.8 1855.88 1660.62 1854.41 1662.45 1853.23 1664.22 1852.34 1665.93 1851.45 1667.65 1850.72 1669.76 1850.15 1672.28L1846.3 1689.82 1839.29 1689.82 1845.21 1664.13C1845.8 1661.54 1846.1 1659.54 1846.1 1658.13 1846.1 1657.05 1845.92 1656.27 1845.57 1655.78 1845.22 1655.29 1844.66 1655.05 1843.91 1655.05 1843.07 1655.05 1842.19 1655.4 1841.25 1656.08 1840.32 1656.77 1839.04 1658.02 1837.42 1659.83L1835.11 1657.56C1837.6 1654.97 1839.67 1653.13 1841.31 1652.03 1842.96 1650.94 1844.83 1650.39 1846.91 1650.39Z" fill-rule="evenodd"/><text fill="#000000" fill-opacity="0" font-family="Arial,Arial_MSFontService,sans-serif" font-size="40.0815" x="1835.11" y="1685.46">𝑛</text><path d="M1949.34 1660.04C1948.31 1660.73 1947.52 1661.49 1946.96 1662.3 1946.4 1663.11 1946.13 1664.03 1946.13 1665.04 1946.13 1666.81 1946.9 1668.08 1948.43 1668.85 1949.97 1669.63 1952.3 1670.01 1955.42 1670.01 1958.34 1670.01 1960.59 1669.53 1962.18 1668.57 1963.77 1667.61 1964.56 1666.21 1964.56 1664.39 1964.56 1663.06 1964.13 1662.03 1963.27 1661.3 1962.4 1660.58 1960.9 1660.22 1958.76 1660.22L1953.93 1660.22C1953.67 1660.22 1953.33 1660.21 1952.92 1660.2 1952.5 1660.19 1952.07 1660.18 1951.62 1660.17 1951.17 1660.16 1950.74 1660.15 1950.33 1660.13 1949.91 1660.11 1949.58 1660.08 1949.34 1660.04ZM1920.4 1632.16C1917.86 1632.16 1915.9 1633.22 1914.52 1635.34 1913.14 1637.47 1912.45 1640.5 1912.45 1644.43 1912.45 1646.47 1912.63 1648.29 1912.99 1649.88 1913.34 1651.47 1913.86 1652.81 1914.55 1653.9 1915.23 1654.99 1916.07 1655.83 1917.07 1656.4 1918.06 1656.98 1919.19 1657.27 1920.46 1657.27 1921.89 1657.27 1923.11 1656.94 1924.11 1656.28 1925.11 1655.63 1925.92 1654.75 1926.54 1653.65 1927.15 1652.55 1927.6 1651.27 1927.88 1649.81 1928.16 1648.35 1928.3 1646.81 1928.3 1645.2 1928.3 1642.94 1928.09 1640.99 1927.68 1639.35 1927.28 1637.71 1926.72 1636.36 1926.02 1635.3 1925.31 1634.24 1924.48 1633.45 1923.51 1632.93 1922.55 1632.42 1921.51 1632.16 1920.4 1632.16ZM1954.82 1632.04C1952.78 1632.04 1951.21 1632.63 1950.13 1633.81 1949.05 1634.99 1948.51 1636.74 1948.51 1639.07 1948.51 1641.49 1949.06 1643.35 1950.15 1644.64 1951.24 1645.93 1952.84 1646.57 1954.94 1646.57 1955.98 1646.57 1956.86 1646.41 1957.61 1646.07 1958.35 1645.73 1958.97 1645.25 1959.47 1644.64 1959.97 1644.02 1960.33 1643.28 1960.57 1642.42 1960.81 1641.56 1960.93 1640.6 1960.93 1639.54 1960.93 1637.04 1960.38 1635.17 1959.29 1633.92 1958.2 1632.66 1956.71 1632.04 1954.82 1632.04ZM1954.88 1629.21C1955.64 1629.21 1956.4 1629.26 1957.18 1629.37 1957.95 1629.48 1958.73 1629.64 1959.5 1629.83L1971.15 1629.83 1971.15 1633.44C1970.13 1633.38 1969.15 1633.32 1968.18 1633.27 1967.22 1633.23 1966.25 1633.18 1965.28 1633.14 1965.24 1633.2 1965.21 1633.25 1965.19 1633.29 1965.17 1633.33 1965.14 1633.38 1965.1 1633.44 1965.71 1634.17 1966.19 1635.01 1966.53 1635.96 1966.87 1636.9 1967.04 1637.94 1967.04 1639.07 1967.04 1640.74 1966.75 1642.22 1966.19 1643.52 1965.62 1644.82 1964.8 1645.92 1963.71 1646.83 1962.63 1647.73 1961.31 1648.42 1959.74 1648.88 1958.17 1649.35 1956.38 1649.58 1954.38 1649.58 1953.42 1649.58 1952.54 1649.53 1951.74 1649.43 1950.94 1649.33 1950.22 1649.18 1949.58 1648.96 1948.81 1649.47 1948.23 1650.02 1947.85 1650.59 1947.48 1651.17 1947.29 1651.72 1947.29 1652.23 1947.29 1652.85 1947.37 1653.36 1947.54 1653.75 1947.71 1654.15 1947.99 1654.47 1948.39 1654.71 1948.79 1654.94 1949.32 1655.11 1949.98 1655.2 1950.65 1655.29 1951.48 1655.33 1952.47 1655.33L1960.33 1655.33C1962.06 1655.33 1963.54 1655.5 1964.77 1655.84 1966 1656.17 1967.01 1656.67 1967.79 1657.33 1968.58 1657.98 1969.16 1658.79 1969.54 1659.74 1969.91 1660.69 1970.1 1661.78 1970.1 1663.02 1970.1 1664.46 1969.77 1665.8 1969.11 1667.01 1968.44 1668.22 1967.48 1669.26 1966.22 1670.13 1964.96 1671.01 1963.42 1671.69 1961.6 1672.17 1959.78 1672.66 1957.72 1672.9 1955.42 1672.9 1953.2 1672.9 1951.17 1672.78 1949.36 1672.55 1947.54 1672.31 1945.99 1671.9 1944.71 1671.31 1943.43 1670.72 1942.44 1669.95 1941.75 1668.99 1941.05 1668.02 1940.71 1666.82 1940.71 1665.37 1940.71 1664.02 1941.1 1662.84 1941.9 1661.82 1942.69 1660.81 1943.85 1659.94 1945.38 1659.2 1944.55 1658.83 1943.88 1658.23 1943.37 1657.43 1942.86 1656.63 1942.61 1655.69 1942.61 1654.62 1942.61 1653.29 1942.94 1652.09 1943.61 1651.04 1944.27 1649.99 1945.38 1648.93 1946.93 1647.85 1945.6 1647.04 1944.53 1645.94 1943.73 1644.56 1942.92 1643.18 1942.52 1641.51 1942.52 1639.54 1942.52 1637.82 1942.83 1636.31 1943.46 1635.02 1944.09 1633.73 1944.95 1632.65 1946.05 1631.79 1947.15 1630.92 1948.46 1630.28 1949.97 1629.85 1951.48 1629.42 1953.12 1629.21 1954.88 1629.21ZM1920.52 1629.21C1923 1629.21 1925.14 1629.58 1926.93 1630.31 1928.71 1631.05 1930.18 1632.08 1931.33 1633.41 1932.48 1634.74 1933.33 1636.34 1933.88 1638.2 1934.43 1640.07 1934.7 1642.13 1934.7 1644.37 1934.7 1646.95 1934.36 1649.22 1933.67 1651.19 1932.99 1653.16 1932 1654.8 1930.72 1656.14 1929.44 1657.47 1927.9 1658.47 1926.09 1659.14 1924.28 1659.82 1922.27 1660.16 1920.04 1660.16 1917.84 1660.16 1915.87 1659.85 1914.13 1659.23 1912.39 1658.62 1910.92 1657.68 1909.71 1656.42 1908.5 1655.16 1907.57 1653.57 1906.94 1651.67 1906.3 1649.76 1905.99 1647.52 1905.99 1644.94 1905.99 1642.37 1906.35 1640.12 1907.09 1638.16 1907.82 1636.2 1908.84 1634.56 1910.14 1633.23 1911.44 1631.9 1912.98 1630.9 1914.74 1630.22 1916.51 1629.55 1918.44 1629.21 1920.52 1629.21ZM1893.57 1616.28 1895.74 1616.28 1895.74 1652.02C1895.74 1653.22 1895.77 1654.13 1895.82 1654.76 1895.87 1655.4 1896.01 1655.89 1896.25 1656.24 1896.49 1656.59 1896.84 1656.85 1897.32 1657.03 1897.8 1657.21 1898.46 1657.44 1899.32 1657.71L1899.32 1659.62 1886.18 1659.62 1886.18 1657.71C1887.12 1657.44 1887.83 1657.2 1888.34 1657 1888.85 1656.8 1889.21 1656.52 1889.44 1656.16 1889.67 1655.81 1889.8 1655.32 1889.83 1654.69 1889.86 1654.06 1889.88 1653.18 1889.88 1652.02L1889.88 1626.74C1889.88 1625.27 1889.86 1624.15 1889.82 1623.37 1889.78 1622.6 1889.72 1621.97 1889.64 1621.49 1889.56 1621.12 1889.46 1620.79 1889.35 1620.5 1889.24 1620.21 1889.06 1619.95 1888.79 1619.72 1888.52 1619.49 1888.14 1619.3 1887.64 1619.13 1887.14 1618.96 1886.48 1618.8 1885.65 1618.67L1885.65 1616.7Z" fill-rule="evenodd"/><text fill="#000000" fill-opacity="0" font-family="Arial,Arial_MSFontService,sans-serif" font-size="56.6216" x="1885.65" y="1665.83">log</text><path d="M1992.11 1650.06C1991.24 1650.06 1990.41 1650.26 1989.59 1650.66 1988.78 1651.05 1987.84 1651.83 1986.77 1652.97 1985.71 1654.12 1984.88 1655.26 1984.31 1656.38 1983.73 1657.5 1983.22 1659.08 1982.78 1661.12L1982.29 1663.44C1982.05 1664.58 1981.93 1665.56 1981.93 1666.39 1981.93 1667.71 1982.25 1668.65 1982.89 1669.22 1983.53 1669.79 1984.51 1670.08 1985.81 1670.08 1987.68 1670.08 1989.33 1669.36 1990.76 1667.94 1992.2 1666.52 1993.3 1664.61 1994.08 1662.22 1994.87 1659.82 1995.26 1657.52 1995.26 1655.31 1995.26 1653.53 1995 1652.21 1994.47 1651.35 1993.95 1650.49 1993.16 1650.06 1992.11 1650.06ZM1986.13 1637 1988.22 1637 1984.66 1651.82 1985 1651.94C1986.71 1650.07 1988.27 1648.69 1989.68 1647.82 1991.09 1646.95 1992.6 1646.52 1994.23 1646.52 1996.23 1646.52 1997.77 1647.24 1998.86 1648.69 1999.94 1650.14 2000.48 1652.26 2000.48 1655.06 2000.48 1657.91 1999.85 1660.75 1998.58 1663.58 1997.31 1666.41 1995.6 1668.64 1993.45 1670.27 1991.3 1671.9 1988.9 1672.71 1986.25 1672.71 1985.08 1672.71 1983.98 1672.6 1982.96 1672.36 1981.95 1672.12 1980.91 1671.71 1979.85 1671.13 1979.44 1671.35 1979.03 1671.62 1978.61 1671.93L1977.36 1672.71 1975.24 1672.13 1981.56 1644.12C1981.76 1643.33 1981.89 1642.7 1981.95 1642.24 1982.02 1641.79 1982.05 1641.37 1982.05 1641 1982.05 1640.37 1981.82 1639.92 1981.35 1639.67 1980.89 1639.42 1979.99 1639.27 1978.65 1639.22L1979.05 1637.34Z" fill-rule="evenodd"/><text fill="#000000" fill-opacity="0" font-family="Arial,Arial_MSFontService,sans-serif" font-size="35.7178" x="1975.24" y="1668.25">𝑏</text><path d="M2041.25 1632.16C2040.07 1632.16 2038.98 1632.42 2037.97 1632.93 2036.96 1633.45 2036.03 1634.15 2035.2 1635.05 2034.37 1635.94 2033.63 1636.97 2032.98 1638.14 2032.34 1639.32 2031.79 1640.56 2031.34 1641.87 2030.9 1643.18 2030.56 1644.52 2030.33 1645.9 2030.1 1647.28 2029.99 1648.61 2029.99 1649.88 2029.99 1652.02 2030.29 1653.62 2030.9 1654.66 2031.5 1655.7 2032.48 1656.22 2033.83 1656.22 2034.5 1656.22 2035.15 1656.11 2035.78 1655.87 2036.41 1655.63 2037.07 1655.25 2037.76 1654.74 2039.51 1653.36 2041 1651.7 2042.23 1649.73 2043.46 1647.77 2044.38 1645.44 2045 1642.76 2045.28 1641.53 2045.5 1640.42 2045.65 1639.43 2045.81 1638.43 2045.89 1637.49 2045.89 1636.6 2045.89 1635.01 2045.52 1633.87 2044.78 1633.19 2044.03 1632.5 2042.85 1632.16 2041.25 1632.16ZM2040.71 1629.21C2042.28 1629.21 2043.66 1629.39 2044.86 1629.76 2046.07 1630.13 2047.16 1630.63 2048.16 1631.26L2051.05 1629.21 2053.46 1629.83 2048.96 1649.34C2048.7 1650.46 2048.52 1651.37 2048.42 1652.1 2048.32 1652.82 2048.28 1653.46 2048.28 1654.02 2048.28 1654.77 2048.43 1655.32 2048.74 1655.66 2049.04 1656 2049.49 1656.16 2050.06 1656.16 2050.42 1656.16 2050.77 1656.1 2051.12 1655.96 2051.47 1655.82 2051.84 1655.6 2052.25 1655.3 2052.66 1655 2053.11 1654.62 2053.59 1654.15 2054.08 1653.69 2054.63 1653.13 2055.24 1652.47 2055.56 1652.81 2055.89 1653.14 2056.23 1653.47 2056.57 1653.8 2056.89 1654.12 2057.21 1654.44 2056.22 1655.45 2055.31 1656.32 2054.5 1657.04 2053.69 1657.77 2052.9 1658.36 2052.13 1658.83 2051.37 1659.3 2050.62 1659.63 2049.88 1659.84 2049.15 1660.05 2048.38 1660.16 2047.59 1660.16 2046.16 1660.16 2045.05 1659.69 2044.25 1658.77 2043.46 1657.85 2043.06 1656.58 2043.06 1654.97 2043.06 1654.08 2043.2 1653.23 2043.48 1652.41L2043.06 1652.23C2042.05 1653.64 2041.07 1654.84 2040.11 1655.84 2039.16 1656.83 2038.22 1657.65 2037.28 1658.29 2036.35 1658.94 2035.41 1659.41 2034.45 1659.71 2033.5 1660.01 2032.51 1660.16 2031.48 1660.16 2029.11 1660.16 2027.29 1659.31 2026 1657.61 2024.71 1655.91 2024.06 1653.44 2024.06 1650.21 2024.06 1648.28 2024.26 1646.43 2024.67 1644.65 2025.08 1642.88 2025.65 1641.21 2026.4 1639.65 2027.14 1638.09 2028.03 1636.67 2029.06 1635.39 2030.1 1634.11 2031.23 1633.01 2032.46 1632.1 2033.69 1631.18 2035 1630.48 2036.39 1629.97 2037.78 1629.46 2039.22 1629.21 2040.71 1629.21Z" fill-rule="evenodd"/><text fill="#000000" fill-opacity="0" font-family="Arial,Arial_MSFontService,sans-serif" font-size="30.9468" x="2024.06" y="1656.29">𝑎</text></g></svg>