<svg width="2223" height="1706" xmlns="http://www.w3.org/2000/svg" xmlns:xlink="http://www.w3.org/1999/xlink" xml:space="preserve" overflow="hidden"><g transform="translate(-809 -420)"><path d="M1409.5 1188.5 2403.05 1188.5" stroke="#156082" stroke-width="6.875" stroke-miterlimit="8" fill="none" fill-rule="evenodd"/><path d="M1180.5 661.5 1650.66 661.5" stroke="#156082" stroke-width="6.875" stroke-miterlimit="8" fill="none" fill-rule="evenodd"/><path d="M1180.5 440.5 1180.5 881.83" stroke="#156082" stroke-width="6.875" stroke-miterlimit="8" fill="none" fill-rule="evenodd"/><path d="M1650.5 440.5 1650.5 881.83" stroke="#156082" stroke-width="6.875" stroke-miterlimit="8" fill="none" fill-rule="evenodd"/><path d="M1180.5 1685.5 1650.66 1685.5" stroke="#156082" stroke-width="6.875" stroke-miterlimit="8" fill="none" fill-rule="evenodd"/><path d="M1180.5 1464.5 1180.5 1905.83" stroke="#156082" stroke-width="6.875" stroke-miterlimit="8" fill="none" fill-rule="evenodd"/><path d="M1650.5 1464.5 1650.5 1905.83" stroke="#156082" stroke-width="6.875" stroke-miterlimit="8" fill="none" fill-rule="evenodd"/><path d="M2163.5 664.5 2633.66 664.5" stroke="#156082" stroke-width="6.875" stroke-miterlimit="8" fill="none" fill-rule="evenodd"/><path d="M2163.5 443.5 2163.5 884.831" stroke="#156082" stroke-width="6.875" stroke-miterlimit="8" fill="none" fill-rule="evenodd"/><path d="M2633.5 443.5 2633.5 884.831" stroke="#156082" stroke-width="6.875" stroke-miterlimit="8" fill="none" fill-rule="evenodd"/><path d="M2163.5 1685.5 2633.66 1685.5" stroke="#156082" stroke-width="6.875" stroke-miterlimit="8" fill="none" fill-rule="evenodd"/><path d="M2163.5 1464.5 2163.5 1905.83" stroke="#156082" stroke-width="6.875" stroke-miterlimit="8" fill="none" fill-rule="evenodd"/><path d="M2633.5 1464.5 2633.5 1905.83" stroke="#156082" stroke-width="6.875" stroke-miterlimit="8" fill="none" fill-rule="evenodd"/><path d="M1409.5 661.5 1409.5 1685.21" stroke="#156082" stroke-width="6.875" stroke-miterlimit="8" fill="none" fill-rule="evenodd"/><path d="M2402.5 661.5 2402.5 1685.21" stroke="#156082" stroke-width="6.875" stroke-miterlimit="8" fill="none" fill-rule="evenodd"/><path d="M1392.5 664C1392.5 654.887 1400.11 647.5 1409.5 647.5 1418.89 647.5 1426.5 654.887 1426.5 664 1426.5 673.113 1418.89 680.5 1409.5 680.5 1400.11 680.5 1392.5 673.113 1392.5 664Z" stroke="#000000" stroke-width="6.875" stroke-miterlimit="8" fill-rule="evenodd"/><path d="M2385.5 663.5C2385.5 654.111 2393.11 646.5 2402.5 646.5 2411.89 646.5 2419.5 654.111 2419.5 663.5 2419.5 672.889 2411.89 680.5 2402.5 680.5 2393.11 680.5 2385.5 672.889 2385.5 663.5Z" stroke="#000000" stroke-width="6.875" stroke-miterlimit="8" fill-rule="evenodd"/><path d="M1390.5 1682C1390.5 1672.89 1398.11 1665.5 1407.5 1665.5 1416.89 1665.5 1424.5 1672.89 1424.5 1682 1424.5 1691.11 1416.89 1698.5 1407.5 1698.5 1398.11 1698.5 1390.5 1691.11 1390.5 1682Z" stroke="#000000" stroke-width="6.875" stroke-miterlimit="8" fill-rule="evenodd"/><path d="M2385.5 1683.5C2385.5 1674.11 2393.11 1666.5 2402.5 1666.5 2411.89 1666.5 2419.5 1674.11 2419.5 1683.5 2419.5 1692.89 2411.89 1700.5 2402.5 1700.5 2393.11 1700.5 2385.5 1692.89 2385.5 1683.5Z" stroke="#000000" stroke-width="6.875" stroke-miterlimit="8" fill-rule="evenodd"/><path d="M1391.5 1188.5C1391.5 1179.11 1399.11 1171.5 1408.5 1171.5 1417.89 1171.5 1425.5 1179.11 1425.5 1188.5 1425.5 1197.89 1417.89 1205.5 1408.5 1205.5 1399.11 1205.5 1391.5 1197.89 1391.5 1188.5Z" stroke="#000000" stroke-width="6.875" stroke-miterlimit="8" fill-rule="evenodd"/><path d="M2384.5 1188.5C2384.5 1179.11 2392.11 1171.5 2401.5 1171.5 2410.89 1171.5 2418.5 1179.11 2418.5 1188.5 2418.5 1197.89 2410.89 1205.5 2401.5 1205.5 2392.11 1205.5 2384.5 1197.89 2384.5 1188.5Z" stroke="#000000" stroke-width="6.875" stroke-miterlimit="8" fill-rule="evenodd"/><path d="M1888.5 1188.5C1888.5 1179.11 1896.11 1171.5 1905.5 1171.5 1914.89 1171.5 1922.5 1179.11 1922.5 1188.5 1922.5 1197.89 1914.89 1205.5 1905.5 1205.5 1896.11 1205.5 1888.5 1197.89 1888.5 1188.5Z" stroke="#000000" stroke-width="6.875" stroke-miterlimit="8" fill-rule="evenodd"/><path d="M1163.5 443.5C1163.5 434.111 1171.11 426.5 1180.5 426.5 1189.89 426.5 1197.5 434.111 1197.5 443.5 1197.5 452.889 1189.89 460.5 1180.5 460.5 1171.11 460.5 1163.5 452.889 1163.5 443.5Z" stroke="#000000" stroke-width="6.875" stroke-miterlimit="8" fill-rule="evenodd"/><path d="M1633.5 443.5C1633.5 434.111 1641.11 426.5 1650.5 426.5 1659.89 426.5 1667.5 434.111 1667.5 443.5 1667.5 452.889 1659.89 460.5 1650.5 460.5 1641.11 460.5 1633.5 452.889 1633.5 443.5Z" stroke="#000000" stroke-width="6.875" stroke-miterlimit="8" fill-rule="evenodd"/><path d="M2146.5 440.5C2146.5 431.111 2154.11 423.5 2163.5 423.5 2172.89 423.5 2180.5 431.111 2180.5 440.5 2180.5 449.889 2172.89 457.5 2163.5 457.5 2154.11 457.5 2146.5 449.889 2146.5 440.5Z" stroke="#000000" stroke-width="6.875" stroke-miterlimit="8" fill-rule="evenodd"/><path d="M2616.5 440.5C2616.5 431.111 2624.11 423.5 2633.5 423.5 2642.89 423.5 2650.5 431.111 2650.5 440.5 2650.5 449.889 2642.89 457.5 2633.5 457.5 2624.11 457.5 2616.5 449.889 2616.5 440.5Z" stroke="#000000" stroke-width="6.875" stroke-miterlimit="8" fill-rule="evenodd"/><path d="M2616.5 882C2616.5 872.887 2624.11 865.5 2633.5 865.5 2642.89 865.5 2650.5 872.887 2650.5 882 2650.5 891.113 2642.89 898.5 2633.5 898.5 2624.11 898.5 2616.5 891.113 2616.5 882Z" stroke="#000000" stroke-width="6.875" stroke-miterlimit="8" fill-rule="evenodd"/><path d="M2144.5 882.5C2144.5 873.111 2152.11 865.5 2161.5 865.5 2170.89 865.5 2178.5 873.111 2178.5 882.5 2178.5 891.889 2170.89 899.5 2161.5 899.5 2152.11 899.5 2144.5 891.889 2144.5 882.5Z" stroke="#000000" stroke-width="6.875" stroke-miterlimit="8" fill-rule="evenodd"/><path d="M1633.5 882C1633.5 872.887 1641.11 865.5 1650.5 865.5 1659.89 865.5 1667.5 872.887 1667.5 882 1667.5 891.113 1659.89 898.5 1650.5 898.5 1641.11 898.5 1633.5 891.113 1633.5 882Z" stroke="#000000" stroke-width="6.875" stroke-miterlimit="8" fill-rule="evenodd"/><path d="M1161.5 882C1161.5 872.887 1169.11 865.5 1178.5 865.5 1187.89 865.5 1195.5 872.887 1195.5 882 1195.5 891.113 1187.89 898.5 1178.5 898.5 1169.11 898.5 1161.5 891.113 1161.5 882Z" stroke="#000000" stroke-width="6.875" stroke-miterlimit="8" fill-rule="evenodd"/><path d="M1161.5 1467.5C1161.5 1458.11 1169.11 1450.5 1178.5 1450.5 1187.89 1450.5 1195.5 1458.11 1195.5 1467.5 1195.5 1476.89 1187.89 1484.5 1178.5 1484.5 1169.11 1484.5 1161.5 1476.89 1161.5 1467.5Z" stroke="#000000" stroke-width="6.875" stroke-miterlimit="8" fill-rule="evenodd"/><path d="M1634.5 1467.5C1634.5 1458.11 1642.11 1450.5 1651.5 1450.5 1660.89 1450.5 1668.5 1458.11 1668.5 1467.5 1668.5 1476.89 1660.89 1484.5 1651.5 1484.5 1642.11 1484.5 1634.5 1476.89 1634.5 1467.5Z" stroke="#000000" stroke-width="6.875" stroke-miterlimit="8" fill-rule="evenodd"/><path d="M2145.5 1467C2145.5 1457.89 2152.89 1450.5 2162 1450.5 2171.11 1450.5 2178.5 1457.89 2178.5 1467 2178.5 1476.11 2171.11 1483.5 2162 1483.5 2152.89 1483.5 2145.5 1476.11 2145.5 1467Z" stroke="#000000" stroke-width="6.875" stroke-miterlimit="8" fill-rule="evenodd"/><path d="M2616.5 1467C2616.5 1457.89 2624.11 1450.5 2633.5 1450.5 2642.89 1450.5 2650.5 1457.89 2650.5 1467 2650.5 1476.11 2642.89 1483.5 2633.5 1483.5 2624.11 1483.5 2616.5 1476.11 2616.5 1467Z" stroke="#000000" stroke-width="6.875" stroke-miterlimit="8" fill-rule="evenodd"/><path d="M2616.5 1896.5C2616.5 1887.11 2624.11 1879.5 2633.5 1879.5 2642.89 1879.5 2650.5 1887.11 2650.5 1896.5 2650.5 1905.89 2642.89 1913.5 2633.5 1913.5 2624.11 1913.5 2616.5 1905.89 2616.5 1896.5Z" stroke="#000000" stroke-width="6.875" stroke-miterlimit="8" fill-rule="evenodd"/><path d="M2144.5 1896.5C2144.5 1887.11 2152.11 1879.5 2161.5 1879.5 2170.89 1879.5 2178.5 1887.11 2178.5 1896.5 2178.5 1905.89 2170.89 1913.5 2161.5 1913.5 2152.11 1913.5 2144.5 1905.89 2144.5 1896.5Z" stroke="#000000" stroke-width="6.875" stroke-miterlimit="8" fill-rule="evenodd"/><path d="M1635.5 1895.5C1635.5 1886.11 1643.11 1878.5 1652.5 1878.5 1661.89 1878.5 1669.5 1886.11 1669.5 1895.5 1669.5 1904.89 1661.89 1912.5 1652.5 1912.5 1643.11 1912.5 1635.5 1904.89 1635.5 1895.5Z" stroke="#000000" stroke-width="6.875" stroke-miterlimit="8" fill-rule="evenodd"/><path d="M1165.5 1895.5C1165.5 1886.11 1173.11 1878.5 1182.5 1878.5 1191.89 1878.5 1199.5 1886.11 1199.5 1895.5 1199.5 1904.89 1191.89 1912.5 1182.5 1912.5 1173.11 1912.5 1165.5 1904.89 1165.5 1895.5Z" stroke="#000000" stroke-width="6.875" stroke-miterlimit="8" fill-rule="evenodd"/><path d="M834.036 1160.03 850.247 1160.03 849.801 1162.02C848.775 1162.24 848.038 1162.48 847.593 1162.75 847.147 1163.02 846.748 1163.43 846.397 1163.97 846.046 1164.51 845.681 1165.35 845.303 1166.5 844.924 1167.65 844.452 1169.52 843.884 1172.11L835.211 1211.63 845.181 1211.63C846.991 1211.63 848.417 1211.45 849.457 1211.1 850.497 1210.75 851.483 1210.11 852.415 1209.17 853.347 1208.24 854.259 1206.98 855.151 1205.38 856.042 1203.79 856.948 1201.8 857.866 1199.43L861.797 1199.43 857.704 1215.35 823.418 1215.35 823.864 1213.37C824.89 1213.21 825.66 1212.94 826.174 1212.58 826.687 1212.21 827.119 1211.71 827.471 1211.06 827.822 1210.41 828.146 1209.62 828.443 1208.69 828.741 1207.76 829.186 1205.95 829.781 1203.28L836.67 1172.07C837.265 1169.37 837.562 1167.19 837.562 1165.55 837.562 1164.28 837.245 1163.39 836.61 1162.89 835.975 1162.39 834.968 1162.1 833.59 1162.02Z" fill-rule="evenodd"/><text fill="#000000" fill-opacity="0" font-family="Arial,Arial_MSFontService,sans-serif" font-size="55.3198" x="823.418" y="1208.44">𝐿</text><path d="M952.763 1153.24C960.652 1155.32 966.711 1159.81 970.94 1166.72 975.168 1173.62 977.282 1181.95 977.282 1191.7 977.282 1201.48 975.175 1209.81 970.96 1216.69 966.745 1223.56 960.679 1228.04 952.763 1230.12L951.79 1227C958.032 1224.92 962.672 1220.81 965.711 1214.68 968.751 1208.55 970.271 1200.75 970.271 1191.3 970.271 1182.16 968.758 1174.58 965.732 1168.54 962.706 1162.5 958.018 1158.44 951.669 1156.36ZM898.732 1153.24 899.827 1156.36C893.504 1158.44 888.823 1162.5 885.784 1168.54 882.744 1174.58 881.224 1182.16 881.224 1191.3 881.224 1200.75 882.744 1208.55 885.784 1214.68 888.823 1220.81 893.464 1224.92 899.705 1227L898.732 1230.12C890.816 1228.04 884.75 1223.56 880.536 1216.69 876.321 1209.81 874.213 1201.48 874.213 1191.7 874.213 1181.95 876.327 1173.62 880.556 1166.72 884.784 1159.81 890.843 1155.32 898.732 1153.24Z" fill-rule="evenodd"/><path d="M913.922 1175.92C915.624 1175.92 916.968 1176.48 917.954 1177.6 918.941 1178.72 919.434 1180.19 919.434 1182 919.434 1183.43 919.109 1185.03 918.461 1186.78L918.947 1186.94C921.595 1183.22 924.115 1180.45 926.506 1178.66 928.897 1176.86 931.362 1175.96 933.902 1175.96 936.415 1175.96 938.346 1176.68 939.697 1178.13 941.048 1179.58 941.724 1181.58 941.724 1184.15 941.724 1185.85 941.332 1188.27 940.548 1191.4L937.914 1202.02C937.185 1204.97 936.82 1207.05 936.82 1208.26 936.82 1209.34 936.995 1210.13 937.347 1210.61 937.698 1211.1 938.252 1211.34 939.008 1211.34 939.819 1211.34 940.683 1211.01 941.602 1210.35 942.521 1209.69 943.818 1208.42 945.493 1206.56L947.803 1208.83C945.479 1211.31 943.453 1213.13 941.724 1214.28 939.995 1215.43 938.022 1216 935.807 1216 934.051 1216 932.646 1215.37 931.592 1214.12 930.538 1212.86 930.011 1211.26 930.011 1209.32 930.011 1207.56 930.457 1204.98 931.349 1201.57L933.132 1194.56C933.78 1192.02 934.206 1190.15 934.409 1188.93 934.611 1187.71 934.712 1186.73 934.712 1185.97 934.712 1184.11 934.402 1182.76 933.78 1181.94 933.159 1181.12 932.146 1180.7 930.741 1180.7 929.606 1180.7 928.383 1181.16 927.073 1182.06 925.763 1182.97 924.371 1184.33 922.899 1186.15 921.426 1187.98 920.244 1189.75 919.353 1191.46 918.461 1193.18 917.732 1195.29 917.164 1197.81L913.314 1215.35 906.303 1215.35 912.22 1189.66C912.814 1187.07 913.111 1185.07 913.111 1183.66 913.111 1182.58 912.936 1181.8 912.585 1181.31 912.233 1180.82 911.679 1180.58 910.923 1180.58 910.085 1180.58 909.201 1180.93 908.268 1181.62 907.336 1182.3 906.06 1183.55 904.439 1185.36L902.128 1183.09C904.614 1180.5 906.681 1178.66 908.329 1177.56 909.977 1176.47 911.842 1175.92 913.922 1175.92Z" fill-rule="evenodd"/><text fill="#000000" fill-opacity="0" font-family="Arial,Arial_MSFontService,sans-serif" font-size="40.0815" x="902.128" y="1210.99">𝑛</text><path d="M2842.39 634.171 2858.6 634.171 2858.15 636.157C2857.13 636.373 2856.39 636.617 2855.95 636.887 2855.5 637.157 2855.1 637.562 2854.75 638.103 2854.4 638.643 2854.03 639.487 2853.66 640.635 2853.28 641.784 2852.8 643.655 2852.24 646.249L2843.56 685.763 2853.53 685.763C2855.34 685.763 2856.77 685.587 2857.81 685.236 2858.85 684.885 2859.84 684.243 2860.77 683.311 2861.7 682.379 2862.61 681.116 2863.5 679.521 2864.4 677.927 2865.3 675.942 2866.22 673.564L2870.15 673.564 2866.06 689.491 2831.77 689.491 2832.22 687.505C2833.24 687.343 2834.01 687.08 2834.53 686.715 2835.04 686.35 2835.47 685.844 2835.82 685.195 2836.17 684.547 2836.5 683.757 2836.8 682.824 2837.09 681.892 2837.54 680.089 2838.13 677.414L2845.02 646.208C2845.62 643.506 2845.91 641.331 2845.91 639.683 2845.91 638.413 2845.6 637.528 2844.96 637.029 2844.33 636.529 2843.32 636.238 2841.94 636.157Z" fill-rule="evenodd"/><text fill="#000000" fill-opacity="0" font-family="Arial,Arial_MSFontService,sans-serif" font-size="55.3198" x="2831.77" y="682.576">𝐿</text><path d="M2983.75 583.796C2991.56 589.902 2998.36 599.892 3004.17 613.766 3009.98 627.64 3012.89 644.965 3012.89 665.742 3012.89 686.573 3009.98 703.926 3004.17 717.799 2998.36 731.673 2991.56 741.663 2983.75 747.769L2981.4 745.054C2988.23 738.732 2993.88 728.897 2998.34 715.55 3002.8 702.203 3005.02 685.614 3005.02 665.783 3005.02 645.951 3002.8 629.362 2998.34 616.015 2993.88 602.668 2988.23 592.833 2981.4 586.511ZM2925.05 583.796 2927.4 586.511C2920.56 592.833 2914.92 602.668 2910.46 616.015 2906 629.362 2903.77 645.951 2903.77 665.783 2903.77 685.614 2906 702.203 2910.46 715.55 2914.92 728.897 2920.56 738.732 2927.4 745.054L2925.05 747.769C2917.24 741.663 2910.43 731.673 2904.62 717.799 2898.82 703.926 2895.91 686.573 2895.91 665.742 2895.91 644.965 2898.82 627.64 2904.62 613.766 2910.43 599.892 2917.24 589.902 2925.05 583.796Z" fill-rule="evenodd"/><path d="M2942.56 587.61C2944.26 587.61 2945.6 588.171 2946.59 589.292 2947.57 590.413 2948.07 591.879 2948.07 593.689 2948.07 595.121 2947.74 596.715 2947.1 598.471L2947.58 598.634C2950.23 594.905 2952.75 592.142 2955.14 590.346 2957.53 588.549 2960 587.651 2962.54 587.651 2965.05 587.651 2966.98 588.373 2968.33 589.819 2969.68 591.264 2970.36 593.271 2970.36 595.837 2970.36 597.539 2969.97 599.958 2969.18 603.092L2966.55 613.71C2965.82 616.655 2965.45 618.735 2965.45 619.951 2965.45 621.032 2965.63 621.815 2965.98 622.302 2966.33 622.788 2966.89 623.031 2967.64 623.031 2968.45 623.031 2969.32 622.7 2970.24 622.038 2971.16 621.376 2972.45 620.113 2974.13 618.249L2976.44 620.518C2974.11 623.004 2972.09 624.821 2970.36 625.969 2968.63 627.118 2966.66 627.692 2964.44 627.692 2962.68 627.692 2961.28 627.064 2960.23 625.807 2959.17 624.551 2958.65 622.95 2958.65 621.005 2958.65 619.249 2959.09 616.668 2959.98 613.264L2961.77 606.253C2962.41 603.713 2962.84 601.835 2963.04 600.619 2963.25 599.404 2963.35 598.417 2963.35 597.661 2963.35 595.797 2963.04 594.453 2962.41 593.628 2961.79 592.804 2960.78 592.392 2959.38 592.392 2958.24 592.392 2957.02 592.845 2955.71 593.75 2954.4 594.655 2953.01 596.02 2951.53 597.843 2950.06 599.667 2948.88 601.437 2947.99 603.152 2947.1 604.868 2946.37 606.982 2945.8 609.495L2941.95 627.043 2934.94 627.043 2940.85 601.349C2941.45 598.755 2941.75 596.756 2941.75 595.351 2941.75 594.27 2941.57 593.487 2941.22 593 2940.87 592.514 2940.31 592.271 2939.56 592.271 2938.72 592.271 2937.83 592.615 2936.9 593.304 2935.97 593.993 2934.69 595.243 2933.07 597.053L2930.76 594.784C2933.25 592.19 2935.32 590.346 2936.96 589.252 2938.61 588.157 2940.48 587.61 2942.56 587.61Z" fill-rule="evenodd"/><text fill="#000000" fill-opacity="0" font-family="Arial,Arial_MSFontService,sans-serif" font-size="40.0815" x="2930.76" y="622.682">𝑛</text><path d="M2957 698.23 2941.16 723.398 2941.16 723.965 2957 723.965 2957 713.874C2957 711.334 2957.04 708.49 2957.12 705.343 2957.2 702.195 2957.3 699.824 2957.41 698.23ZM2958.18 689.071 2963.97 689.071 2963.97 723.965 2964.82 723.965C2966.39 723.965 2967.51 723.85 2968.19 723.621 2968.86 723.391 2969.42 722.986 2969.87 722.405 2970.32 721.824 2970.73 720.871 2971.11 719.548L2974.19 719.548 2973.7 727.896 2963.97 727.896 2963.97 734.543C2963.97 736.353 2964.03 737.677 2964.16 738.514 2964.28 739.352 2964.48 740.014 2964.76 740.5 2965.05 740.987 2965.47 741.392 2966.02 741.716 2966.57 742.04 2967.47 742.364 2968.71 742.689L2968.71 744.674 2952.26 744.674 2952.26 742.689C2953.94 742.256 2955.06 741.777 2955.62 741.25 2956.19 740.723 2956.56 739.973 2956.74 739.001 2956.91 738.028 2957 736.542 2957 734.543L2957 727.896 2934.47 727.896 2934.47 724.857Z" fill-rule="evenodd"/><text fill="#000000" fill-opacity="0" font-family="Arial,Arial_MSFontService,sans-serif" font-size="55.6035" x="2934.47" y="737.724">4</text><path d="M2929.36 663.502 2978.36 663.502 2978.36 668.502 2929.36 668.502Z" fill-rule="evenodd"/><path d="M2842.39 1657.88 2858.6 1657.88 2858.15 1659.87C2857.13 1660.08 2856.39 1660.33 2855.95 1660.6 2855.5 1660.87 2855.1 1661.27 2854.75 1661.81 2854.4 1662.35 2854.03 1663.2 2853.66 1664.34 2853.28 1665.49 2852.8 1667.36 2852.24 1669.96L2843.56 1709.47 2853.53 1709.47C2855.34 1709.47 2856.77 1709.3 2857.81 1708.95 2858.85 1708.59 2859.84 1707.95 2860.77 1707.02 2861.7 1706.09 2862.61 1704.83 2863.5 1703.23 2864.4 1701.64 2865.3 1699.65 2866.22 1697.27L2870.15 1697.27 2866.06 1713.2 2831.77 1713.2 2832.22 1711.21C2833.24 1711.05 2834.01 1710.79 2834.53 1710.42 2835.04 1710.06 2835.47 1709.55 2835.82 1708.9 2836.17 1708.26 2836.5 1707.47 2836.8 1706.53 2837.09 1705.6 2837.54 1703.8 2838.13 1701.12L2845.02 1669.92C2845.62 1667.22 2845.91 1665.04 2845.91 1663.39 2845.91 1662.12 2845.6 1661.24 2844.96 1660.74 2844.33 1660.24 2843.32 1659.95 2841.94 1659.87Z" fill-rule="evenodd"/><text fill="#000000" fill-opacity="0" font-family="Arial,Arial_MSFontService,sans-serif" font-size="55.3198" x="2831.77" y="1706.29">𝐿</text><path d="M2983.75 1607.51C2991.56 1613.61 2998.36 1623.6 3004.17 1637.48 3009.98 1651.35 3012.89 1668.67 3012.89 1689.45 3012.89 1710.28 3009.98 1727.64 3004.17 1741.51 2998.36 1755.38 2991.56 1765.37 2983.75 1771.48L2981.4 1768.76C2988.23 1762.44 2993.88 1752.61 2998.34 1739.26 3002.8 1725.91 3005.02 1709.32 3005.02 1689.49 3005.02 1669.66 3002.8 1653.07 2998.34 1639.72 2993.88 1626.38 2988.23 1616.54 2981.4 1610.22ZM2925.05 1607.51 2927.4 1610.22C2920.56 1616.54 2914.92 1626.38 2910.46 1639.72 2906 1653.07 2903.77 1669.66 2903.77 1689.49 2903.77 1709.32 2906 1725.91 2910.46 1739.26 2914.92 1752.61 2920.56 1762.44 2927.4 1768.76L2925.05 1771.48C2917.24 1765.37 2910.43 1755.38 2904.62 1741.51 2898.82 1727.64 2895.91 1710.28 2895.91 1689.45 2895.91 1668.67 2898.82 1651.35 2904.62 1637.48 2910.43 1623.6 2917.24 1613.61 2925.05 1607.51Z" fill-rule="evenodd"/><path d="M2942.56 1611.32C2944.26 1611.32 2945.6 1611.88 2946.59 1613 2947.57 1614.12 2948.07 1615.59 2948.07 1617.4 2948.07 1618.83 2947.74 1620.42 2947.1 1622.18L2947.58 1622.34C2950.23 1618.61 2952.75 1615.85 2955.14 1614.06 2957.53 1612.26 2960 1611.36 2962.54 1611.36 2965.05 1611.36 2966.98 1612.08 2968.33 1613.53 2969.68 1614.97 2970.36 1616.98 2970.36 1619.55 2970.36 1621.25 2969.97 1623.67 2969.18 1626.8L2966.55 1637.42C2965.82 1640.36 2965.45 1642.44 2965.45 1643.66 2965.45 1644.74 2965.63 1645.52 2965.98 1646.01 2966.33 1646.5 2966.89 1646.74 2967.64 1646.74 2968.45 1646.74 2969.32 1646.41 2970.24 1645.75 2971.16 1645.09 2972.45 1643.82 2974.13 1641.96L2976.44 1644.23C2974.11 1646.71 2972.09 1648.53 2970.36 1649.68 2968.63 1650.83 2966.66 1651.4 2964.44 1651.4 2962.68 1651.4 2961.28 1650.77 2960.23 1649.52 2959.17 1648.26 2958.65 1646.66 2958.65 1644.71 2958.65 1642.96 2959.09 1640.38 2959.98 1636.97L2961.77 1629.96C2962.41 1627.42 2962.84 1625.54 2963.04 1624.33 2963.25 1623.11 2963.35 1622.13 2963.35 1621.37 2963.35 1619.51 2963.04 1618.16 2962.41 1617.34 2961.79 1616.51 2960.78 1616.1 2959.38 1616.1 2958.24 1616.1 2957.02 1616.55 2955.71 1617.46 2954.4 1618.36 2953.01 1619.73 2951.53 1621.55 2950.06 1623.38 2948.88 1625.15 2947.99 1626.86 2947.1 1628.58 2946.37 1630.69 2945.8 1633.2L2941.95 1650.75 2934.94 1650.75 2940.85 1625.06C2941.45 1622.46 2941.75 1620.47 2941.75 1619.06 2941.75 1617.98 2941.57 1617.2 2941.22 1616.71 2940.87 1616.22 2940.31 1615.98 2939.56 1615.98 2938.72 1615.98 2937.83 1616.32 2936.9 1617.01 2935.97 1617.7 2934.69 1618.95 2933.07 1620.76L2930.76 1618.49C2933.25 1615.9 2935.32 1614.06 2936.96 1612.96 2938.61 1611.87 2940.48 1611.32 2942.56 1611.32Z" fill-rule="evenodd"/><text fill="#000000" fill-opacity="0" font-family="Arial,Arial_MSFontService,sans-serif" font-size="40.0815" x="2930.76" y="1646.39">𝑛</text><path d="M2957 1721.94 2941.16 1747.11 2941.16 1747.67 2957 1747.67 2957 1737.58C2957 1735.04 2957.04 1732.2 2957.12 1729.05 2957.2 1725.9 2957.3 1723.53 2957.41 1721.94ZM2958.18 1712.78 2963.97 1712.78 2963.97 1747.67 2964.82 1747.67C2966.39 1747.67 2967.51 1747.56 2968.19 1747.33 2968.86 1747.1 2969.42 1746.7 2969.87 1746.11 2970.32 1745.53 2970.73 1744.58 2971.11 1743.26L2974.19 1743.26 2973.7 1751.61 2963.97 1751.61 2963.97 1758.25C2963.97 1760.06 2964.03 1761.39 2964.16 1762.22 2964.28 1763.06 2964.48 1763.72 2964.76 1764.21 2965.05 1764.7 2965.47 1765.1 2966.02 1765.43 2966.57 1765.75 2967.47 1766.07 2968.71 1766.4L2968.71 1768.38 2952.26 1768.38 2952.26 1766.4C2953.94 1765.97 2955.06 1765.49 2955.62 1764.96 2956.19 1764.43 2956.56 1763.68 2956.74 1762.71 2956.91 1761.74 2957 1760.25 2957 1758.25L2957 1751.61 2934.47 1751.61 2934.47 1748.57Z" fill-rule="evenodd"/><text fill="#000000" fill-opacity="0" font-family="Arial,Arial_MSFontService,sans-serif" font-size="55.6035" x="2934.47" y="1761.43">4</text><path d="M2929.36 1687.21 2978.36 1687.21 2978.36 1692.21 2929.36 1692.21Z" fill-rule="evenodd"/><path d="M2856.03 1188.31C2854.76 1194.17 2854.13 1199.11 2854.13 1203.1 2854.13 1206.13 2854.58 1208.35 2855.5 1209.77 2856.42 1211.19 2857.91 1211.9 2859.96 1211.9 2862.99 1211.9 2865.86 1209.87 2868.57 1205.8 2871.29 1201.73 2873.59 1195.9 2875.48 1188.31ZM2872.65 1161C2869.49 1161 2866.56 1163 2863.87 1166.99 2861.18 1170.99 2858.89 1176.72 2857 1184.18L2876.42 1184.18C2877.69 1178.48 2878.32 1173.57 2878.32 1169.47 2878.32 1166.63 2877.86 1164.51 2876.94 1163.1 2876.02 1161.7 2874.59 1161 2872.65 1161ZM2873.13 1157.71C2880.97 1157.71 2884.89 1162.69 2884.89 1172.63 2884.89 1175.44 2884.57 1178.79 2883.93 1182.7 2883.3 1186.6 2882.29 1190.58 2880.91 1194.63 2879.54 1198.69 2877.79 1202.27 2875.69 1205.39 2873.58 1208.51 2871.15 1210.93 2868.39 1212.63 2865.64 1214.33 2862.66 1215.18 2859.48 1215.18 2855.45 1215.18 2852.45 1213.95 2850.48 1211.49 2848.51 1209.03 2847.52 1205.35 2847.52 1200.43 2847.52 1197.75 2847.82 1194.46 2848.41 1190.54 2849.01 1186.62 2849.98 1182.62 2851.35 1178.52 2852.71 1174.43 2854.47 1170.8 2856.62 1167.62 2858.77 1164.45 2861.24 1162 2864.03 1160.29 2866.83 1158.57 2869.86 1157.71 2873.13 1157.71Z" fill-rule="evenodd"/><text fill="#000000" fill-opacity="0" font-family="Arial,Arial_MSFontService,sans-serif" font-size="57.4678" x="2847.52" y="1208">𝜃</text><path d="M2974.38 1152.42C2982.27 1154.5 2988.32 1158.99 2992.55 1165.89 2996.78 1172.8 2998.9 1181.13 2998.9 1190.88 2998.9 1200.66 2996.79 1208.99 2992.57 1215.86 2988.36 1222.74 2982.29 1227.22 2974.38 1229.3L2973.4 1226.18C2979.65 1224.1 2984.29 1219.99 2987.32 1213.86 2990.36 1207.73 2991.88 1199.93 2991.88 1190.47 2991.88 1181.34 2990.37 1173.76 2987.35 1167.72 2984.32 1161.68 2979.63 1157.62 2973.28 1155.54ZM2923.49 1152.42 2924.58 1155.54C2918.26 1157.62 2913.58 1161.68 2910.54 1167.72 2907.5 1173.76 2905.98 1181.34 2905.98 1190.47 2905.98 1199.93 2907.5 1207.73 2910.54 1213.86 2913.58 1219.99 2918.22 1224.1 2924.46 1226.18L2923.49 1229.3C2915.57 1227.22 2909.5 1222.74 2905.29 1215.86 2901.07 1208.99 2898.97 1200.66 2898.97 1190.88 2898.97 1181.13 2901.08 1172.8 2905.31 1165.89 2909.54 1158.99 2915.6 1154.5 2923.49 1152.42Z" fill-rule="evenodd"/><path d="M2952.09 1158.56 2954.32 1158.56C2954.16 1161.16 2954.08 1164.75 2954.08 1169.35L2954.08 1203.96C2954.08 1205.52 2954.16 1206.7 2954.34 1207.5 2954.51 1208.3 2954.83 1208.95 2955.27 1209.45 2955.72 1209.95 2956.36 1210.34 2957.2 1210.62 2958.03 1210.91 2959.09 1211.12 2960.36 1211.27 2961.63 1211.42 2963.3 1211.52 2965.38 1211.57L2965.38 1214.53 2935.43 1214.53 2935.43 1211.57C2938.43 1211.44 2940.57 1211.26 2941.86 1211.03 2943.14 1210.8 2944.12 1210.45 2944.79 1209.99 2945.47 1209.53 2945.96 1208.89 2946.27 1208.05 2946.58 1207.21 2946.74 1205.85 2946.74 1203.96L2946.74 1171.09C2946.74 1170.01 2946.55 1169.22 2946.17 1168.72 2945.79 1168.22 2945.24 1167.97 2944.51 1167.97 2943.65 1167.97 2942.42 1168.41 2940.82 1169.3 2939.23 1170.2 2937.26 1171.43 2934.91 1172.99L2933.12 1169.87Z" fill-rule="evenodd"/><text fill="#000000" fill-opacity="0" font-family="Arial,Arial_MSFontService,sans-serif" font-size="55.9683" x="2933.12" y="1207.54">1</text><path d="M1836.21 2047.37 1852.42 2047.37 1851.97 2049.35C1850.94 2049.57 1850.21 2049.81 1849.76 2050.08 1849.32 2050.35 1848.92 2050.76 1848.57 2051.3 1848.22 2051.84 1847.85 2052.68 1847.47 2053.83 1847.09 2054.98 1846.62 2056.85 1846.05 2059.44L1837.38 2098.96 1847.35 2098.96C1849.16 2098.96 1850.59 2098.78 1851.63 2098.43 1852.67 2098.08 1853.65 2097.44 1854.59 2096.51 1855.52 2095.57 1856.43 2094.31 1857.32 2092.72 1858.21 2091.12 1859.12 2089.14 1860.04 2086.76L1863.97 2086.76 1859.87 2102.69 1825.59 2102.69 1826.03 2100.7C1827.06 2100.54 1827.83 2100.28 1828.34 2099.91 1828.86 2099.55 1829.29 2099.04 1829.64 2098.39 1829.99 2097.74 1830.32 2096.95 1830.61 2096.02 1830.91 2095.09 1831.36 2093.29 1831.95 2090.61L1838.84 2059.4C1839.44 2056.7 1839.73 2054.53 1839.73 2052.88 1839.73 2051.61 1839.41 2050.72 1838.78 2050.22 1838.15 2049.73 1837.14 2049.43 1835.76 2049.35Z" fill-rule="evenodd"/><text fill="#000000" fill-opacity="0" font-family="Arial,Arial_MSFontService,sans-serif" font-size="55.3198" x="1825.59" y="2095.77">𝐿</text><path d="M1954.93 2040.57C1962.82 2042.65 1968.88 2047.15 1973.11 2054.05 1977.34 2060.95 1979.45 2069.28 1979.45 2079.03 1979.45 2088.81 1977.34 2097.14 1973.13 2104.02 1968.92 2110.9 1962.85 2115.37 1954.93 2117.45L1953.96 2114.33C1960.2 2112.25 1964.84 2108.15 1967.88 2102.01 1970.92 2095.88 1972.44 2088.08 1972.44 2078.63 1972.44 2069.5 1970.93 2061.91 1967.9 2055.87 1964.88 2049.83 1960.19 2045.77 1953.84 2043.69ZM1900.9 2040.57 1902 2043.69C1895.67 2045.77 1890.99 2049.83 1887.95 2055.87 1884.91 2061.91 1883.39 2069.5 1883.39 2078.63 1883.39 2088.08 1884.91 2095.88 1887.95 2102.01 1890.99 2108.15 1895.63 2112.25 1901.88 2114.33L1900.9 2117.45C1892.99 2115.37 1886.92 2110.9 1882.71 2104.02 1878.49 2097.14 1876.38 2088.81 1876.38 2079.03 1876.38 2069.28 1878.5 2060.95 1882.73 2054.05 1886.95 2047.15 1893.01 2042.65 1900.9 2040.57Z" fill-rule="evenodd"/><path d="M1916.09 2063.25C1917.79 2063.25 1919.14 2063.81 1920.12 2064.94 1921.11 2066.06 1921.6 2067.52 1921.6 2069.33 1921.6 2070.77 1921.28 2072.36 1920.63 2074.12L1921.12 2074.28C1923.77 2070.55 1926.28 2067.79 1928.68 2065.99 1931.07 2064.19 1933.53 2063.29 1936.07 2063.29 1938.58 2063.29 1940.52 2064.02 1941.87 2065.46 1943.22 2066.91 1943.89 2068.91 1943.89 2071.48 1943.89 2073.18 1943.5 2075.6 1942.72 2078.74L1940.08 2089.35C1939.35 2092.3 1938.99 2094.38 1938.99 2095.6 1938.99 2096.68 1939.17 2097.46 1939.52 2097.95 1939.87 2098.43 1940.42 2098.68 1941.18 2098.68 1941.99 2098.68 1942.85 2098.34 1943.77 2097.68 1944.69 2097.02 1945.99 2095.76 1947.66 2093.89L1949.97 2096.16C1947.65 2098.65 1945.62 2100.47 1943.89 2101.61 1942.16 2102.76 1940.19 2103.34 1937.98 2103.34 1936.22 2103.34 1934.82 2102.71 1933.76 2101.45 1932.71 2100.2 1932.18 2098.59 1932.18 2096.65 1932.18 2094.89 1932.63 2092.31 1933.52 2088.91L1935.3 2081.9C1935.95 2079.36 1936.38 2077.48 1936.58 2076.26 1936.78 2075.05 1936.88 2074.06 1936.88 2073.31 1936.88 2071.44 1936.57 2070.1 1935.95 2069.27 1935.33 2068.45 1934.32 2068.04 1932.91 2068.04 1931.78 2068.04 1930.55 2068.49 1929.24 2069.39 1927.93 2070.3 1926.54 2071.66 1925.07 2073.49 1923.6 2075.31 1922.41 2077.08 1921.52 2078.8 1920.63 2080.51 1919.9 2082.63 1919.33 2085.14L1915.48 2102.69 1908.47 2102.69 1914.39 2076.99C1914.98 2074.4 1915.28 2072.4 1915.28 2071 1915.28 2069.91 1915.11 2069.13 1914.75 2068.64 1914.4 2068.16 1913.85 2067.92 1913.09 2067.92 1912.26 2067.92 1911.37 2068.26 1910.44 2068.95 1909.51 2069.64 1908.23 2070.89 1906.61 2072.7L1904.3 2070.43C1906.78 2067.83 1908.85 2065.99 1910.5 2064.9 1912.15 2063.8 1914.01 2063.25 1916.09 2063.25Z" fill-rule="evenodd"/><text fill="#000000" fill-opacity="0" font-family="Arial,Arial_MSFontService,sans-serif" font-size="40.0815" x="1904.3" y="2098.33">𝑛</text></g></svg>