<svg width="1555" height="950" xmlns="http://www.w3.org/2000/svg" xmlns:xlink="http://www.w3.org/1999/xlink" xml:space="preserve" overflow="hidden"><g transform="translate(-956 -555)"><path d="M959.5 1113C959.5 898.438 1237.53 724.5 1580.5 724.5 1923.47 724.5 2201.5 898.438 2201.5 1113 2201.5 1327.56 1923.47 1501.5 1580.5 1501.5 1237.53 1501.5 959.5 1327.56 959.5 1113Z" stroke="#4EA72E" stroke-width="6.875" stroke-miterlimit="8" fill="#FFFFFF" fill-rule="evenodd"/><path d="M1100.95 1126.11C1103.44 1126.11 1105.74 1126.28 1107.86 1126.62 1109.98 1126.96 1112.33 1127.53 1114.89 1128.34L1112.63 1138.76 1108.73 1138.76C1108.63 1136.46 1108.28 1134.66 1107.68 1133.35 1107.09 1132.04 1106.24 1131.1 1105.13 1130.53 1104.02 1129.96 1102.55 1129.68 1100.71 1129.68 1098.47 1129.68 1096.5 1130.14 1094.79 1131.06 1093.09 1131.98 1091.79 1133.23 1090.9 1134.81 1090.01 1136.39 1089.57 1138.15 1089.57 1140.1 1089.57 1142.12 1090.1 1143.9 1091.17 1145.43 1092.23 1146.95 1094.28 1148.76 1097.31 1150.84 1099.95 1152.67 1101.97 1154.31 1103.36 1155.76 1104.76 1157.21 1105.78 1158.74 1106.44 1160.36 1107.11 1161.98 1107.44 1163.86 1107.44 1165.99 1107.44 1169.29 1106.65 1172.21 1105.07 1174.77 1103.49 1177.32 1101.26 1179.29 1098.38 1180.68 1095.5 1182.08 1092.23 1182.77 1088.55 1182.77 1086.07 1182.77 1083.38 1182.57 1080.51 1182.16 1077.63 1181.76 1075.06 1181.25 1072.79 1180.62L1075.22 1169.48 1079.11 1169.48C1079.11 1172.78 1079.87 1175.23 1081.4 1176.83 1082.93 1178.44 1085.28 1179.25 1088.47 1179.25 1092.15 1179.25 1095.04 1178.25 1097.14 1176.25 1099.25 1174.25 1100.31 1171.46 1100.31 1167.9 1100.31 1166.25 1100.01 1164.8 1099.43 1163.54 1098.85 1162.29 1097.97 1161.08 1096.8 1159.93 1095.62 1158.79 1093.93 1157.47 1091.71 1155.98 1089.71 1154.63 1088.05 1153.3 1086.73 1151.99 1085.4 1150.68 1084.35 1149.22 1083.57 1147.59 1082.78 1145.97 1082.39 1144.16 1082.39 1142.16 1082.39 1138.98 1083.16 1136.17 1084.7 1133.73 1086.24 1131.3 1088.42 1129.42 1091.23 1128.1 1094.04 1126.78 1097.28 1126.11 1100.95 1126.11Z" fill-rule="evenodd"/><text fill="#000000" fill-opacity="0" font-family="Arial,Arial_MSFontService,sans-serif" font-size="56.6572" x="1072.79" y="1175.69">𝑆</text><path d="M1437 1244.5C1437 1194.52 1477.74 1154 1528 1154 1578.26 1154 1619 1194.52 1619 1244.5 1619 1294.48 1578.26 1335 1528 1335 1477.74 1335 1437 1294.48 1437 1244.5Z" fill="#FF0000" fill-rule="evenodd"/><rect x="1497" y="1194" width="62.9999" height="100" fill="#FF0000"/><path d="M1530.72 1232C1533.23 1232 1535.52 1232.15 1537.59 1232.45 1539.66 1232.75 1541.72 1233.26 1543.77 1233.99L1541.94 1242.5 1538.66 1242.5C1538.36 1240.1 1537.57 1238.27 1536.29 1237.03 1535.01 1235.79 1532.99 1235.16 1530.23 1235.16 1528.1 1235.16 1526.37 1235.71 1525.05 1236.81 1523.72 1237.9 1523.06 1239.34 1523.06 1241.12 1523.06 1242.09 1523.23 1242.95 1523.57 1243.7 1523.9 1244.44 1524.59 1245.26 1525.61 1246.15 1526.64 1247.04 1528.23 1248.13 1530.39 1249.43 1532.1 1250.46 1533.46 1251.4 1534.49 1252.25 1535.51 1253.1 1536.33 1253.94 1536.92 1254.78 1537.51 1255.62 1537.95 1256.5 1538.22 1257.43 1538.49 1258.37 1538.62 1259.49 1538.62 1260.82 1538.62 1263.22 1537.98 1265.28 1536.7 1267 1535.41 1268.71 1533.67 1269.99 1531.47 1270.83 1529.27 1271.67 1526.76 1272.08 1523.95 1272.08 1521.71 1272.08 1519.51 1271.92 1517.34 1271.58 1515.18 1271.24 1512.78 1270.67 1510.13 1269.86L1512.08 1261.02 1515.24 1261.02C1515.35 1263.61 1516.07 1265.57 1517.43 1266.9 1518.78 1268.22 1520.92 1268.88 1523.87 1268.88 1526.44 1268.88 1528.44 1268.31 1529.89 1267.16 1531.33 1266.01 1532.06 1264.38 1532.06 1262.28 1532.06 1261.06 1531.85 1260.01 1531.45 1259.14 1531.04 1258.26 1530.38 1257.41 1529.46 1256.6 1528.54 1255.79 1527.08 1254.78 1525.09 1253.56 1522.98 1252.29 1521.34 1251.15 1520.16 1250.12 1518.99 1249.09 1518.1 1247.98 1517.51 1246.78 1516.91 1245.57 1516.62 1244.19 1516.62 1242.62 1516.62 1240.49 1517.19 1238.62 1518.34 1237.01 1519.49 1235.4 1521.13 1234.16 1523.26 1233.3 1525.4 1232.44 1527.88 1232 1530.72 1232Z" fill-rule="evenodd"/><text fill="#000000" fill-opacity="0" font-family="Arial,Arial_MSFontService,sans-serif" font-size="40.0815" x="1510.13" y="1267.07">𝑠</text><path d="M2325.5 1027.5C2325.5 977.242 2366.24 936.5 2416.5 936.5 2466.76 936.5 2507.5 977.242 2507.5 1027.5 2507.5 1077.76 2466.76 1118.5 2416.5 1118.5 2366.24 1118.5 2325.5 1077.76 2325.5 1027.5Z" stroke="#4EA72E" stroke-width="6.875" stroke-miterlimit="8" fill="#FFFFFF" fill-rule="evenodd"/><path d="M2430.91 1014.67C2432.85 1014.67 2434.26 1015.17 2435.12 1016.19 2435.99 1017.2 2436.42 1018.56 2436.42 1020.26 2436.42 1021.56 2436.19 1023.04 2435.73 1024.72 2435.27 1026.39 2434.62 1028.16 2433.79 1030.03 2432.95 1031.89 2431.95 1033.8 2430.79 1035.76 2429.62 1037.72 2428.34 1039.62 2426.94 1041.48 2425.53 1043.33 2424.03 1045.07 2422.44 1046.7 2420.84 1048.34 2419.19 1049.76 2417.47 1050.98 2415.76 1052.19 2414.02 1053.16 2412.25 1053.88 2410.48 1054.59 2408.71 1054.95 2406.96 1054.95 2406.17 1054.95 2405.52 1054.75 2404.99 1054.36 2404.46 1053.97 2404.04 1053.42 2403.71 1052.7 2403.39 1051.99 2403.16 1051.14 2403.03 1050.17 2402.89 1049.2 2402.82 1048.13 2402.82 1046.97 2402.82 1045.43 2402.92 1043.78 2403.11 1042.02 2403.3 1040.27 2403.54 1038.5 2403.84 1036.71L2405.54 1025.49C2405.65 1024.84 2405.73 1024.22 2405.8 1023.64 2405.87 1023.06 2405.9 1022.64 2405.9 1022.37 2405.9 1021.53 2405.77 1020.84 2405.5 1020.3 2405.23 1019.76 2404.77 1019.49 2404.12 1019.49 2403.61 1019.49 2403.05 1019.64 2402.46 1019.96 2401.86 1020.27 2401.26 1020.66 2400.65 1021.15 2400.05 1021.64 2399.46 1022.16 2398.89 1022.71 2398.32 1023.26 2397.8 1023.78 2397.31 1024.27L2395.37 1022C2396.2 1021.14 2397.09 1020.28 2398.04 1019.43 2398.99 1018.58 2399.99 1017.81 2401.04 1017.12 2402.09 1016.43 2403.2 1015.88 2404.36 1015.46 2405.52 1015.04 2406.71 1014.83 2407.93 1014.83 2408.96 1014.83 2409.79 1015 2410.44 1015.33 2411.09 1015.67 2411.6 1016.12 2411.96 1016.67 2412.33 1017.23 2412.58 1017.83 2412.71 1018.5 2412.85 1019.16 2412.91 1019.81 2412.91 1020.46 2412.91 1020.84 2412.9 1021.2 2412.87 1021.56 2412.85 1021.91 2412.81 1022.23 2412.75 1022.53L2410.48 1037.2C2410.24 1038.74 2410.04 1040.25 2409.87 1041.72 2409.71 1043.19 2409.63 1044.49 2409.63 1045.63 2409.63 1046.76 2409.7 1047.68 2409.83 1048.39 2409.97 1049.09 2410.23 1049.44 2410.6 1049.44 2411.5 1049.44 2412.62 1049.08 2413.97 1048.36 2415.32 1047.65 2416.74 1046.66 2418.22 1045.41 2419.71 1044.15 2421.2 1042.66 2422.68 1040.95 2424.17 1039.23 2425.5 1037.38 2426.69 1035.38 2427.88 1033.38 2428.85 1031.27 2429.59 1029.05 2430.33 1026.84 2430.71 1024.61 2430.71 1022.37 2430.71 1021.39 2430.5 1020.64 2430.08 1020.12 2429.66 1019.59 2429 1019.33 2428.11 1019.33 2426.98 1019.33 2425.93 1019.77 2424.97 1020.64 2424.01 1021.52 2423.02 1022.68 2421.99 1024.11L2419.68 1022.04C2420.33 1021.07 2421.09 1020.14 2421.97 1019.25 2422.85 1018.35 2423.78 1017.57 2424.77 1016.9 2425.75 1016.22 2426.77 1015.68 2427.83 1015.27 2428.88 1014.87 2429.91 1014.67 2430.91 1014.67Z" fill-rule="evenodd"/><text fill="#000000" fill-opacity="0" font-family="Arial,Arial_MSFontService,sans-serif" font-size="40.2842" x="2395.37" y="1049.91">𝑣</text><path d="M1838.5 649C1838.5 599.018 1879.02 558.5 1929 558.5 1978.98 558.5 2019.5 599.018 2019.5 649 2019.5 698.982 1978.98 739.5 1929 739.5 1879.02 739.5 1838.5 698.982 1838.5 649Z" stroke="#4EA72E" stroke-width="6.875" stroke-miterlimit="8" fill="#FFFFFF" fill-rule="evenodd"/><path d="M1917.86 635.993C1918.96 635.993 1919.91 636.142 1920.69 636.439 1921.23 636.655 1921.77 637.013 1922.32 637.513 1922.86 638.013 1923.34 638.708 1923.75 639.6 1924.17 640.491 1924.54 641.491 1924.85 642.599 1925.16 643.707 1925.5 645.301 1925.88 647.381 1926.53 650.866 1927.16 654.534 1927.77 658.384 1928.37 662.234 1928.89 665.808 1929.33 669.104 1931.95 665.321 1934.17 661.62 1935.99 657.999 1937.82 654.379 1939.13 651.231 1939.92 648.556 1940.72 645.882 1941.12 643.707 1941.12 642.031 1941.12 640.762 1940.85 639.897 1940.31 639.438 1939.77 638.978 1938.85 638.708 1937.55 638.627L1937.96 636.641 1948.62 636.641 1949.71 638.668C1947.66 644.288 1944.88 650.299 1941.36 656.702 1937.9 662.971 1933.95 669.212 1929.49 675.426 1925.22 681.343 1921.67 685.625 1918.83 688.273 1916.86 690.083 1914.95 691.38 1913.12 692.164 1911.66 692.758 1910.1 693.055 1908.45 693.055 1907.89 693.055 1907.23 693.008 1906.49 692.914 1905.75 692.819 1905.17 692.691 1904.77 692.529L1906.51 684.666 1909.71 684.666C1909.71 686.395 1910.31 687.26 1911.49 687.26 1913.06 687.26 1914.89 686.281 1916.97 684.322 1919.05 682.363 1921.49 679.411 1924.3 675.467 1923.52 670.738 1922.45 665.038 1921.1 658.364 1919.67 651.231 1918.72 646.814 1918.26 645.112 1917.7 643.058 1917.1 641.748 1916.48 641.18 1916.1 640.829 1915.63 640.654 1915.06 640.654 1914.2 640.654 1913.39 641.005 1912.63 641.707 1911.87 642.41 1910.94 643.626 1909.83 645.355L1907.2 643.612C1909.06 640.829 1910.81 638.864 1912.43 637.715 1914.05 636.567 1915.86 635.993 1917.86 635.993Z" fill-rule="evenodd"/><text fill="#000000" fill-opacity="0" font-family="Arial,Arial_MSFontService,sans-serif" font-size="57.0625" x="1904.77" y="685.923">𝑦</text><path d="M1612 879.5C1612 829.518 1652.52 789 1702.5 789 1752.48 789 1793 829.518 1793 879.5 1793 929.482 1752.48 970 1702.5 970 1652.52 970 1612 929.482 1612 879.5Z" fill="#FF0000" fill-rule="evenodd"/><rect x="1668" y="827" width="69.0001" height="100" fill="#FF0000"/><path d="M1695.19 864.566C1696.03 864.566 1696.76 864.66 1697.4 864.85 1698.03 865.039 1698.59 865.329 1699.08 865.721 1699.56 866.113 1700 866.619 1700.38 867.241 1700.75 867.862 1701.12 868.706 1701.47 869.774 1701.82 870.841 1702.15 872.165 1702.46 873.745 1702.77 875.326 1703.05 876.967 1703.29 878.669L1703.7 878.669C1706.29 875.022 1708.26 872.354 1709.6 870.665 1710.93 868.977 1712.06 867.72 1712.98 866.896 1713.9 866.072 1714.78 865.491 1715.63 865.154 1716.48 864.816 1717.61 864.647 1719.02 864.647 1720.29 864.647 1721.33 864.809 1722.14 865.133L1720.52 872.469 1717.68 872.469C1717.52 871.334 1717.05 870.767 1716.26 870.767 1716.02 870.767 1715.76 870.807 1715.49 870.888 1715.22 870.969 1714.89 871.145 1714.5 871.415 1714.11 871.685 1713.53 872.212 1712.78 872.996 1712.02 873.779 1711.17 874.738 1710.22 875.873 1709.28 877.008 1708.3 878.197 1707.31 879.439L1704.55 882.884C1705.04 885.478 1705.5 887.72 1705.93 889.612 1706.36 891.503 1706.74 893.077 1707.08 894.333 1707.42 895.59 1707.72 896.582 1707.97 897.312 1708.23 898.041 1708.51 898.589 1708.8 898.953 1709.1 899.318 1709.41 899.575 1709.72 899.723 1710.03 899.872 1710.39 899.946 1710.79 899.946 1711.52 899.946 1712.23 899.663 1712.92 899.095 1713.61 898.528 1714.6 897.244 1715.9 895.245L1718.53 896.988C1716.64 899.798 1714.93 901.777 1713.4 902.925 1711.88 904.073 1710.06 904.647 1707.95 904.647 1706.79 904.647 1705.81 904.438 1705 904.019 1704.18 903.6 1703.48 902.932 1702.89 902.013 1702.29 901.094 1701.77 899.663 1701.31 897.717 1700.47 894.259 1699.96 891.611 1699.77 889.774L1699.36 889.774C1696.5 893.8 1694.37 896.691 1692.98 898.447 1691.59 900.203 1690.44 901.5 1689.53 902.337 1688.63 903.175 1687.75 903.763 1686.9 904.1 1686.05 904.438 1684.92 904.607 1683.52 904.607 1682.25 904.607 1681.21 904.445 1680.4 904.121L1682.02 896.785 1684.85 896.785C1685.02 897.92 1685.49 898.487 1686.27 898.487 1686.65 898.487 1687.05 898.386 1687.47 898.183 1687.89 897.981 1688.49 897.494 1689.27 896.724 1690.05 895.954 1691.13 894.745 1692.51 893.097 1693.89 891.449 1695.89 888.977 1698.51 885.681 1698.11 883.546 1697.69 881.493 1697.25 879.52 1696.82 877.548 1696.38 875.711 1695.92 874.009 1695.46 872.307 1695.08 871.192 1694.78 870.665 1694.49 870.138 1694.17 869.774 1693.83 869.571 1693.49 869.368 1693.07 869.267 1692.55 869.267 1691.99 869.267 1691.47 869.395 1691.01 869.652 1690.55 869.909 1690.05 870.354 1689.51 870.989 1688.97 871.624 1688.26 872.617 1687.37 873.968L1684.73 872.226C1686.43 869.659 1688.07 867.74 1689.64 866.471 1691.2 865.201 1693.05 864.566 1695.19 864.566Z" fill-rule="evenodd"/><text fill="#000000" fill-opacity="0" font-family="Arial,Arial_MSFontService,sans-serif" font-size="40.0815" x="1680.4" y="899.637">𝑥</text><path d="M0 0 97.6001 102.95" stroke="#156082" stroke-width="6.875" stroke-miterlimit="8" fill="none" fill-rule="evenodd" transform="matrix(1 0 0 -1 1767.5 816.45)"/><path d="M2007.5 606.394C2189.75 577.51 2372 548.626 2444.35 603.644 2516.7 658.661 2479.15 797.581 2441.6 936.5" stroke="#042433" stroke-width="6.875" stroke-miterlimit="8" stroke-dasharray="27.5 20.625" fill="none" fill-rule="evenodd"/><path d="M1616.5 1265.11C1745.27 1291.32 1874.04 1317.52 1995.2 1286.25 2116.37 1254.98 2229.93 1166.24 2343.5 1077.5" stroke="#FF0000" stroke-width="6.875" stroke-miterlimit="8" fill="none" fill-rule="evenodd"/><path d="M1559.5 1160.5 1614.67 1049.82C1631.34 1016.15 1645.42 987.324 1659.5 958.5" stroke="#00B0F0" stroke-width="6.875" stroke-miterlimit="8" fill="none" fill-rule="evenodd"/></g></svg>