<svg width="2443" height="1151" xmlns="http://www.w3.org/2000/svg" xmlns:xlink="http://www.w3.org/1999/xlink" xml:space="preserve" overflow="hidden"><g transform="translate(-962 -630)"><path d="M1623 796.5C1623 704.545 1697.77 630 1790 630 1882.23 630 1957 704.545 1957 796.5 1957 888.455 1882.23 963 1790 963 1697.77 963 1623 888.455 1623 796.5Z" fill="#FFFFFF" fill-rule="evenodd"/><path d="M1748.09 785.688C1749.79 785.688 1751.13 786.249 1752.12 787.37 1753.11 788.491 1753.6 789.957 1753.6 791.767 1753.6 793.199 1753.27 794.793 1752.63 796.549L1753.11 796.712C1755.76 792.983 1758.28 790.22 1760.67 788.424 1763.06 786.627 1765.53 785.729 1768.07 785.729 1770.58 785.729 1772.51 786.451 1773.86 787.897 1775.21 789.342 1775.89 791.348 1775.89 793.915 1775.89 795.617 1775.5 798.035 1774.71 801.17L1772.08 811.788C1771.35 814.733 1770.98 816.813 1770.98 818.029 1770.98 819.11 1771.16 819.893 1771.51 820.38 1771.86 820.866 1772.42 821.109 1773.17 821.109 1773.98 821.109 1774.85 820.778 1775.77 820.116 1776.69 819.454 1777.98 818.191 1779.66 816.327L1781.97 818.596C1779.64 821.082 1777.62 822.899 1775.89 824.047 1774.16 825.195 1772.19 825.77 1769.97 825.77 1768.22 825.77 1766.81 825.141 1765.76 823.885 1764.7 822.629 1764.18 821.028 1764.18 819.083 1764.18 817.326 1764.62 814.746 1765.51 811.342L1767.3 804.331C1767.94 801.791 1768.37 799.913 1768.57 798.697 1768.78 797.482 1768.88 796.495 1768.88 795.739 1768.88 793.875 1768.57 792.53 1767.94 791.706 1767.32 790.882 1766.31 790.47 1764.91 790.47 1763.77 790.47 1762.55 790.923 1761.24 791.828 1759.93 792.733 1758.54 794.098 1757.06 795.921 1755.59 797.745 1754.41 799.515 1753.52 801.23 1752.63 802.946 1751.9 805.06 1751.33 807.573L1747.48 825.121 1740.47 825.121 1746.38 799.427C1746.98 796.833 1747.28 794.834 1747.28 793.429 1747.28 792.348 1747.1 791.565 1746.75 791.078 1746.4 790.592 1745.84 790.349 1745.09 790.349 1744.25 790.349 1743.37 790.693 1742.43 791.382 1741.5 792.071 1740.22 793.321 1738.6 795.131L1736.29 792.861C1738.78 790.268 1740.85 788.424 1742.49 787.329 1744.14 786.235 1746.01 785.688 1748.09 785.688Z" fill-rule="evenodd"/><text fill="#000000" fill-opacity="0" font-family="Arial,Arial_MSFontService,sans-serif" font-size="40.0815" x="1736.29" y="820.759">𝑛</text><path d="M1802.08 756.345C1804.14 756.345 1805.9 756.579 1807.36 757.045 1808.82 757.512 1810.01 758.142 1810.92 758.937 1811.83 759.731 1812.49 760.684 1812.9 761.796 1813.31 762.908 1813.51 764.109 1813.51 765.4 1813.51 766.174 1813.46 766.894 1813.35 767.559 1813.24 768.225 1813.05 768.88 1812.78 769.525 1812.51 770.171 1812.16 770.821 1811.73 771.476 1811.29 772.131 1810.74 772.826 1810.09 773.561 1809.59 774.197 1808.95 774.931 1808.15 775.765 1807.36 776.599 1806.49 777.493 1805.55 778.446 1804.6 779.399 1803.61 780.392 1802.58 781.424 1801.55 782.457 1800.55 783.48 1799.57 784.492 1798.6 785.505 1797.71 786.488 1796.89 787.441 1796.08 788.394 1795.41 789.268 1794.9 790.062L1805.92 790.062C1806.85 790.062 1807.6 790.027 1808.15 789.958 1808.71 789.888 1809.17 789.734 1809.54 789.496 1809.9 789.258 1810.22 788.896 1810.47 788.409 1810.73 787.922 1811.03 787.252 1811.37 786.398L1814.14 786.398C1814.04 787.808 1813.94 789.228 1813.86 790.658 1813.77 792.087 1813.67 793.507 1813.57 794.917L1788.34 794.917 1788.34 793.368C1788.82 792.296 1789.38 791.239 1790.01 790.196 1790.65 789.154 1791.36 788.096 1792.16 787.024 1792.95 785.952 1793.85 784.845 1794.87 783.703 1795.88 782.561 1797 781.375 1798.23 780.144 1800.1 778.277 1801.62 776.684 1802.79 775.363 1803.96 774.043 1804.88 772.866 1805.56 771.834 1806.24 770.801 1806.7 769.848 1806.94 768.974 1807.19 768.1 1807.32 767.167 1807.32 766.174 1807.32 765.162 1807.17 764.228 1806.89 763.375 1806.6 762.521 1806.19 761.796 1805.65 761.2 1805.11 760.605 1804.43 760.138 1803.61 759.8 1802.78 759.463 1801.84 759.294 1800.76 759.294 1798.92 759.294 1797.37 759.795 1796.12 760.798 1794.87 761.801 1793.89 763.255 1793.2 765.162L1789.3 765.162 1789.3 759.354C1791.84 758.301 1794.18 757.537 1796.31 757.06 1798.45 756.584 1800.37 756.345 1802.08 756.345Z" fill-rule="evenodd"/><text fill="#000000" fill-opacity="0" font-family="Arial,Arial_MSFontService,sans-serif" font-size="38.5718" x="1788.34" y="790.096">2</text><path d="M1221 1137C1221 1044.77 1295.54 970 1387.5 970 1479.46 970 1554 1044.77 1554 1137 1554 1229.23 1479.46 1304 1387.5 1304 1295.54 1304 1221 1229.23 1221 1137Z" fill="#FFFFFF" fill-rule="evenodd"/><path d="M1386.54 1071.25C1394.35 1077.36 1401.15 1087.35 1406.96 1101.22 1412.77 1115.1 1415.68 1132.42 1415.68 1153.2 1415.68 1174.03 1412.77 1191.38 1406.96 1205.26 1401.15 1219.13 1394.35 1229.12 1386.54 1235.23L1384.19 1232.51C1391.02 1226.19 1396.67 1216.36 1401.13 1203.01 1405.58 1189.66 1407.81 1173.07 1407.81 1153.24 1407.81 1133.41 1405.58 1116.82 1401.13 1103.47 1396.67 1090.13 1391.02 1080.29 1384.19 1073.97ZM1327.84 1071.25 1330.19 1073.97C1323.35 1080.29 1317.71 1090.13 1313.25 1103.47 1308.79 1116.82 1306.56 1133.41 1306.56 1153.24 1306.56 1173.07 1308.79 1189.66 1313.25 1203.01 1317.71 1216.36 1323.35 1226.19 1330.19 1232.51L1327.84 1235.23C1320.03 1229.12 1313.22 1219.13 1307.41 1205.26 1301.6 1191.38 1298.7 1174.03 1298.7 1153.2 1298.7 1132.42 1301.6 1115.1 1307.41 1101.22 1313.22 1087.35 1320.03 1077.36 1327.84 1071.25Z" fill-rule="evenodd"/><path d="M1345.35 1075.07C1347.05 1075.07 1348.39 1075.63 1349.38 1076.75 1350.36 1077.87 1350.86 1079.34 1350.86 1081.15 1350.86 1082.58 1350.53 1084.17 1349.88 1085.93L1350.37 1086.09C1353.02 1082.36 1355.54 1079.6 1357.93 1077.8 1360.32 1076.01 1362.79 1075.11 1365.33 1075.11 1367.84 1075.11 1369.77 1075.83 1371.12 1077.28 1372.47 1078.72 1373.15 1080.73 1373.15 1083.3 1373.15 1085 1372.76 1087.42 1371.97 1090.55L1369.34 1101.17C1368.61 1104.11 1368.24 1106.19 1368.24 1107.41 1368.24 1108.49 1368.42 1109.27 1368.77 1109.76 1369.12 1110.25 1369.68 1110.49 1370.43 1110.49 1371.24 1110.49 1372.11 1110.16 1373.03 1109.5 1373.94 1108.84 1375.24 1107.57 1376.92 1105.71L1379.23 1107.98C1376.9 1110.46 1374.88 1112.28 1373.15 1113.43 1371.42 1114.58 1369.45 1115.15 1367.23 1115.15 1365.47 1115.15 1364.07 1114.52 1363.02 1113.27 1361.96 1112.01 1361.43 1110.41 1361.43 1108.46 1361.43 1106.71 1361.88 1104.13 1362.77 1100.72L1364.56 1093.71C1365.2 1091.17 1365.63 1089.29 1365.83 1088.08 1366.03 1086.86 1366.14 1085.88 1366.14 1085.12 1366.14 1083.26 1365.83 1081.91 1365.2 1081.09 1364.58 1080.26 1363.57 1079.85 1362.16 1079.85 1361.03 1079.85 1359.81 1080.3 1358.5 1081.21 1357.19 1082.11 1355.79 1083.48 1354.32 1085.3 1352.85 1087.13 1351.67 1088.9 1350.78 1090.61 1349.88 1092.33 1349.15 1094.44 1348.59 1096.95L1344.74 1114.5 1337.73 1114.5 1343.64 1088.81C1344.24 1086.21 1344.53 1084.21 1344.53 1082.81 1344.53 1081.73 1344.36 1080.95 1344.01 1080.46 1343.66 1079.97 1343.1 1079.73 1342.35 1079.73 1341.51 1079.73 1340.62 1080.07 1339.69 1080.76 1338.76 1081.45 1337.48 1082.7 1335.86 1084.51L1333.55 1082.24C1336.04 1079.65 1338.1 1077.8 1339.75 1076.71 1341.4 1075.62 1343.26 1075.07 1345.35 1075.07Z" fill-rule="evenodd"/><text fill="#000000" fill-opacity="0" font-family="Arial,Arial_MSFontService,sans-serif" font-size="40.0815" x="1333.55" y="1110.14">𝑛</text><path d="M1359.79 1185.69 1343.95 1210.86 1343.95 1211.42 1359.79 1211.42 1359.79 1201.33C1359.79 1198.79 1359.83 1195.95 1359.91 1192.8 1359.99 1189.65 1360.09 1187.28 1360.2 1185.69ZM1360.97 1176.53 1366.76 1176.53 1366.76 1211.42 1367.61 1211.42C1369.18 1211.42 1370.3 1211.31 1370.98 1211.08 1371.65 1210.85 1372.21 1210.44 1372.66 1209.86 1373.1 1209.28 1373.52 1208.33 1373.89 1207.01L1376.97 1207.01 1376.49 1215.36 1366.76 1215.36 1366.76 1222C1366.76 1223.81 1366.82 1225.14 1366.94 1225.97 1367.07 1226.81 1367.27 1227.47 1367.55 1227.96 1367.84 1228.45 1368.25 1228.85 1368.81 1229.17 1369.36 1229.5 1370.26 1229.82 1371.5 1230.15L1371.5 1232.13 1355.05 1232.13 1355.05 1230.15C1356.72 1229.72 1357.85 1229.24 1358.41 1228.71 1358.98 1228.18 1359.35 1227.43 1359.53 1226.46 1359.7 1225.49 1359.79 1224 1359.79 1222L1359.79 1215.36 1337.26 1215.36 1337.26 1212.32Z" fill-rule="evenodd"/><text fill="#000000" fill-opacity="0" font-family="Arial,Arial_MSFontService,sans-serif" font-size="55.6035" x="1337.26" y="1225.18">4</text><path d="M1332.47 1150.95 1356.97 1150.95 1381.47 1150.95 1381.47 1155.95 1356.97 1155.95 1332.47 1155.95Z" fill-rule="evenodd"/><path d="M1440.1 1051.87C1442.17 1051.87 1443.93 1052.1 1445.39 1052.57 1446.85 1053.03 1448.04 1053.66 1448.95 1054.46 1449.86 1055.25 1450.52 1056.21 1450.93 1057.32 1451.34 1058.43 1451.54 1059.63 1451.54 1060.92 1451.54 1061.7 1451.49 1062.42 1451.38 1063.08 1451.27 1063.75 1451.08 1064.4 1450.81 1065.05 1450.54 1065.69 1450.19 1066.34 1449.75 1067 1449.32 1067.65 1448.77 1068.35 1448.11 1069.08 1447.62 1069.72 1446.97 1070.45 1446.18 1071.29 1445.38 1072.12 1444.52 1073.02 1443.57 1073.97 1442.63 1074.92 1441.64 1075.91 1440.61 1076.95 1439.58 1077.98 1438.57 1079 1437.6 1080.01 1436.63 1081.03 1435.73 1082.01 1434.92 1082.96 1434.11 1083.92 1433.44 1084.79 1432.92 1085.58L1443.94 1085.58C1444.88 1085.58 1445.62 1085.55 1446.18 1085.48 1446.73 1085.41 1447.2 1085.26 1447.56 1085.02 1447.93 1084.78 1448.24 1084.42 1448.5 1083.93 1448.76 1083.45 1449.06 1082.78 1449.4 1081.92L1452.17 1081.92C1452.07 1083.33 1451.97 1084.75 1451.88 1086.18 1451.79 1087.61 1451.7 1089.03 1451.6 1090.44L1426.37 1090.44 1426.37 1088.89C1426.85 1087.82 1427.4 1086.76 1428.04 1085.72 1428.67 1084.68 1429.39 1083.62 1430.18 1082.55 1430.98 1081.47 1431.88 1080.37 1432.89 1079.23 1433.91 1078.08 1435.03 1076.9 1436.26 1075.67 1438.13 1073.8 1439.65 1072.21 1440.82 1070.89 1441.99 1069.57 1442.91 1068.39 1443.59 1067.36 1444.26 1066.32 1444.72 1065.37 1444.97 1064.5 1445.22 1063.62 1445.34 1062.69 1445.34 1061.7 1445.34 1060.68 1445.2 1059.75 1444.91 1058.9 1444.62 1058.04 1444.21 1057.32 1443.68 1056.72 1443.14 1056.13 1442.46 1055.66 1441.64 1055.32 1440.81 1054.99 1439.86 1054.82 1438.79 1054.82 1436.95 1054.82 1435.4 1055.32 1434.15 1056.32 1432.89 1057.32 1431.92 1058.78 1431.23 1060.68L1427.32 1060.68 1427.32 1054.88C1429.87 1053.82 1432.2 1053.06 1434.34 1052.58 1436.47 1052.11 1438.39 1051.87 1440.1 1051.87Z" fill-rule="evenodd"/><text fill="#000000" fill-opacity="0" font-family="Arial,Arial_MSFontService,sans-serif" font-size="38.5718" x="1426.37" y="1085.62">2</text><path d="M2033 1137C2033 1044.77 2107.77 970 2200 970 2292.23 970 2367 1044.77 2367 1137 2367 1229.23 2292.23 1304 2200 1304 2107.77 1304 2033 1229.23 2033 1137Z" fill="#FFFFFF" fill-rule="evenodd"/><path d="M2199.12 1071.25C2206.93 1077.36 2213.73 1087.35 2219.54 1101.22 2225.35 1115.1 2228.26 1132.42 2228.26 1153.2 2228.26 1174.03 2225.35 1191.38 2219.54 1205.26 2213.73 1219.13 2206.93 1229.12 2199.12 1235.23L2196.77 1232.51C2203.6 1226.19 2209.25 1216.36 2213.71 1203.01 2218.17 1189.66 2220.39 1173.07 2220.39 1153.24 2220.39 1133.41 2218.17 1116.82 2213.71 1103.47 2209.25 1090.13 2203.6 1080.29 2196.77 1073.97ZM2140.42 1071.25 2142.77 1073.97C2135.94 1080.29 2130.29 1090.13 2125.83 1103.47 2121.37 1116.82 2119.14 1133.41 2119.14 1153.24 2119.14 1173.07 2121.37 1189.66 2125.83 1203.01 2130.29 1216.36 2135.94 1226.19 2142.77 1232.51L2140.42 1235.23C2132.61 1229.12 2125.8 1219.13 2119.99 1205.26 2114.19 1191.38 2111.28 1174.03 2111.28 1153.2 2111.28 1132.42 2114.19 1115.1 2119.99 1101.22 2125.8 1087.35 2132.61 1077.36 2140.42 1071.25Z" fill-rule="evenodd"/><path d="M2157.93 1075.07C2159.63 1075.07 2160.97 1075.63 2161.96 1076.75 2162.94 1077.87 2163.44 1079.34 2163.44 1081.15 2163.44 1082.58 2163.11 1084.17 2162.47 1085.93L2162.95 1086.09C2165.6 1082.36 2168.12 1079.6 2170.51 1077.8 2172.9 1076.01 2175.37 1075.11 2177.91 1075.11 2180.42 1075.11 2182.35 1075.83 2183.7 1077.28 2185.05 1078.72 2185.73 1080.73 2185.73 1083.3 2185.73 1085 2185.34 1087.42 2184.55 1090.55L2181.92 1101.17C2181.19 1104.11 2180.82 1106.19 2180.82 1107.41 2180.82 1108.49 2181 1109.27 2181.35 1109.76 2181.7 1110.25 2182.26 1110.49 2183.01 1110.49 2183.82 1110.49 2184.69 1110.16 2185.61 1109.5 2186.53 1108.84 2187.82 1107.57 2189.5 1105.71L2191.81 1107.98C2189.48 1110.46 2187.46 1112.28 2185.73 1113.43 2184 1114.58 2182.03 1115.15 2179.81 1115.15 2178.05 1115.15 2176.65 1114.52 2175.6 1113.27 2174.54 1112.01 2174.02 1110.41 2174.02 1108.46 2174.02 1106.71 2174.46 1104.13 2175.35 1100.72L2177.14 1093.71C2177.78 1091.17 2178.21 1089.29 2178.41 1088.08 2178.62 1086.86 2178.72 1085.88 2178.72 1085.12 2178.72 1083.26 2178.41 1081.91 2177.78 1081.09 2177.16 1080.26 2176.15 1079.85 2174.75 1079.85 2173.61 1079.85 2172.39 1080.3 2171.08 1081.21 2169.77 1082.11 2168.38 1083.48 2166.9 1085.3 2165.43 1087.13 2164.25 1088.9 2163.36 1090.61 2162.47 1092.33 2161.74 1094.44 2161.17 1096.95L2157.32 1114.5 2150.31 1114.5 2156.22 1088.81C2156.82 1086.21 2157.12 1084.21 2157.12 1082.81 2157.12 1081.73 2156.94 1080.95 2156.59 1080.46 2156.24 1079.97 2155.68 1079.73 2154.93 1079.73 2154.09 1079.73 2153.2 1080.07 2152.27 1080.76 2151.34 1081.45 2150.06 1082.7 2148.44 1084.51L2146.13 1082.24C2148.62 1079.65 2150.69 1077.8 2152.33 1076.71 2153.98 1075.62 2155.85 1075.07 2157.93 1075.07Z" fill-rule="evenodd"/><text fill="#000000" fill-opacity="0" font-family="Arial,Arial_MSFontService,sans-serif" font-size="40.0815" x="2146.13" y="1110.14">𝑛</text><path d="M2170.02 1176.17C2175.05 1176.17 2178.84 1177.27 2181.41 1179.47 2183.98 1181.67 2185.26 1184.86 2185.26 1189.05 2185.26 1190.48 2185.12 1191.8 2184.83 1193 2184.55 1194.21 2184.1 1195.4 2183.5 1196.57 2182.89 1197.75 2182.07 1199.01 2181.05 1200.36 2180.02 1201.71 2178.88 1203.08 2177.64 1204.47 2176.4 1205.86 2174.25 1208.18 2171.2 1211.42 2166.06 1216.85 2162.29 1221.6 2159.89 1225.65L2175.17 1225.65C2176.49 1225.65 2177.56 1225.57 2178.37 1225.41 2179.18 1225.24 2179.83 1224.97 2180.32 1224.6 2180.8 1224.22 2181.19 1223.72 2181.47 1223.12 2181.75 1222.51 2182.11 1221.57 2182.54 1220.3L2185.99 1220.3 2185.3 1232.13 2151.95 1232.13 2151.95 1230.19C2153.11 1227.35 2154.68 1224.45 2156.65 1221.47 2158.62 1218.5 2161.42 1215 2165.04 1210.98 2168.17 1207.52 2170.43 1204.9 2171.8 1203.12 2173.32 1201.17 2174.45 1199.49 2175.19 1198.07 2175.93 1196.65 2176.47 1195.31 2176.79 1194.06 2177.11 1192.8 2177.28 1191.54 2177.28 1190.27 2177.28 1188.24 2176.95 1186.45 2176.3 1184.9 2175.66 1183.35 2174.66 1182.12 2173.32 1181.23 2171.99 1180.34 2170.31 1179.89 2168.28 1179.89 2163.23 1179.89 2159.82 1182.7 2158.07 1188.32L2153.16 1188.32 2153.16 1180.54C2156.43 1179 2159.49 1177.89 2162.34 1177.2 2165.19 1176.51 2167.75 1176.17 2170.02 1176.17Z" fill-rule="evenodd"/><text fill="#000000" fill-opacity="0" font-family="Arial,Arial_MSFontService,sans-serif" font-size="55.9683" x="2151.95" y="1225.14">2</text><path d="M2145.05 1150.95 2169.55 1150.95 2194.05 1150.95 2194.05 1155.95 2169.55 1155.95 2145.05 1155.95Z" fill-rule="evenodd"/><path d="M2252.68 1051.87C2254.75 1051.87 2256.51 1052.1 2257.97 1052.57 2259.43 1053.03 2260.62 1053.66 2261.53 1054.46 2262.44 1055.25 2263.1 1056.21 2263.51 1057.32 2263.92 1058.43 2264.12 1059.63 2264.12 1060.92 2264.12 1061.7 2264.07 1062.42 2263.96 1063.08 2263.85 1063.75 2263.66 1064.4 2263.39 1065.05 2263.12 1065.69 2262.77 1066.34 2262.33 1067 2261.9 1067.65 2261.35 1068.35 2260.7 1069.08 2260.2 1069.72 2259.55 1070.45 2258.76 1071.29 2257.97 1072.12 2257.1 1073.02 2256.15 1073.97 2255.21 1074.92 2254.22 1075.91 2253.19 1076.95 2252.16 1077.98 2251.15 1079 2250.18 1080.01 2249.21 1081.03 2248.32 1082.01 2247.5 1082.96 2246.69 1083.92 2246.02 1084.79 2245.51 1085.58L2256.53 1085.58C2257.46 1085.58 2258.2 1085.55 2258.76 1085.48 2259.32 1085.41 2259.78 1085.26 2260.14 1085.02 2260.51 1084.78 2260.82 1084.42 2261.08 1083.93 2261.34 1083.45 2261.64 1082.78 2261.98 1081.92L2264.75 1081.92C2264.65 1083.33 2264.55 1084.75 2264.46 1086.18 2264.37 1087.61 2264.28 1089.03 2264.18 1090.44L2238.95 1090.44 2238.95 1088.89C2239.43 1087.82 2239.99 1086.76 2240.62 1085.72 2241.26 1084.68 2241.97 1083.62 2242.77 1082.55 2243.56 1081.47 2244.46 1080.37 2245.48 1079.23 2246.49 1078.08 2247.61 1076.9 2248.84 1075.67 2250.71 1073.8 2252.23 1072.21 2253.4 1070.89 2254.57 1069.57 2255.49 1068.39 2256.17 1067.36 2256.84 1066.32 2257.31 1065.37 2257.55 1064.5 2257.8 1063.62 2257.93 1062.69 2257.93 1061.7 2257.93 1060.68 2257.78 1059.75 2257.49 1058.9 2257.21 1058.04 2256.79 1057.32 2256.26 1056.72 2255.72 1056.13 2255.04 1055.66 2254.22 1055.32 2253.39 1054.99 2252.45 1054.82 2251.37 1054.82 2249.53 1054.82 2247.98 1055.32 2246.73 1056.32 2245.48 1057.32 2244.5 1058.78 2243.81 1060.68L2239.91 1060.68 2239.91 1054.88C2242.45 1053.82 2244.79 1053.06 2246.92 1052.58 2249.05 1052.11 2250.98 1051.87 2252.68 1051.87Z" fill-rule="evenodd"/><text fill="#000000" fill-opacity="0" font-family="Arial,Arial_MSFontService,sans-serif" font-size="38.5718" x="2238.95" y="1085.62">2</text><path d="M962 1614.5C962 1522.54 1036.54 1448 1128.5 1448 1220.46 1448 1295 1522.54 1295 1614.5 1295 1706.46 1220.46 1781 1128.5 1781 1036.54 1781 962 1706.46 962 1614.5Z" fill="#FFFFFF" fill-rule="evenodd"/><path d="M1148.85 1548.51C1156.66 1554.62 1163.47 1564.61 1169.28 1578.48 1175.09 1592.36 1177.99 1609.68 1177.99 1630.46 1177.99 1651.29 1175.09 1668.64 1169.28 1682.52 1163.47 1696.39 1156.66 1706.38 1148.85 1712.49L1146.5 1709.77C1153.34 1703.45 1158.98 1693.61 1163.44 1680.27 1167.9 1666.92 1170.13 1650.33 1170.13 1630.5 1170.13 1610.67 1167.9 1594.08 1163.44 1580.73 1158.98 1567.38 1153.34 1557.55 1146.5 1551.23ZM1047.46 1548.51 1049.81 1551.23C1042.98 1557.55 1037.33 1567.38 1032.87 1580.73 1028.41 1594.08 1026.18 1610.67 1026.18 1630.5 1026.18 1650.33 1028.41 1666.92 1032.87 1680.27 1037.33 1693.61 1042.98 1703.45 1049.81 1709.77L1047.46 1712.49C1039.65 1706.38 1032.84 1696.39 1027.04 1682.52 1021.23 1668.64 1018.32 1651.29 1018.32 1630.46 1018.32 1609.68 1021.23 1592.36 1027.04 1578.48 1032.84 1564.61 1039.65 1554.62 1047.46 1548.51Z" fill-rule="evenodd"/><path d="M1086.3 1552.33C1088 1552.33 1089.35 1552.89 1090.33 1554.01 1091.32 1555.13 1091.81 1556.6 1091.81 1558.41 1091.81 1559.84 1091.49 1561.43 1090.84 1563.19L1091.33 1563.35C1093.98 1559.62 1096.49 1556.86 1098.89 1555.06 1101.28 1553.27 1103.74 1552.37 1106.28 1552.37 1108.8 1552.37 1110.73 1553.09 1112.08 1554.54 1113.43 1555.98 1114.1 1557.99 1114.1 1560.55 1114.1 1562.26 1113.71 1564.67 1112.93 1567.81L1110.29 1578.43C1109.57 1581.37 1109.2 1583.45 1109.2 1584.67 1109.2 1585.75 1109.38 1586.53 1109.73 1587.02 1110.08 1587.5 1110.63 1587.75 1111.39 1587.75 1112.2 1587.75 1113.06 1587.42 1113.98 1586.75 1114.9 1586.09 1116.2 1584.83 1117.87 1582.97L1120.18 1585.24C1117.86 1587.72 1115.83 1589.54 1114.1 1590.69 1112.38 1591.83 1110.4 1592.41 1108.19 1592.41 1106.43 1592.41 1105.03 1591.78 1103.97 1590.52 1102.92 1589.27 1102.39 1587.67 1102.39 1585.72 1102.39 1583.97 1102.84 1581.39 1103.73 1577.98L1105.51 1570.97C1106.16 1568.43 1106.59 1566.55 1106.79 1565.34 1106.99 1564.12 1107.09 1563.13 1107.09 1562.38 1107.09 1560.51 1106.78 1559.17 1106.16 1558.35 1105.54 1557.52 1104.53 1557.11 1103.12 1557.11 1101.99 1557.11 1100.76 1557.56 1099.45 1558.47 1098.14 1559.37 1096.75 1560.74 1095.28 1562.56 1093.81 1564.38 1092.62 1566.15 1091.73 1567.87 1090.84 1569.58 1090.11 1571.7 1089.54 1574.21L1085.69 1591.76 1078.68 1591.76 1084.6 1566.07C1085.19 1563.47 1085.49 1561.47 1085.49 1560.07 1085.49 1558.99 1085.32 1558.2 1084.96 1557.72 1084.61 1557.23 1084.06 1556.99 1083.3 1556.99 1082.47 1556.99 1081.58 1557.33 1080.65 1558.02 1079.72 1558.71 1078.44 1559.96 1076.82 1561.77L1074.51 1559.5C1076.99 1556.91 1079.06 1555.06 1080.71 1553.97 1082.36 1552.87 1084.22 1552.33 1086.3 1552.33Z" fill-rule="evenodd"/><text fill="#000000" fill-opacity="0" font-family="Arial,Arial_MSFontService,sans-serif" font-size="40.0815" x="1074.51" y="1587.4">𝑛</text><path d="M1123.04 1680.21C1121.72 1680.21 1120.44 1680.36 1119.21 1680.66 1117.98 1680.95 1116.83 1681.39 1115.75 1681.95 1114.67 1682.52 1113.61 1683.24 1112.59 1684.1 1112.26 1684.4 1112.02 1684.71 1111.86 1685.03 1111.59 1685.55 1111.41 1686.18 1111.33 1686.94 1111.25 1687.7 1111.21 1688.97 1111.21 1690.75 1111.21 1695.91 1112.07 1699.84 1113.8 1702.54 1115.53 1705.24 1118.15 1706.59 1121.67 1706.59 1123.69 1706.59 1125.39 1706.24 1126.77 1705.54 1128.15 1704.84 1129.27 1703.87 1130.12 1702.64 1130.97 1701.41 1131.58 1699.97 1131.94 1698.31 1132.3 1696.65 1132.49 1694.84 1132.49 1692.9 1132.49 1688.9 1131.66 1685.78 1130.01 1683.56 1128.37 1681.33 1126.04 1680.21 1123.04 1680.21ZM1133.46 1653.42 1135.12 1655.65 1135.12 1657.64C1130.96 1657.64 1127.27 1658.53 1124.06 1660.31 1120.84 1662.1 1118.17 1664.72 1116.05 1668.17 1113.93 1671.63 1112.44 1675.74 1111.57 1680.5L1111.98 1680.66C1114.25 1679.04 1116.49 1677.85 1118.69 1677.09 1120.89 1676.33 1123.27 1675.96 1125.84 1675.96 1128.89 1675.96 1131.49 1676.62 1133.64 1677.96 1135.79 1679.3 1137.4 1681.18 1138.48 1683.6 1139.57 1686.01 1140.11 1688.84 1140.11 1692.09 1140.11 1695.6 1139.43 1698.7 1138.08 1701.39 1136.73 1704.08 1134.64 1706.19 1131.82 1707.73 1128.99 1709.27 1125.52 1710.04 1121.38 1710.04 1115.47 1710.04 1111 1708.2 1107.99 1704.53 1104.98 1700.85 1103.47 1695.44 1103.47 1688.28 1103.47 1683.47 1104.23 1678.97 1105.74 1674.78 1107.25 1670.59 1109.4 1666.94 1112.18 1663.82 1114.97 1660.7 1118.19 1658.24 1121.87 1656.44 1125.54 1654.65 1129.41 1653.64 1133.46 1653.42ZM1078.38 1653.42 1080.61 1653.42C1080.45 1656.02 1080.37 1659.61 1080.37 1664.2L1080.37 1698.81C1080.37 1700.38 1080.46 1701.56 1080.63 1702.36 1080.81 1703.16 1081.12 1703.81 1081.56 1704.31 1082.01 1704.8 1082.65 1705.2 1083.49 1705.48 1084.33 1705.76 1085.38 1705.98 1086.65 1706.13 1087.92 1706.28 1089.59 1706.38 1091.67 1706.43L1091.67 1709.39 1061.72 1709.39 1061.72 1706.43C1064.72 1706.3 1066.86 1706.12 1068.15 1705.89 1069.43 1705.66 1070.41 1705.31 1071.09 1704.85 1071.76 1704.39 1072.26 1703.74 1072.57 1702.91 1072.88 1702.07 1073.03 1700.7 1073.03 1698.81L1073.03 1665.95C1073.03 1664.87 1072.84 1664.07 1072.46 1663.58 1072.09 1663.08 1071.53 1662.83 1070.8 1662.83 1069.94 1662.83 1068.71 1663.27 1067.11 1664.16 1065.52 1665.05 1063.55 1666.28 1061.2 1667.85L1059.41 1664.73Z" fill-rule="evenodd"/><text fill="#000000" fill-opacity="0" font-family="Arial,Arial_MSFontService,sans-serif" font-size="56.6167" x="1059.41" y="1702.96">16</text><path d="M1052.43 1628.21 1083.1 1628.21 1113.77 1628.21 1144.43 1628.21 1144.43 1633.21 1113.77 1633.21 1083.1 1633.21 1052.43 1633.21Z" fill-rule="evenodd"/><path d="M1202.42 1529.13C1204.48 1529.13 1206.25 1529.36 1207.7 1529.83 1209.16 1530.29 1210.35 1530.92 1211.26 1531.72 1212.18 1532.51 1212.84 1533.46 1213.24 1534.58 1213.65 1535.69 1213.86 1536.89 1213.86 1538.18 1213.86 1538.95 1213.8 1539.67 1213.69 1540.34 1213.58 1541.01 1213.39 1541.66 1213.13 1542.31 1212.86 1542.95 1212.51 1543.6 1212.07 1544.26 1211.63 1544.91 1211.09 1545.61 1210.43 1546.34 1209.93 1546.98 1209.29 1547.71 1208.49 1548.55 1207.7 1549.38 1206.83 1550.27 1205.89 1551.23 1204.94 1552.18 1203.96 1553.17 1202.92 1554.2 1201.89 1555.24 1200.89 1556.26 1199.92 1557.27 1198.94 1558.29 1198.05 1559.27 1197.24 1560.22 1196.42 1561.17 1195.76 1562.05 1195.24 1562.84L1206.26 1562.84C1207.19 1562.84 1207.94 1562.81 1208.49 1562.74 1209.05 1562.67 1209.51 1562.51 1209.88 1562.28 1210.25 1562.04 1210.56 1561.68 1210.82 1561.19 1211.08 1560.7 1211.37 1560.03 1211.71 1559.18L1214.48 1559.18C1214.38 1560.59 1214.29 1562.01 1214.2 1563.44 1214.11 1564.87 1214.01 1566.29 1213.92 1567.7L1188.69 1567.7 1188.69 1566.15C1189.16 1565.08 1189.72 1564.02 1190.35 1562.98 1190.99 1561.93 1191.71 1560.88 1192.5 1559.8 1193.29 1558.73 1194.2 1557.63 1195.21 1556.48 1196.22 1555.34 1197.34 1554.16 1198.58 1552.92 1200.44 1551.06 1201.96 1549.46 1203.13 1548.14 1204.3 1546.82 1205.23 1545.65 1205.9 1544.61 1206.58 1543.58 1207.04 1542.63 1207.29 1541.75 1207.54 1540.88 1207.66 1539.95 1207.66 1538.95 1207.66 1537.94 1207.52 1537.01 1207.23 1536.16 1206.94 1535.3 1206.53 1534.58 1205.99 1533.98 1205.46 1533.39 1204.78 1532.92 1203.95 1532.58 1203.13 1532.24 1202.18 1532.07 1201.11 1532.07 1199.26 1532.07 1197.71 1532.58 1196.46 1533.58 1195.21 1534.58 1194.24 1536.04 1193.54 1537.94L1189.64 1537.94 1189.64 1532.13C1192.18 1531.08 1194.52 1530.32 1196.65 1529.84 1198.79 1529.36 1200.71 1529.13 1202.42 1529.13Z" fill-rule="evenodd"/><text fill="#000000" fill-opacity="0" font-family="Arial,Arial_MSFontService,sans-serif" font-size="38.5718" x="1188.69" y="1562.88">2</text><path d="M1430 1614.5C1430 1522.54 1504.77 1448 1597 1448 1689.23 1448 1764 1522.54 1764 1614.5 1764 1706.46 1689.23 1781 1597 1781 1504.77 1781 1430 1706.46 1430 1614.5Z" fill="#FFFFFF" fill-rule="evenodd"/><path d="M1595.89 1548.51C1603.7 1554.62 1610.51 1564.61 1616.32 1578.48 1622.13 1592.36 1625.03 1609.68 1625.03 1630.46 1625.03 1651.29 1622.13 1668.64 1616.32 1682.52 1610.51 1696.39 1603.7 1706.38 1595.89 1712.49L1593.54 1709.77C1600.38 1703.45 1606.02 1693.61 1610.48 1680.27 1614.94 1666.92 1617.17 1650.33 1617.17 1630.5 1617.17 1610.67 1614.94 1594.08 1610.48 1580.73 1606.02 1567.38 1600.38 1557.55 1593.54 1551.23ZM1537.19 1548.51 1539.55 1551.23C1532.71 1557.55 1527.06 1567.38 1522.6 1580.73 1518.15 1594.08 1515.92 1610.67 1515.92 1630.5 1515.92 1650.33 1518.15 1666.92 1522.6 1680.27 1527.06 1693.61 1532.71 1703.45 1539.55 1709.77L1537.19 1712.49C1529.39 1706.38 1522.58 1696.39 1516.77 1682.52 1510.96 1668.64 1508.06 1651.29 1508.06 1630.46 1508.06 1609.68 1510.96 1592.36 1516.77 1578.48 1522.58 1564.61 1529.39 1554.62 1537.19 1548.51Z" fill-rule="evenodd"/><path d="M1554.7 1552.33C1556.4 1552.33 1557.75 1552.89 1558.73 1554.01 1559.72 1555.13 1560.21 1556.6 1560.21 1558.41 1560.21 1559.84 1559.89 1561.43 1559.24 1563.19L1559.73 1563.35C1562.37 1559.62 1564.89 1556.86 1567.28 1555.06 1569.68 1553.27 1572.14 1552.37 1574.68 1552.37 1577.19 1552.37 1579.13 1553.09 1580.48 1554.54 1581.83 1555.98 1582.5 1557.99 1582.5 1560.55 1582.5 1562.26 1582.11 1564.67 1581.33 1567.81L1578.69 1578.43C1577.96 1581.37 1577.6 1583.45 1577.6 1584.67 1577.6 1585.75 1577.77 1586.53 1578.13 1587.02 1578.48 1587.5 1579.03 1587.75 1579.79 1587.75 1580.6 1587.75 1581.46 1587.42 1582.38 1586.75 1583.3 1586.09 1584.6 1584.83 1586.27 1582.97L1588.58 1585.24C1586.26 1587.72 1584.23 1589.54 1582.5 1590.69 1580.77 1591.83 1578.8 1592.41 1576.59 1592.41 1574.83 1592.41 1573.42 1591.78 1572.37 1590.52 1571.32 1589.27 1570.79 1587.67 1570.79 1585.72 1570.79 1583.97 1571.24 1581.39 1572.13 1577.98L1573.91 1570.97C1574.56 1568.43 1574.98 1566.55 1575.19 1565.34 1575.39 1564.12 1575.49 1563.13 1575.49 1562.38 1575.49 1560.51 1575.18 1559.17 1574.56 1558.35 1573.94 1557.52 1572.92 1557.11 1571.52 1557.11 1570.38 1557.11 1569.16 1557.56 1567.85 1558.47 1566.54 1559.37 1565.15 1560.74 1563.68 1562.56 1562.21 1564.38 1561.02 1566.15 1560.13 1567.87 1559.24 1569.58 1558.51 1571.7 1557.94 1574.21L1554.09 1591.76 1547.08 1591.76 1553 1566.07C1553.59 1563.47 1553.89 1561.47 1553.89 1560.07 1553.89 1558.99 1553.71 1558.2 1553.36 1557.72 1553.01 1557.23 1552.46 1556.99 1551.7 1556.99 1550.86 1556.99 1549.98 1557.33 1549.05 1558.02 1548.12 1558.71 1546.84 1559.96 1545.22 1561.77L1542.91 1559.5C1545.39 1556.91 1547.46 1555.06 1549.11 1553.97 1550.76 1552.87 1552.62 1552.33 1554.7 1552.33Z" fill-rule="evenodd"/><text fill="#000000" fill-opacity="0" font-family="Arial,Arial_MSFontService,sans-serif" font-size="40.0815" x="1542.91" y="1587.4">𝑛</text><path d="M1566.47 1682.4C1564.47 1682.4 1562.79 1682.71 1561.43 1683.33 1560.06 1683.95 1558.95 1684.79 1558.1 1685.84 1557.25 1686.9 1556.64 1688.13 1556.28 1689.55 1555.91 1690.97 1555.73 1692.49 1555.73 1694.11 1555.73 1695.87 1555.93 1697.51 1556.34 1699.04 1556.75 1700.56 1557.39 1701.88 1558.27 1702.99 1559.14 1704.1 1560.27 1704.97 1561.65 1705.62 1563.03 1706.27 1564.7 1706.59 1566.67 1706.59 1568.89 1706.59 1570.79 1706.14 1572.37 1705.24 1573.95 1704.33 1575.15 1702.99 1575.98 1701.2 1576.8 1699.42 1577.21 1697.31 1577.21 1694.88 1577.21 1692.29 1576.77 1690.05 1575.87 1688.18 1574.98 1686.3 1573.73 1684.87 1572.11 1683.88 1570.48 1682.89 1568.61 1682.4 1566.47 1682.4ZM1566.67 1656.87C1563.27 1656.87 1560.67 1657.79 1558.87 1659.64 1557.08 1661.49 1556.18 1664.12 1556.18 1667.53 1556.18 1669.12 1556.37 1670.62 1556.75 1672.03 1557.12 1673.43 1557.73 1674.65 1558.57 1675.67 1559.41 1676.7 1560.49 1677.52 1561.83 1678.12 1563.17 1678.73 1564.81 1679.04 1566.76 1679.04 1569 1679.04 1570.88 1678.6 1572.41 1677.72 1573.94 1676.84 1575.07 1675.56 1575.81 1673.87 1576.56 1672.18 1576.93 1670.23 1576.93 1668.01 1576.93 1665.58 1576.49 1663.52 1575.61 1661.83 1574.73 1660.14 1573.52 1658.89 1571.98 1658.08 1570.44 1657.27 1568.67 1656.87 1566.67 1656.87ZM1566.76 1653.42C1570.65 1653.42 1573.92 1653.97 1576.56 1655.06 1579.21 1656.16 1581.2 1657.74 1582.54 1659.81 1583.88 1661.87 1584.55 1664.35 1584.55 1667.24 1584.55 1670.21 1583.82 1672.77 1582.36 1674.92 1580.9 1677.07 1578.64 1678.82 1575.59 1680.17L1575.67 1680.7C1578.72 1681.89 1581.03 1683.62 1582.6 1685.91 1584.17 1688.19 1584.95 1690.94 1584.95 1694.15 1584.95 1697.31 1584.2 1700.1 1582.68 1702.5 1581.17 1704.91 1578.97 1706.76 1576.1 1708.07 1573.22 1709.38 1569.86 1710.04 1566.03 1710.04 1562.43 1710.04 1559.28 1709.44 1556.56 1708.24 1553.85 1707.03 1551.74 1705.28 1550.24 1702.97 1548.74 1700.66 1547.99 1697.94 1547.99 1694.8 1547.99 1692.45 1548.4 1690.41 1549.21 1688.68 1550.02 1686.95 1551.08 1685.53 1552.39 1684.41 1553.7 1683.28 1555.35 1682.26 1557.35 1681.35L1557.27 1680.82C1551.46 1678.31 1548.56 1674 1548.56 1667.89 1548.56 1665.11 1549.32 1662.62 1550.85 1660.43 1552.38 1658.25 1554.55 1656.53 1557.37 1655.29 1560.2 1654.04 1563.32 1653.42 1566.76 1653.42Z" fill-rule="evenodd"/><text fill="#000000" fill-opacity="0" font-family="Arial,Arial_MSFontService,sans-serif" font-size="56.6167" x="1547.99" y="1702.96">8</text><path d="M1541.82 1628.21 1566.32 1628.21 1590.82 1628.21 1590.82 1633.21 1566.32 1633.21 1541.82 1633.21Z" fill-rule="evenodd"/><path d="M1649.46 1529.13C1651.52 1529.13 1653.29 1529.36 1654.74 1529.83 1656.2 1530.29 1657.39 1530.92 1658.3 1531.72 1659.22 1532.51 1659.88 1533.46 1660.28 1534.58 1660.69 1535.69 1660.9 1536.89 1660.9 1538.18 1660.9 1538.95 1660.84 1539.67 1660.73 1540.34 1660.62 1541.01 1660.43 1541.66 1660.17 1542.31 1659.9 1542.95 1659.55 1543.6 1659.11 1544.26 1658.67 1544.91 1658.13 1545.61 1657.47 1546.34 1656.97 1546.98 1656.33 1547.71 1655.53 1548.55 1654.74 1549.38 1653.87 1550.27 1652.93 1551.23 1651.98 1552.18 1651 1553.17 1649.96 1554.2 1648.93 1555.24 1647.93 1556.26 1646.96 1557.27 1645.98 1558.29 1645.09 1559.27 1644.28 1560.22 1643.46 1561.17 1642.8 1562.05 1642.28 1562.84L1653.3 1562.84C1654.23 1562.84 1654.98 1562.81 1655.53 1562.74 1656.09 1562.67 1656.55 1562.51 1656.92 1562.28 1657.29 1562.04 1657.6 1561.68 1657.86 1561.19 1658.12 1560.7 1658.41 1560.03 1658.75 1559.18L1661.52 1559.18C1661.42 1560.59 1661.33 1562.01 1661.24 1563.44 1661.15 1564.87 1661.05 1566.29 1660.96 1567.7L1635.73 1567.7 1635.73 1566.15C1636.2 1565.08 1636.76 1564.02 1637.4 1562.98 1638.03 1561.93 1638.75 1560.88 1639.54 1559.8 1640.33 1558.73 1641.24 1557.63 1642.25 1556.48 1643.26 1555.34 1644.38 1554.16 1645.62 1552.92 1647.48 1551.06 1649 1549.46 1650.17 1548.14 1651.34 1546.82 1652.27 1545.65 1652.94 1544.61 1653.62 1543.58 1654.08 1542.63 1654.33 1541.75 1654.58 1540.88 1654.7 1539.95 1654.7 1538.95 1654.7 1537.94 1654.56 1537.01 1654.27 1536.16 1653.98 1535.3 1653.57 1534.58 1653.03 1533.98 1652.5 1533.39 1651.82 1532.92 1650.99 1532.58 1650.17 1532.24 1649.22 1532.07 1648.15 1532.07 1646.3 1532.07 1644.75 1532.58 1643.5 1533.58 1642.25 1534.58 1641.28 1536.04 1640.58 1537.94L1636.68 1537.94 1636.68 1532.13C1639.22 1531.08 1641.56 1530.32 1643.69 1529.84 1645.83 1529.36 1647.75 1529.13 1649.46 1529.13Z" fill-rule="evenodd"/><text fill="#000000" fill-opacity="0" font-family="Arial,Arial_MSFontService,sans-serif" font-size="38.5718" x="1635.73" y="1562.88">2</text><path d="M2249 1614.5C2249 1522.54 2323.54 1448 2415.5 1448 2507.46 1448 2582 1522.54 2582 1614.5 2582 1706.46 2507.46 1781 2415.5 1781 2323.54 1781 2249 1706.46 2249 1614.5Z" fill="#FFFFFF" fill-rule="evenodd"/><path d="M2414.74 1548.51C2422.55 1554.62 2429.36 1564.61 2435.17 1578.48 2440.97 1592.36 2443.88 1609.68 2443.88 1630.46 2443.88 1651.29 2440.97 1668.64 2435.17 1682.52 2429.36 1696.39 2422.55 1706.38 2414.74 1712.49L2412.39 1709.77C2419.22 1703.45 2424.87 1693.61 2429.33 1680.27 2433.79 1666.92 2436.02 1650.33 2436.02 1630.5 2436.02 1610.67 2433.79 1594.08 2429.33 1580.73 2424.87 1567.38 2419.22 1557.55 2412.39 1551.23ZM2356.04 1548.51 2358.39 1551.23C2351.56 1557.55 2345.91 1567.38 2341.45 1580.73 2336.99 1594.08 2334.76 1610.67 2334.76 1630.5 2334.76 1650.33 2336.99 1666.92 2341.45 1680.27 2345.91 1693.61 2351.56 1703.45 2358.39 1709.77L2356.04 1712.49C2348.23 1706.38 2341.42 1696.39 2335.62 1682.52 2329.81 1668.64 2326.9 1651.29 2326.9 1630.46 2326.9 1609.68 2329.81 1592.36 2335.62 1578.48 2341.42 1564.61 2348.23 1554.62 2356.04 1548.51Z" fill-rule="evenodd"/><path d="M2373.55 1552.33C2375.25 1552.33 2376.59 1552.89 2377.58 1554.01 2378.57 1555.13 2379.06 1556.6 2379.06 1558.41 2379.06 1559.84 2378.74 1561.43 2378.09 1563.19L2378.57 1563.35C2381.22 1559.62 2383.74 1556.86 2386.13 1555.06 2388.52 1553.27 2390.99 1552.37 2393.53 1552.37 2396.04 1552.37 2397.97 1553.09 2399.32 1554.54 2400.67 1555.98 2401.35 1557.99 2401.35 1560.55 2401.35 1562.26 2400.96 1564.67 2400.17 1567.81L2397.54 1578.43C2396.81 1581.37 2396.45 1583.45 2396.45 1584.67 2396.45 1585.75 2396.62 1586.53 2396.97 1587.02 2397.32 1587.5 2397.88 1587.75 2398.63 1587.75 2399.44 1587.75 2400.31 1587.42 2401.23 1586.75 2402.15 1586.09 2403.44 1584.83 2405.12 1582.97L2407.43 1585.24C2405.11 1587.72 2403.08 1589.54 2401.35 1590.69 2399.62 1591.83 2397.65 1592.41 2395.43 1592.41 2393.68 1592.41 2392.27 1591.78 2391.22 1590.52 2390.16 1589.27 2389.64 1587.67 2389.64 1585.72 2389.64 1583.97 2390.08 1581.39 2390.97 1577.98L2392.76 1570.97C2393.41 1568.43 2393.83 1566.55 2394.03 1565.34 2394.24 1564.12 2394.34 1563.13 2394.34 1562.38 2394.34 1560.51 2394.03 1559.17 2393.41 1558.35 2392.78 1557.52 2391.77 1557.11 2390.37 1557.11 2389.23 1557.11 2388.01 1557.56 2386.7 1558.47 2385.39 1559.37 2384 1560.74 2382.52 1562.56 2381.05 1564.38 2379.87 1566.15 2378.98 1567.87 2378.09 1569.58 2377.36 1571.7 2376.79 1574.21L2372.94 1591.76 2365.93 1591.76 2371.85 1566.07C2372.44 1563.47 2372.74 1561.47 2372.74 1560.07 2372.74 1558.99 2372.56 1558.2 2372.21 1557.72 2371.86 1557.23 2371.31 1556.99 2370.55 1556.99 2369.71 1556.99 2368.83 1557.33 2367.89 1558.02 2366.96 1558.71 2365.69 1559.96 2364.06 1561.77L2361.75 1559.5C2364.24 1556.91 2366.31 1555.06 2367.96 1553.97 2369.6 1552.87 2371.47 1552.33 2373.55 1552.33Z" fill-rule="evenodd"/><text fill="#000000" fill-opacity="0" font-family="Arial,Arial_MSFontService,sans-serif" font-size="40.0815" x="2361.75" y="1587.4">𝑛</text><path d="M2387.99 1662.95 2372.15 1688.11 2372.15 1688.68 2387.99 1688.68 2387.99 1678.59C2387.99 1676.05 2388.03 1673.21 2388.12 1670.06 2388.2 1666.91 2388.29 1664.54 2388.4 1662.95ZM2389.17 1653.79 2394.96 1653.79 2394.96 1688.68 2395.82 1688.68C2397.38 1688.68 2398.5 1688.57 2399.18 1688.34 2399.85 1688.11 2400.42 1687.7 2400.86 1687.12 2401.31 1686.54 2401.72 1685.59 2402.1 1684.26L2405.18 1684.26 2404.69 1692.61 2394.96 1692.61 2394.96 1699.26C2394.96 1701.07 2395.03 1702.39 2395.15 1703.23 2395.27 1704.07 2395.47 1704.73 2395.75 1705.22 2396.04 1705.7 2396.46 1706.11 2397.01 1706.43 2397.57 1706.76 2398.46 1707.08 2399.71 1707.41L2399.71 1709.39 2383.25 1709.39 2383.25 1707.41C2384.93 1706.97 2386.05 1706.49 2386.62 1705.97 2387.18 1705.44 2387.55 1704.69 2387.73 1703.72 2387.91 1702.74 2387.99 1701.26 2387.99 1699.26L2387.99 1692.61 2365.46 1692.61 2365.46 1689.57Z" fill-rule="evenodd"/><text fill="#000000" fill-opacity="0" font-family="Arial,Arial_MSFontService,sans-serif" font-size="55.6035" x="2365.46" y="1702.44">4</text><path d="M2360.67 1628.21 2385.17 1628.21 2409.67 1628.21 2409.67 1633.21 2385.17 1633.21 2360.67 1633.21Z" fill-rule="evenodd"/><path d="M2468.31 1529.13C2470.37 1529.13 2472.13 1529.36 2473.59 1529.83 2475.05 1530.29 2476.24 1530.92 2477.15 1531.72 2478.06 1532.51 2478.73 1533.46 2479.13 1534.58 2479.54 1535.69 2479.74 1536.89 2479.74 1538.18 2479.74 1538.95 2479.69 1539.67 2479.58 1540.34 2479.47 1541.01 2479.28 1541.66 2479.01 1542.31 2478.74 1542.95 2478.39 1543.6 2477.96 1544.26 2477.52 1544.91 2476.97 1545.61 2476.32 1546.34 2475.82 1546.98 2475.18 1547.71 2474.38 1548.55 2473.59 1549.38 2472.72 1550.27 2471.78 1551.23 2470.83 1552.18 2469.84 1553.17 2468.81 1554.2 2467.78 1555.24 2466.78 1556.26 2465.8 1557.27 2464.83 1558.29 2463.94 1559.27 2463.12 1560.22 2462.31 1561.17 2461.64 1562.05 2461.13 1562.84L2472.15 1562.84C2473.08 1562.84 2473.83 1562.81 2474.38 1562.74 2474.94 1562.67 2475.4 1562.51 2475.77 1562.28 2476.13 1562.04 2476.45 1561.68 2476.7 1561.19 2476.96 1560.7 2477.26 1560.03 2477.6 1559.18L2480.37 1559.18C2480.27 1560.59 2480.17 1562.01 2480.09 1563.44 2480 1564.87 2479.9 1566.29 2479.8 1567.7L2454.57 1567.7 2454.57 1566.15C2455.05 1565.08 2455.61 1564.02 2456.24 1562.98 2456.88 1561.93 2457.59 1560.88 2458.39 1559.8 2459.18 1558.73 2460.08 1557.63 2461.1 1556.48 2462.11 1555.34 2463.23 1554.16 2464.46 1552.92 2466.33 1551.06 2467.85 1549.46 2469.02 1548.14 2470.19 1546.82 2471.11 1545.65 2471.79 1544.61 2472.47 1543.58 2472.93 1542.63 2473.18 1541.75 2473.42 1540.88 2473.55 1539.95 2473.55 1538.95 2473.55 1537.94 2473.4 1537.01 2473.12 1536.16 2472.83 1535.3 2472.42 1534.58 2471.88 1533.98 2471.34 1533.39 2470.66 1532.92 2469.84 1532.58 2469.02 1532.24 2468.07 1532.07 2466.99 1532.07 2465.15 1532.07 2463.6 1532.58 2462.35 1533.58 2461.1 1534.58 2460.12 1536.04 2459.43 1537.94L2455.53 1537.94 2455.53 1532.13C2458.07 1531.08 2460.41 1530.32 2462.54 1529.84 2464.68 1529.36 2466.6 1529.13 2468.31 1529.13Z" fill-rule="evenodd"/><text fill="#000000" fill-opacity="0" font-family="Arial,Arial_MSFontService,sans-serif" font-size="38.5718" x="2454.57" y="1562.88">2</text><path d="M1817 1614.5C1817 1522.54 1891.54 1448 1983.5 1448 2075.46 1448 2150 1522.54 2150 1614.5 2150 1706.46 2075.46 1781 1983.5 1781 1891.54 1781 1817 1706.46 1817 1614.5Z" fill="#FFFFFF" fill-rule="evenodd"/><path d="M1982.66 1548.51C1990.47 1554.62 1997.28 1564.61 2003.09 1578.48 2008.9 1592.36 2011.8 1609.68 2011.8 1630.46 2011.8 1651.29 2008.9 1668.64 2003.09 1682.52 1997.28 1696.39 1990.47 1706.38 1982.66 1712.49L1980.31 1709.77C1987.15 1703.45 1992.8 1693.61 1997.25 1680.27 2001.71 1666.92 2003.94 1650.33 2003.94 1630.5 2003.94 1610.67 2001.71 1594.08 1997.25 1580.73 1992.8 1567.38 1987.15 1557.55 1980.31 1551.23ZM1923.97 1548.51 1926.32 1551.23C1919.48 1557.55 1913.83 1567.38 1909.38 1580.73 1904.92 1594.08 1902.69 1610.67 1902.69 1630.5 1902.69 1650.33 1904.92 1666.92 1909.38 1680.27 1913.83 1693.61 1919.48 1703.45 1926.32 1709.77L1923.97 1712.49C1916.16 1706.38 1909.35 1696.39 1903.54 1682.52 1897.73 1668.64 1894.83 1651.29 1894.83 1630.46 1894.83 1609.68 1897.73 1592.36 1903.54 1578.48 1909.35 1564.61 1916.16 1554.62 1923.97 1548.51Z" fill-rule="evenodd"/><path d="M1941.47 1552.33C1943.17 1552.33 1944.52 1552.89 1945.51 1554.01 1946.49 1555.13 1946.98 1556.6 1946.98 1558.41 1946.98 1559.84 1946.66 1561.43 1946.01 1563.19L1946.5 1563.35C1949.15 1559.62 1951.67 1556.86 1954.06 1555.06 1956.45 1553.27 1958.91 1552.37 1961.45 1552.37 1963.97 1552.37 1965.9 1553.09 1967.25 1554.54 1968.6 1555.98 1969.27 1557.99 1969.27 1560.55 1969.27 1562.26 1968.88 1564.67 1968.1 1567.81L1965.46 1578.43C1964.74 1581.37 1964.37 1583.45 1964.37 1584.67 1964.37 1585.75 1964.55 1586.53 1964.9 1587.02 1965.25 1587.5 1965.8 1587.75 1966.56 1587.75 1967.37 1587.75 1968.23 1587.42 1969.15 1586.75 1970.07 1586.09 1971.37 1584.83 1973.04 1582.97L1975.35 1585.24C1973.03 1587.72 1971 1589.54 1969.27 1590.69 1967.55 1591.83 1965.57 1592.41 1963.36 1592.41 1961.6 1592.41 1960.2 1591.78 1959.14 1590.52 1958.09 1589.27 1957.56 1587.67 1957.56 1585.72 1957.56 1583.97 1958.01 1581.39 1958.9 1577.98L1960.68 1570.97C1961.33 1568.43 1961.76 1566.55 1961.96 1565.34 1962.16 1564.12 1962.26 1563.13 1962.26 1562.38 1962.26 1560.51 1961.95 1559.17 1961.33 1558.35 1960.71 1557.52 1959.7 1557.11 1958.29 1557.11 1957.16 1557.11 1955.93 1557.56 1954.62 1558.47 1953.31 1559.37 1951.92 1560.74 1950.45 1562.56 1948.98 1564.38 1947.8 1566.15 1946.9 1567.87 1946.01 1569.58 1945.28 1571.7 1944.71 1574.21L1940.86 1591.76 1933.85 1591.76 1939.77 1566.07C1940.36 1563.47 1940.66 1561.47 1940.66 1560.07 1940.66 1558.99 1940.49 1558.2 1940.14 1557.72 1939.78 1557.23 1939.23 1556.99 1938.47 1556.99 1937.64 1556.99 1936.75 1557.33 1935.82 1558.02 1934.89 1558.71 1933.61 1559.96 1931.99 1561.77L1929.68 1559.5C1932.17 1556.91 1934.23 1555.06 1935.88 1553.97 1937.53 1552.87 1939.39 1552.33 1941.47 1552.33Z" fill-rule="evenodd"/><text fill="#000000" fill-opacity="0" font-family="Arial,Arial_MSFontService,sans-serif" font-size="40.0815" x="1929.68" y="1587.4">𝑛</text><path d="M1953.24 1682.4C1951.24 1682.4 1949.56 1682.71 1948.2 1683.33 1946.83 1683.95 1945.73 1684.79 1944.88 1685.84 1944.02 1686.9 1943.42 1688.13 1943.05 1689.55 1942.69 1690.97 1942.5 1692.49 1942.5 1694.11 1942.5 1695.87 1942.71 1697.51 1943.11 1699.04 1943.52 1700.56 1944.16 1701.88 1945.04 1702.99 1945.92 1704.1 1947.04 1704.97 1948.42 1705.62 1949.8 1706.27 1951.47 1706.59 1953.45 1706.59 1955.66 1706.59 1957.56 1706.14 1959.14 1705.24 1960.72 1704.33 1961.92 1702.99 1962.75 1701.2 1963.57 1699.42 1963.98 1697.31 1963.98 1694.88 1963.98 1692.29 1963.54 1690.05 1962.65 1688.18 1961.75 1686.3 1960.5 1684.87 1958.88 1683.88 1957.26 1682.89 1955.38 1682.4 1953.24 1682.4ZM1953.45 1656.87C1950.04 1656.87 1947.44 1657.79 1945.65 1659.64 1943.85 1661.49 1942.95 1664.12 1942.95 1667.53 1942.95 1669.12 1943.14 1670.62 1943.52 1672.03 1943.9 1673.43 1944.5 1674.65 1945.34 1675.67 1946.18 1676.7 1947.27 1677.52 1948.6 1678.12 1949.94 1678.73 1951.58 1679.04 1953.53 1679.04 1955.77 1679.04 1957.65 1678.6 1959.18 1677.72 1960.71 1676.84 1961.84 1675.56 1962.59 1673.87 1963.33 1672.18 1963.7 1670.23 1963.7 1668.01 1963.7 1665.58 1963.26 1663.52 1962.38 1661.83 1961.5 1660.14 1960.3 1658.89 1958.76 1658.08 1957.22 1657.27 1955.45 1656.87 1953.45 1656.87ZM1953.53 1653.42C1957.42 1653.42 1960.69 1653.97 1963.34 1655.06 1965.98 1656.16 1967.98 1657.74 1969.31 1659.81 1970.65 1661.87 1971.32 1664.35 1971.32 1667.24 1971.32 1670.21 1970.59 1672.77 1969.13 1674.92 1967.67 1677.07 1965.42 1678.82 1962.36 1680.17L1962.44 1680.7C1965.5 1681.89 1967.81 1683.62 1969.37 1685.91 1970.94 1688.19 1971.72 1690.94 1971.72 1694.15 1971.72 1697.31 1970.97 1700.1 1969.45 1702.5 1967.94 1704.91 1965.75 1706.76 1962.87 1708.07 1959.99 1709.38 1956.63 1710.04 1952.8 1710.04 1949.2 1710.04 1946.05 1709.44 1943.33 1708.24 1940.62 1707.03 1938.51 1705.28 1937.01 1702.97 1935.51 1700.66 1934.76 1697.94 1934.76 1694.8 1934.76 1692.45 1935.17 1690.41 1935.98 1688.68 1936.79 1686.95 1937.85 1685.53 1939.16 1684.41 1940.47 1683.28 1942.13 1682.26 1944.13 1681.35L1944.04 1680.82C1938.24 1678.31 1935.33 1674 1935.33 1667.89 1935.33 1665.11 1936.09 1662.62 1937.62 1660.43 1939.15 1658.25 1941.32 1656.53 1944.15 1655.29 1946.97 1654.04 1950.1 1653.42 1953.53 1653.42Z" fill-rule="evenodd"/><text fill="#000000" fill-opacity="0" font-family="Arial,Arial_MSFontService,sans-serif" font-size="56.6167" x="1934.76" y="1702.96">8</text><path d="M1928.59 1628.21 1953.09 1628.21 1977.59 1628.21 1977.59 1633.21 1953.09 1633.21 1928.59 1633.21Z" fill-rule="evenodd"/><path d="M2036.23 1529.13C2038.3 1529.13 2040.06 1529.36 2041.52 1529.83 2042.98 1530.29 2044.16 1530.92 2045.08 1531.72 2045.99 1532.51 2046.65 1533.46 2047.06 1534.58 2047.46 1535.69 2047.67 1536.89 2047.67 1538.18 2047.67 1538.95 2047.61 1539.67 2047.5 1540.34 2047.39 1541.01 2047.21 1541.66 2046.94 1542.31 2046.67 1542.95 2046.32 1543.6 2045.88 1544.26 2045.44 1544.91 2044.9 1545.61 2044.24 1546.34 2043.75 1546.98 2043.1 1547.71 2042.31 1548.55 2041.51 1549.38 2040.64 1550.27 2039.7 1551.23 2038.76 1552.18 2037.77 1553.17 2036.74 1554.2 2035.7 1555.24 2034.7 1556.26 2033.73 1557.27 2032.76 1558.29 2031.86 1559.27 2031.05 1560.22 2030.23 1561.17 2029.57 1562.05 2029.05 1562.84L2040.07 1562.84C2041.01 1562.84 2041.75 1562.81 2042.31 1562.74 2042.86 1562.67 2043.32 1562.51 2043.69 1562.28 2044.06 1562.04 2044.37 1561.68 2044.63 1561.19 2044.89 1560.7 2045.19 1560.03 2045.52 1559.18L2048.29 1559.18C2048.19 1560.59 2048.1 1562.01 2048.01 1563.44 2047.92 1564.87 2047.83 1566.29 2047.73 1567.7L2022.5 1567.7 2022.5 1566.15C2022.98 1565.08 2023.53 1564.02 2024.17 1562.98 2024.8 1561.93 2025.52 1560.88 2026.31 1559.8 2027.11 1558.73 2028.01 1557.63 2029.02 1556.48 2030.03 1555.34 2031.16 1554.16 2032.39 1552.92 2034.25 1551.06 2035.77 1549.46 2036.94 1548.14 2038.12 1546.82 2039.04 1545.65 2039.71 1544.61 2040.39 1543.58 2040.85 1542.63 2041.1 1541.75 2041.35 1540.88 2041.47 1539.95 2041.47 1538.95 2041.47 1537.94 2041.33 1537.01 2041.04 1536.16 2040.75 1535.3 2040.34 1534.58 2039.8 1533.98 2039.27 1533.39 2038.59 1532.92 2037.76 1532.58 2036.94 1532.24 2035.99 1532.07 2034.92 1532.07 2033.07 1532.07 2031.52 1532.58 2030.27 1533.58 2029.02 1534.58 2028.05 1536.04 2027.35 1537.94L2023.45 1537.94 2023.45 1532.13C2025.99 1531.08 2028.33 1530.32 2030.47 1529.84 2032.6 1529.36 2034.52 1529.13 2036.23 1529.13Z" fill-rule="evenodd"/><text fill="#000000" fill-opacity="0" font-family="Arial,Arial_MSFontService,sans-serif" font-size="38.5718" x="2022.5" y="1562.88">2</text><path d="M0 0 166.886 104.791" stroke="#156082" stroke-width="6.875" stroke-miterlimit="8" fill="none" fill-rule="evenodd" transform="matrix(-1 0 0 1 1672.39 915.5)"/><path d="M0 0 141.104 192.556" stroke="#156082" stroke-width="6.875" stroke-miterlimit="8" fill="none" fill-rule="evenodd" transform="matrix(-1 0 0 1 1269.6 1255.5)"/><path d="M1505.5 1255.5 1596.93 1448.06" stroke="#156082" stroke-width="6.875" stroke-miterlimit="8" fill="none" fill-rule="evenodd"/><path d="M0 0 98.5261 192.556" stroke="#156082" stroke-width="6.875" stroke-miterlimit="8" fill="none" fill-rule="evenodd" transform="matrix(-1 0 0 1 2083.03 1255.5)"/><path d="M1908.5 915.5 2082.49 1020.29" stroke="#156082" stroke-width="6.875" stroke-miterlimit="8" fill="none" fill-rule="evenodd"/><path d="M2318.5 1255.5 2416.19 1448.06" stroke="#156082" stroke-width="6.875" stroke-miterlimit="8" fill="none" fill-rule="evenodd"/><path d="M3242.77 785.205C3244.47 785.205 3245.82 785.765 3246.8 786.886 3247.79 788.008 3248.28 789.473 3248.28 791.284 3248.28 792.716 3247.96 794.31 3247.31 796.066L3247.8 796.228C3250.44 792.499 3252.96 789.737 3255.35 787.94 3257.75 786.143 3260.21 785.245 3262.75 785.245 3265.26 785.245 3267.2 785.968 3268.55 787.413 3269.9 788.859 3270.57 790.865 3270.57 793.432 3270.57 795.134 3270.18 797.552 3269.4 800.686L3266.76 811.304C3266.03 814.249 3265.67 816.33 3265.67 817.545 3265.67 818.626 3265.84 819.41 3266.2 819.896 3266.55 820.382 3267.1 820.625 3267.86 820.625 3268.67 820.625 3269.53 820.294 3270.45 819.633 3271.37 818.971 3272.67 817.707 3274.34 815.843L3276.65 818.113C3274.33 820.598 3272.3 822.415 3270.57 823.564 3268.84 824.712 3266.87 825.286 3264.66 825.286 3262.9 825.286 3261.49 824.658 3260.44 823.402 3259.39 822.145 3258.86 820.544 3258.86 818.599 3258.86 816.843 3259.31 814.263 3260.2 810.858L3261.98 803.847C3262.63 801.307 3263.05 799.43 3263.26 798.214 3263.46 796.998 3263.56 796.012 3263.56 795.255 3263.56 793.391 3263.25 792.047 3262.63 791.223 3262.01 790.399 3260.99 789.987 3259.59 789.987 3258.46 789.987 3257.23 790.439 3255.92 791.344 3254.61 792.25 3253.22 793.614 3251.75 795.438 3250.28 797.261 3249.09 799.031 3248.2 800.747 3247.31 802.462 3246.58 804.577 3246.01 807.089L3242.16 824.638 3235.15 824.638 3241.07 798.943C3241.66 796.35 3241.96 794.35 3241.96 792.945 3241.96 791.865 3241.78 791.081 3241.43 790.595 3241.08 790.108 3240.53 789.865 3239.77 789.865 3238.93 789.865 3238.05 790.21 3237.12 790.899 3236.19 791.588 3234.91 792.837 3233.29 794.647L3230.98 792.378C3233.46 789.784 3235.53 787.94 3237.18 786.846 3238.83 785.752 3240.69 785.205 3242.77 785.205Z" fill-rule="evenodd"/><text fill="#000000" fill-opacity="0" font-family="Arial,Arial_MSFontService,sans-serif" font-size="40.0815" x="3230.98" y="820.276">𝑛</text><path d="M3296.76 755.862C3298.82 755.862 3300.59 756.095 3302.05 756.562 3303.51 757.028 3304.69 757.659 3305.61 758.453 3306.52 759.247 3307.18 760.2 3307.59 761.312 3307.99 762.424 3308.2 763.626 3308.2 764.916 3308.2 765.691 3308.14 766.411 3308.03 767.076 3307.92 767.741 3307.74 768.396 3307.47 769.042 3307.2 769.687 3306.85 770.337 3306.41 770.993 3305.97 771.648 3305.43 772.343 3304.77 773.078 3304.28 773.713 3303.63 774.448 3302.84 775.282 3302.04 776.116 3301.17 777.009 3300.23 777.962 3299.29 778.915 3298.3 779.908 3297.27 780.941 3296.23 781.973 3295.23 782.996 3294.26 784.009 3293.28 785.021 3292.39 786.004 3291.58 786.957 3290.76 787.911 3290.1 788.784 3289.58 789.578L3300.6 789.578C3301.54 789.578 3302.28 789.544 3302.84 789.474 3303.39 789.405 3303.85 789.251 3304.22 789.013 3304.59 788.774 3304.9 788.412 3305.16 787.925 3305.42 787.439 3305.71 786.769 3306.05 785.915L3308.82 785.915C3308.72 787.325 3308.63 788.745 3308.54 790.174 3308.45 791.604 3308.36 793.024 3308.26 794.433L3283.03 794.433 3283.03 792.885C3283.51 791.812 3284.06 790.755 3284.7 789.713 3285.33 788.67 3286.05 787.613 3286.84 786.54 3287.64 785.468 3288.54 784.361 3289.55 783.219 3290.56 782.078 3291.69 780.891 3292.92 779.66 3294.78 777.794 3296.3 776.2 3297.47 774.88 3298.65 773.559 3299.57 772.383 3300.24 771.35 3300.92 770.317 3301.38 769.364 3301.63 768.491 3301.88 767.617 3302 766.684 3302 765.691 3302 764.678 3301.86 763.745 3301.57 762.891 3301.28 762.037 3300.87 761.312 3300.33 760.717 3299.8 760.121 3299.12 759.654 3298.29 759.317 3297.47 758.979 3296.52 758.81 3295.45 758.81 3293.6 758.81 3292.05 759.312 3290.8 760.315 3289.55 761.317 3288.58 762.772 3287.88 764.678L3283.98 764.678 3283.98 758.87C3286.52 757.818 3288.86 757.053 3291 756.577 3293.13 756.1 3295.05 755.862 3296.76 755.862Z" fill-rule="evenodd"/><text fill="#000000" fill-opacity="0" font-family="Arial,Arial_MSFontService,sans-serif" font-size="38.5718" x="3283.03" y="789.612">2</text><path d="M3234.92 1052.14 3238.08 1052.14 3237.48 1061.54 3214.17 1061.54 3214.17 1079.33C3215.58 1078.74 3217.1 1078.29 3218.75 1078 3220.4 1077.7 3222.05 1077.55 3223.7 1077.55 3226.91 1077.55 3229.76 1078.21 3232.25 1079.52 3234.73 1080.83 3236.65 1082.69 3238 1085.11 3239.35 1087.53 3240.03 1090.33 3240.03 1093.52 3240.03 1097.14 3239.27 1100.25 3237.76 1102.84 3236.25 1105.43 3234.06 1107.41 3231.19 1108.76 3228.33 1110.11 3224.94 1110.78 3221.02 1110.78 3216.35 1110.78 3211.46 1109.82 3206.35 1107.91L3206.35 1099.31 3211.25 1099.31C3212.06 1102.07 3213.29 1104.1 3214.92 1105.39 3216.56 1106.69 3218.67 1107.34 3221.26 1107.34 3224.86 1107.34 3227.57 1106.26 3229.41 1104.1 3231.25 1101.93 3232.17 1098.71 3232.17 1094.41 3232.17 1091.55 3231.68 1089.17 3230.71 1087.3 3229.73 1085.42 3228.42 1084.06 3226.78 1083.22 3225.13 1082.39 3223.21 1081.97 3221.02 1081.97 3219.18 1081.97 3217.6 1082.08 3216.28 1082.31 3214.96 1082.54 3213.54 1082.9 3212.02 1083.39L3208.78 1081.48 3208.78 1054.81 3231.11 1054.81C3232.03 1054.81 3232.69 1054.74 3233.1 1054.59 3233.5 1054.44 3233.83 1054.21 3234.07 1053.9 3234.31 1053.59 3234.6 1053 3234.92 1052.14Z" fill-rule="evenodd"/><text fill="#000000" fill-opacity="0" font-family="Arial,Arial_MSFontService,sans-serif" font-size="58.6431" x="3206.35" y="1103.45">5</text><path d="M3248.2 1198.59C3246.87 1198.59 3245.6 1198.73 3244.37 1199.03 3243.14 1199.33 3241.98 1199.76 3240.9 1200.33 3239.82 1200.9 3238.77 1201.61 3237.74 1202.48 3237.42 1202.77 3237.17 1203.08 3237.01 1203.41 3236.74 1203.92 3236.57 1204.56 3236.49 1205.31 3236.4 1206.07 3236.36 1207.34 3236.36 1209.12 3236.36 1214.28 3237.23 1218.21 3238.96 1220.92 3240.69 1223.62 3243.31 1224.97 3246.82 1224.97 3248.85 1224.97 3250.55 1224.62 3251.93 1223.92 3253.3 1223.21 3254.42 1222.25 3255.27 1221.02 3256.12 1219.79 3256.73 1218.34 3257.09 1216.68 3257.46 1215.02 3257.64 1213.22 3257.64 1211.27 3257.64 1207.27 3256.82 1204.16 3255.17 1201.93 3253.52 1199.7 3251.2 1198.59 3248.2 1198.59ZM3258.61 1171.8 3260.27 1174.03 3260.27 1176.01C3256.11 1176.01 3252.43 1176.9 3249.21 1178.69 3246 1180.47 3243.33 1183.09 3241.21 1186.55 3239.09 1190.01 3237.59 1194.11 3236.73 1198.87L3237.13 1199.03C3239.4 1197.41 3241.64 1196.22 3243.84 1195.46 3246.04 1194.71 3248.43 1194.33 3250.99 1194.33 3254.05 1194.33 3256.65 1195 3258.8 1196.34 3260.94 1197.67 3262.56 1199.55 3263.64 1201.97 3264.72 1204.39 3265.26 1207.22 3265.26 1210.46 3265.26 1213.97 3264.58 1217.07 3263.23 1219.76 3261.88 1222.45 3259.8 1224.56 3256.97 1226.1 3254.15 1227.64 3250.67 1228.41 3246.54 1228.41 3240.62 1228.41 3236.15 1226.58 3233.14 1222.9 3230.13 1219.23 3228.62 1213.81 3228.62 1206.65 3228.62 1201.84 3229.38 1197.34 3230.89 1193.15 3232.41 1188.97 3234.55 1185.31 3237.34 1182.19 3240.12 1179.07 3243.35 1176.61 3247.02 1174.82 3250.7 1173.02 3254.56 1172.01 3258.61 1171.8ZM3203.54 1171.8 3205.76 1171.8C3205.6 1174.39 3205.52 1177.98 3205.52 1182.58L3205.52 1217.19C3205.52 1218.75 3205.61 1219.94 3205.78 1220.73 3205.96 1221.53 3206.27 1222.18 3206.72 1222.68 3207.16 1223.18 3207.8 1223.57 3208.64 1223.85 3209.48 1224.14 3210.53 1224.35 3211.8 1224.5 3213.07 1224.65 3214.75 1224.75 3216.83 1224.81L3216.83 1227.77 3186.88 1227.77 3186.88 1224.81C3189.88 1224.67 3192.02 1224.49 3193.3 1224.26 3194.59 1224.03 3195.56 1223.69 3196.24 1223.23 3196.92 1222.77 3197.41 1222.12 3197.72 1221.28 3198.03 1220.44 3198.19 1219.08 3198.19 1217.19L3198.19 1184.32C3198.19 1183.24 3198 1182.45 3197.62 1181.95 3197.24 1181.45 3196.69 1181.2 3195.96 1181.2 3195.09 1181.2 3193.86 1181.65 3192.27 1182.54 3190.67 1183.43 3188.7 1184.66 3186.35 1186.22L3184.57 1183.1Z" fill-rule="evenodd"/><text fill="#000000" fill-opacity="0" font-family="Arial,Arial_MSFontService,sans-serif" font-size="56.6167" x="3184.57" y="1221.34">16</text><path d="M3177.16 1146.58 3223.16 1146.58 3269.16 1146.58 3269.16 1151.58 3223.16 1151.58 3177.16 1151.58Z" fill-rule="evenodd"/><path d="M3295.54 1133.15C3297.24 1133.15 3298.58 1133.71 3299.57 1134.83 3300.56 1135.95 3301.05 1137.42 3301.05 1139.23 3301.05 1140.66 3300.72 1142.25 3300.08 1144.01L3300.56 1144.17C3303.21 1140.44 3305.73 1137.68 3308.12 1135.88 3310.51 1134.09 3312.98 1133.19 3315.52 1133.19 3318.03 1133.19 3319.96 1133.91 3321.31 1135.36 3322.66 1136.8 3323.34 1138.81 3323.34 1141.38 3323.34 1143.08 3322.95 1145.5 3322.16 1148.63L3319.53 1159.25C3318.8 1162.19 3318.44 1164.27 3318.44 1165.49 3318.44 1166.57 3318.61 1167.35 3318.96 1167.84 3319.31 1168.33 3319.87 1168.57 3320.62 1168.57 3321.43 1168.57 3322.3 1168.24 3323.22 1167.58 3324.14 1166.91 3325.43 1165.65 3327.11 1163.79L3329.42 1166.06C3327.09 1168.54 3325.07 1170.36 3323.34 1171.51 3321.61 1172.66 3319.64 1173.23 3317.42 1173.23 3315.67 1173.23 3314.26 1172.6 3313.21 1171.35 3312.15 1170.09 3311.63 1168.49 3311.63 1166.54 3311.63 1164.79 3312.07 1162.21 3312.96 1158.8L3314.75 1151.79C3315.4 1149.25 3315.82 1147.37 3316.02 1146.16 3316.23 1144.94 3316.33 1143.96 3316.33 1143.2 3316.33 1141.34 3316.02 1139.99 3315.4 1139.17 3314.77 1138.34 3313.76 1137.93 3312.36 1137.93 3311.22 1137.93 3310 1138.38 3308.69 1139.29 3307.38 1140.19 3305.99 1141.56 3304.51 1143.38 3303.04 1145.21 3301.86 1146.98 3300.97 1148.69 3300.08 1150.41 3299.35 1152.52 3298.78 1155.03L3294.93 1172.58 3287.92 1172.58 3293.84 1146.89C3294.43 1144.29 3294.73 1142.29 3294.73 1140.89 3294.73 1139.81 3294.55 1139.03 3294.2 1138.54 3293.85 1138.05 3293.29 1137.81 3292.54 1137.81 3291.7 1137.81 3290.82 1138.15 3289.88 1138.84 3288.95 1139.53 3287.68 1140.78 3286.05 1142.59L3283.74 1140.32C3286.23 1137.73 3288.3 1135.88 3289.94 1134.79 3291.59 1133.7 3293.46 1133.15 3295.54 1133.15Z" fill-rule="evenodd"/><text fill="#000000" fill-opacity="0" font-family="Arial,Arial_MSFontService,sans-serif" font-size="40.0815" x="3283.74" y="1168.22">𝑛</text><path d="M3349.53 1103.81C3351.59 1103.81 3353.35 1104.04 3354.81 1104.51 3356.27 1104.97 3357.46 1105.6 3358.37 1106.4 3359.29 1107.19 3359.95 1108.14 3360.35 1109.26 3360.76 1110.37 3360.96 1111.57 3360.96 1112.86 3360.96 1113.64 3360.91 1114.35 3360.8 1115.02 3360.69 1115.69 3360.5 1116.34 3360.23 1116.99 3359.97 1117.63 3359.61 1118.28 3359.18 1118.94 3358.74 1119.59 3358.19 1120.29 3357.54 1121.02 3357.04 1121.66 3356.4 1122.39 3355.6 1123.23 3354.81 1124.06 3353.94 1124.95 3353 1125.91 3352.05 1126.86 3351.06 1127.85 3350.03 1128.89 3349 1129.92 3348 1130.94 3347.02 1131.95 3346.05 1132.97 3345.16 1133.95 3344.34 1134.9 3343.53 1135.85 3342.86 1136.73 3342.35 1137.52L3353.37 1137.52C3354.3 1137.52 3355.05 1137.49 3355.6 1137.42 3356.16 1137.35 3356.62 1137.2 3356.99 1136.96 3357.35 1136.72 3357.67 1136.36 3357.93 1135.87 3358.18 1135.38 3358.48 1134.71 3358.82 1133.86L3361.59 1133.86C3361.49 1135.27 3361.4 1136.69 3361.31 1138.12 3361.22 1139.55 3361.12 1140.97 3361.02 1142.38L3335.79 1142.38 3335.79 1140.83C3336.27 1139.76 3336.83 1138.7 3337.46 1137.66 3338.1 1136.61 3338.81 1135.56 3339.61 1134.48 3340.4 1133.41 3341.31 1132.31 3342.32 1131.16 3343.33 1130.02 3344.45 1128.84 3345.68 1127.6 3347.55 1125.74 3349.07 1124.14 3350.24 1122.82 3351.41 1121.5 3352.34 1120.33 3353.01 1119.29 3353.69 1118.26 3354.15 1117.31 3354.4 1116.43 3354.64 1115.56 3354.77 1114.63 3354.77 1113.64 3354.77 1112.62 3354.62 1111.69 3354.34 1110.84 3354.05 1109.98 3353.64 1109.26 3353.1 1108.66 3352.56 1108.07 3351.88 1107.6 3351.06 1107.26 3350.24 1106.92 3349.29 1106.75 3348.22 1106.75 3346.37 1106.75 3344.82 1107.26 3343.57 1108.26 3342.32 1109.26 3341.34 1110.72 3340.65 1112.62L3336.75 1112.62 3336.75 1106.81C3339.29 1105.76 3341.63 1105 3343.76 1104.52 3345.9 1104.04 3347.82 1103.81 3349.53 1103.81Z" fill-rule="evenodd"/><text fill="#000000" fill-opacity="0" font-family="Arial,Arial_MSFontService,sans-serif" font-size="38.5718" x="3335.79" y="1137.56">2</text><path d="M3200.43 1533.18C3205.46 1533.18 3209.26 1534.28 3211.82 1536.48 3214.39 1538.68 3215.67 1541.88 3215.67 1546.07 3215.67 1547.5 3215.53 1548.81 3215.25 1550.02 3214.96 1551.22 3214.52 1552.41 3213.91 1553.58 3213.3 1554.76 3212.48 1556.02 3211.46 1557.37 3210.43 1558.72 3209.3 1560.09 3208.05 1561.49 3206.81 1562.88 3204.66 1565.19 3201.61 1568.44 3196.48 1573.87 3192.71 1578.61 3190.3 1582.66L3205.58 1582.66C3206.9 1582.66 3207.97 1582.58 3208.78 1582.42 3209.59 1582.26 3210.24 1581.99 3210.73 1581.61 3211.21 1581.23 3211.6 1580.74 3211.88 1580.13 3212.17 1579.52 3212.52 1578.58 3212.96 1577.31L3216.4 1577.31 3215.71 1589.15 3182.36 1589.15 3182.36 1587.2C3183.52 1584.36 3185.09 1581.46 3187.06 1578.49 3189.03 1575.52 3191.83 1572.02 3195.45 1567.99 3198.58 1564.53 3200.84 1561.91 3202.22 1560.13 3203.73 1558.18 3204.86 1556.5 3205.6 1555.08 3206.34 1553.66 3206.88 1552.33 3207.2 1551.07 3207.53 1549.81 3207.69 1548.55 3207.69 1547.28 3207.69 1545.26 3207.36 1543.47 3206.72 1541.91 3206.07 1540.36 3205.07 1539.14 3203.74 1538.24 3202.4 1537.35 3200.72 1536.91 3198.69 1536.91 3193.64 1536.91 3190.23 1539.72 3188.48 1545.34L3183.57 1545.34 3183.57 1537.55C3186.84 1536.01 3189.9 1534.9 3192.75 1534.21 3195.6 1533.52 3198.16 1533.18 3200.43 1533.18ZM3257.78 1531.15 3260.94 1531.15 3260.33 1540.55 3237.03 1540.55 3237.03 1558.35C3238.44 1557.75 3239.96 1557.31 3241.61 1557.01 3243.26 1556.71 3244.91 1556.56 3246.56 1556.56 3249.77 1556.56 3252.62 1557.22 3255.11 1558.53 3257.59 1559.84 3259.51 1561.7 3260.86 1564.12 3262.21 1566.54 3262.89 1569.34 3262.89 1572.53 3262.89 1576.15 3262.13 1579.26 3260.62 1581.85 3259.11 1584.44 3256.92 1586.42 3254.05 1587.77 3251.19 1589.12 3247.8 1589.79 3243.88 1589.79 3239.21 1589.79 3234.32 1588.84 3229.21 1586.92L3229.21 1578.33 3234.11 1578.33C3234.92 1581.08 3236.15 1583.11 3237.78 1584.4 3239.42 1585.7 3241.53 1586.35 3244.12 1586.35 3247.72 1586.35 3250.43 1585.27 3252.27 1583.11 3254.11 1580.95 3255.03 1577.72 3255.03 1573.42 3255.03 1570.56 3254.54 1568.19 3253.57 1566.31 3252.59 1564.43 3251.28 1563.07 3249.64 1562.24 3247.99 1561.4 3246.07 1560.98 3243.88 1560.98 3242.04 1560.98 3240.46 1561.09 3239.14 1561.32 3237.81 1561.55 3236.4 1561.91 3234.88 1562.4L3231.64 1560.49 3231.64 1533.83 3253.97 1533.83C3254.89 1533.83 3255.55 1533.75 3255.96 1533.6 3256.36 1533.45 3256.69 1533.23 3256.93 1532.91 3257.17 1532.6 3257.46 1532.02 3257.78 1531.15Z" fill-rule="evenodd"/><text fill="#000000" fill-opacity="0" font-family="Arial,Arial_MSFontService,sans-serif" font-size="58.6431" x="3182.36" y="1582.46">25</text><path d="M3271.06 1677.6C3269.73 1677.6 3268.46 1677.75 3267.23 1678.04 3266 1678.34 3264.84 1678.77 3263.76 1679.34 3262.68 1679.91 3261.63 1680.62 3260.6 1681.49 3260.28 1681.79 3260.03 1682.1 3259.87 1682.42 3259.6 1682.93 3259.43 1683.57 3259.34 1684.33 3259.26 1685.08 3259.22 1686.35 3259.22 1688.13 3259.22 1693.3 3260.09 1697.23 3261.82 1699.93 3263.55 1702.63 3266.17 1703.98 3269.68 1703.98 3271.71 1703.98 3273.41 1703.63 3274.79 1702.93 3276.16 1702.22 3277.28 1701.26 3278.13 1700.03 3278.98 1698.8 3279.59 1697.35 3279.95 1695.69 3280.32 1694.03 3280.5 1692.23 3280.5 1690.28 3280.5 1686.28 3279.68 1683.17 3278.03 1680.94 3276.38 1678.71 3274.06 1677.6 3271.06 1677.6ZM3281.47 1650.81 3283.13 1653.04 3283.13 1655.02C3278.97 1655.02 3275.29 1655.92 3272.07 1657.7 3268.85 1659.48 3266.19 1662.1 3264.07 1665.56 3261.95 1669.02 3260.45 1673.13 3259.59 1677.88L3259.99 1678.04C3262.26 1676.42 3264.5 1675.23 3266.7 1674.48 3268.9 1673.72 3271.29 1673.34 3273.85 1673.34 3276.91 1673.34 3279.51 1674.01 3281.65 1675.35 3283.8 1676.69 3285.42 1678.56 3286.5 1680.98 3287.58 1683.4 3288.12 1686.23 3288.12 1689.47 3288.12 1692.98 3287.44 1696.08 3286.09 1698.77 3284.74 1701.46 3282.65 1703.58 3279.83 1705.12 3277.01 1706.66 3273.53 1707.43 3269.4 1707.43 3263.48 1707.43 3259.01 1705.59 3256 1701.91 3252.99 1698.24 3251.48 1692.82 3251.48 1685.66 3251.48 1680.85 3252.24 1676.35 3253.75 1672.17 3255.26 1667.98 3257.41 1664.32 3260.2 1661.2 3262.98 1658.08 3266.21 1655.63 3269.88 1653.83 3273.56 1652.03 3277.42 1651.03 3281.47 1650.81ZM3177.52 1650.81C3182.54 1650.81 3186.34 1651.91 3188.91 1654.11 3191.47 1656.31 3192.76 1659.51 3192.76 1663.7 3192.76 1665.13 3192.61 1666.45 3192.33 1667.65 3192.05 1668.85 3191.6 1670.04 3190.99 1671.21 3190.38 1672.39 3189.57 1673.65 3188.54 1675 3187.51 1676.35 3186.38 1677.73 3185.14 1679.12 3183.89 1680.51 3181.75 1682.83 3178.69 1686.07 3173.56 1691.5 3169.79 1696.24 3167.39 1700.29L3182.66 1700.29C3183.99 1700.29 3185.05 1700.21 3185.87 1700.05 3186.68 1699.89 3187.32 1699.62 3187.81 1699.24 3188.3 1698.86 3188.68 1698.37 3188.97 1697.76 3189.25 1697.15 3189.61 1696.21 3190.04 1694.94L3193.48 1694.94 3192.8 1706.78 3159.44 1706.78 3159.44 1704.83C3160.6 1702 3162.17 1699.09 3164.14 1696.12 3166.12 1693.15 3168.91 1689.65 3172.53 1685.62 3175.67 1682.16 3177.92 1679.54 3179.3 1677.76 3180.81 1675.81 3181.94 1674.13 3182.68 1672.71 3183.43 1671.3 3183.96 1669.96 3184.28 1668.7 3184.61 1667.45 3184.77 1666.18 3184.77 1664.91 3184.77 1662.89 3184.45 1661.1 3183.8 1659.54 3183.15 1657.99 3182.16 1656.77 3180.82 1655.88 3179.48 1654.98 3177.8 1654.54 3175.77 1654.54 3170.72 1654.54 3167.32 1657.35 3165.56 1662.97L3160.66 1662.97 3160.66 1655.19C3163.93 1653.65 3166.99 1652.53 3169.84 1651.84 3172.69 1651.15 3175.25 1650.81 3177.52 1650.81ZM3234.86 1648.78 3238.03 1648.78 3237.42 1658.19 3214.11 1658.19 3214.11 1675.98C3215.52 1675.38 3217.05 1674.94 3218.69 1674.64 3220.34 1674.34 3221.99 1674.19 3223.64 1674.19 3226.85 1674.19 3229.7 1674.85 3232.19 1676.16 3234.68 1677.47 3236.59 1679.33 3237.94 1681.75 3239.3 1684.17 3239.97 1686.97 3239.97 1690.16 3239.97 1693.78 3239.21 1696.89 3237.7 1699.48 3236.19 1702.08 3234 1704.05 3231.14 1705.4 3228.27 1706.75 3224.88 1707.43 3220.96 1707.43 3216.29 1707.43 3211.4 1706.47 3206.29 1704.55L3206.29 1695.96 3211.2 1695.96C3212.01 1698.71 3213.23 1700.74 3214.86 1702.04 3216.5 1703.33 3218.61 1703.98 3221.21 1703.98 3224.8 1703.98 3227.52 1702.9 3229.35 1700.74 3231.19 1698.58 3232.11 1695.35 3232.11 1691.05 3232.11 1688.19 3231.62 1685.82 3230.65 1683.94 3229.68 1682.06 3228.37 1680.7 3226.72 1679.87 3225.07 1679.03 3223.15 1678.61 3220.96 1678.61 3219.13 1678.61 3217.55 1678.73 3216.22 1678.96 3214.9 1679.18 3213.48 1679.54 3211.97 1680.03L3208.72 1678.12 3208.72 1651.46 3231.05 1651.46C3231.97 1651.46 3232.64 1651.38 3233.04 1651.23 3233.45 1651.09 3233.77 1650.86 3234.01 1650.55 3234.26 1650.23 3234.54 1649.65 3234.86 1648.78Z" fill-rule="evenodd"/><text fill="#000000" fill-opacity="0" font-family="Arial,Arial_MSFontService,sans-serif" font-size="58.6431" x="3159.44" y="1700.1">256</text><path d="M3154.02 1625.59 3200.02 1625.59 3246.02 1625.59 3292.02 1625.59 3292.02 1630.59 3246.02 1630.59 3200.02 1630.59 3154.02 1630.59Z" fill-rule="evenodd"/><path d="M3318.23 1612.16C3319.93 1612.16 3321.28 1612.72 3322.26 1613.84 3323.25 1614.96 3323.74 1616.43 3323.74 1618.24 3323.74 1619.67 3323.42 1621.27 3322.77 1623.02L3323.26 1623.18C3325.9 1619.46 3328.42 1616.69 3330.81 1614.9 3333.2 1613.1 3335.67 1612.2 3338.21 1612.2 3340.72 1612.2 3342.65 1612.92 3344.01 1614.37 3345.36 1615.82 3346.03 1617.82 3346.03 1620.39 3346.03 1622.09 3345.64 1624.51 3344.86 1627.64L3342.22 1638.26C3341.49 1641.21 3341.13 1643.29 3341.13 1644.5 3341.13 1645.58 3341.3 1646.37 3341.65 1646.85 3342.01 1647.34 3342.56 1647.58 3343.32 1647.58 3344.13 1647.58 3344.99 1647.25 3345.91 1646.59 3346.83 1645.93 3348.13 1644.66 3349.8 1642.8L3352.11 1645.07C3349.79 1647.55 3347.76 1649.37 3346.03 1650.52 3344.3 1651.67 3342.33 1652.24 3340.11 1652.24 3338.36 1652.24 3336.95 1651.61 3335.9 1650.36 3334.85 1649.1 3334.32 1647.5 3334.32 1645.56 3334.32 1643.8 3334.76 1641.22 3335.66 1637.81L3337.44 1630.8C3338.09 1628.26 3338.51 1626.39 3338.72 1625.17 3338.92 1623.95 3339.02 1622.97 3339.02 1622.21 3339.02 1620.35 3338.71 1619 3338.09 1618.18 3337.47 1617.36 3336.45 1616.94 3335.05 1616.94 3333.91 1616.94 3332.69 1617.4 3331.38 1618.3 3330.07 1619.21 3328.68 1620.57 3327.21 1622.39 3325.73 1624.22 3324.55 1625.99 3323.66 1627.7 3322.77 1629.42 3322.04 1631.53 3321.47 1634.05L3317.62 1651.59 3310.61 1651.59 3316.53 1625.9C3317.12 1623.31 3317.42 1621.31 3317.42 1619.9 3317.42 1618.82 3317.24 1618.04 3316.89 1617.55 3316.54 1617.06 3315.99 1616.82 3315.23 1616.82 3314.39 1616.82 3313.51 1617.17 3312.58 1617.85 3311.64 1618.54 3310.37 1619.79 3308.75 1621.6L3306.44 1619.33C3308.92 1616.74 3310.99 1614.9 3312.64 1613.8 3314.29 1612.71 3316.15 1612.16 3318.23 1612.16Z" fill-rule="evenodd"/><text fill="#000000" fill-opacity="0" font-family="Arial,Arial_MSFontService,sans-serif" font-size="40.0815" x="3306.44" y="1647.23">𝑛</text><path d="M3372.22 1582.82C3374.28 1582.82 3376.05 1583.05 3377.51 1583.52 3378.96 1583.98 3380.15 1584.61 3381.06 1585.41 3381.98 1586.2 3382.64 1587.16 3383.05 1588.27 3383.45 1589.38 3383.66 1590.58 3383.66 1591.87 3383.66 1592.65 3383.6 1593.37 3383.49 1594.03 3383.38 1594.7 3383.19 1595.35 3382.93 1596 3382.66 1596.64 3382.31 1597.29 3381.87 1597.95 3381.43 1598.6 3380.89 1599.3 3380.23 1600.03 3379.73 1600.67 3379.09 1601.4 3378.29 1602.24 3377.5 1603.07 3376.63 1603.97 3375.69 1604.92 3374.75 1605.87 3373.76 1606.86 3372.72 1607.9 3371.69 1608.93 3370.69 1609.95 3369.72 1610.96 3368.74 1611.98 3367.85 1612.96 3367.04 1613.91 3366.22 1614.87 3365.56 1615.74 3365.04 1616.53L3376.06 1616.53C3376.99 1616.53 3377.74 1616.5 3378.29 1616.43 3378.85 1616.36 3379.31 1616.21 3379.68 1615.97 3380.05 1615.73 3380.36 1615.37 3380.62 1614.88 3380.88 1614.4 3381.17 1613.73 3381.51 1612.87L3384.28 1612.87C3384.18 1614.28 3384.09 1615.7 3384 1617.13 3383.91 1618.56 3383.81 1619.98 3383.72 1621.39L3358.49 1621.39 3358.49 1619.84C3358.96 1618.77 3359.52 1617.71 3360.16 1616.67 3360.79 1615.63 3361.51 1614.57 3362.3 1613.5 3363.09 1612.42 3364 1611.32 3365.01 1610.18 3366.02 1609.03 3367.14 1607.85 3368.38 1606.62 3370.24 1604.75 3371.76 1603.16 3372.93 1601.84 3374.1 1600.52 3375.03 1599.34 3375.7 1598.31 3376.38 1597.27 3376.84 1596.32 3377.09 1595.45 3377.34 1594.57 3377.46 1593.64 3377.46 1592.65 3377.46 1591.63 3377.32 1590.7 3377.03 1589.85 3376.74 1588.99 3376.33 1588.27 3375.79 1587.67 3375.26 1587.08 3374.58 1586.61 3373.75 1586.27 3372.93 1585.94 3371.98 1585.77 3370.91 1585.77 3369.06 1585.77 3367.51 1586.27 3366.26 1587.27 3365.01 1588.27 3364.04 1589.73 3363.34 1591.63L3359.44 1591.63 3359.44 1585.83C3361.98 1584.77 3364.32 1584.01 3366.45 1583.53 3368.59 1583.06 3370.51 1582.82 3372.22 1582.82Z" fill-rule="evenodd"/><text fill="#000000" fill-opacity="0" font-family="Arial,Arial_MSFontService,sans-serif" font-size="38.5718" x="3358.49" y="1616.57">2</text><path d="M2654.5 1129.75 2908 1129.75 2908 1107.5 2952.5 1152 2908 1196.5 2908 1174.25 2654.5 1174.25Z" stroke="#000000" stroke-width="6.875" stroke-miterlimit="8" fill-rule="evenodd"/></g></svg>