<svg width="3884" height="1767" xmlns="http://www.w3.org/2000/svg" xmlns:xlink="http://www.w3.org/1999/xlink" xml:space="preserve" overflow="hidden"><g transform="translate(-92 -457)"><path d="M1169.5 477.5 3161.92 477.5" stroke="#156082" stroke-width="6.875" stroke-miterlimit="8" fill="none" fill-rule="evenodd"/><path d="M690.5 985.5 1671.63 985.5" stroke="#156082" stroke-width="6.875" stroke-miterlimit="8" fill="none" fill-rule="evenodd"/><path d="M690.5 985.5 690.5 1487.6" stroke="#156082" stroke-width="6.875" stroke-miterlimit="8" fill="none" fill-rule="evenodd"/><path d="M1671.5 985.5 1671.5 1492.92" stroke="#156082" stroke-width="6.875" stroke-miterlimit="8" fill="none" fill-rule="evenodd"/><path d="M2652.5 985.5 3672.66 985.5" stroke="#156082" stroke-width="6.875" stroke-miterlimit="8" fill="none" fill-rule="evenodd"/><path d="M2652.5 985.5 2652.5 1492.92" stroke="#156082" stroke-width="6.875" stroke-miterlimit="8" fill="none" fill-rule="evenodd"/><path d="M3671.5 985.5 3671.5 1492.92" stroke="#156082" stroke-width="6.875" stroke-miterlimit="8" fill="none" fill-rule="evenodd"/><path d="M401.5 1487.5 1002.95 1487.5" stroke="#156082" stroke-width="6.875" stroke-miterlimit="8" fill="none" fill-rule="evenodd"/><path d="M401.5 1487.5 401.5 1994.92" stroke="#156082" stroke-width="6.875" stroke-miterlimit="8" fill="none" fill-rule="evenodd"/><path d="M1001.5 1487.5 1001.5 1994.92" stroke="#156082" stroke-width="6.875" stroke-miterlimit="8" fill="none" fill-rule="evenodd"/><path d="M1169.5 477.5 1169.5 984.919" stroke="#156082" stroke-width="6.875" stroke-miterlimit="8" fill="none" fill-rule="evenodd"/><path d="M3162.5 477.5 3162.5 984.919" stroke="#156082" stroke-width="6.875" stroke-miterlimit="8" fill="none" fill-rule="evenodd"/><path d="M1375.5 1492.5 1976.95 1492.5" stroke="#156082" stroke-width="6.875" stroke-miterlimit="8" fill="none" fill-rule="evenodd"/><path d="M1375.5 1492.5 1375.5 1999.92" stroke="#156082" stroke-width="6.875" stroke-miterlimit="8" fill="none" fill-rule="evenodd"/><path d="M1975.5 1492.5 1975.5 1999.92" stroke="#156082" stroke-width="6.875" stroke-miterlimit="8" fill="none" fill-rule="evenodd"/><path d="M2364.5 1492.5 2965.95 1492.5" stroke="#156082" stroke-width="6.875" stroke-miterlimit="8" fill="none" fill-rule="evenodd"/><path d="M2364.5 1492.5 2364.5 1999.92" stroke="#156082" stroke-width="6.875" stroke-miterlimit="8" fill="none" fill-rule="evenodd"/><path d="M2964.5 1492.5 2964.5 1999.92" stroke="#156082" stroke-width="6.875" stroke-miterlimit="8" fill="none" fill-rule="evenodd"/><path d="M3355.5 1494.5 3956.95 1494.5" stroke="#156082" stroke-width="6.875" stroke-miterlimit="8" fill="none" fill-rule="evenodd"/><path d="M3355.5 1494.5 3355.5 2001.92" stroke="#156082" stroke-width="6.875" stroke-miterlimit="8" fill="none" fill-rule="evenodd"/><path d="M3955.5 1494.5 3955.5 2001.92" stroke="#156082" stroke-width="6.875" stroke-miterlimit="8" fill="none" fill-rule="evenodd"/><path d="M382.5 2006.5C382.5 1997.11 390.111 1989.5 399.5 1989.5 408.889 1989.5 416.5 1997.11 416.5 2006.5 416.5 2015.89 408.889 2023.5 399.5 2023.5 390.111 2023.5 382.5 2015.89 382.5 2006.5Z" stroke="#000000" stroke-width="6.875" stroke-miterlimit="8" fill-rule="evenodd"/><path d="M982.5 2006.5C982.5 1997.11 990.111 1989.5 999.5 1989.5 1008.89 1989.5 1016.5 1997.11 1016.5 2006.5 1016.5 2015.89 1008.89 2023.5 999.5 2023.5 990.111 2023.5 982.5 2015.89 982.5 2006.5Z" stroke="#000000" stroke-width="6.875" stroke-miterlimit="8" fill-rule="evenodd"/><path d="M1358.5 2011.5C1358.5 2002.11 1366.11 1994.5 1375.5 1994.5 1384.89 1994.5 1392.5 2002.11 1392.5 2011.5 1392.5 2020.89 1384.89 2028.5 1375.5 2028.5 1366.11 2028.5 1358.5 2020.89 1358.5 2011.5Z" stroke="#000000" stroke-width="6.875" stroke-miterlimit="8" fill-rule="evenodd"/><path d="M1956.5 2011.5C1956.5 2002.11 1964.11 1994.5 1973.5 1994.5 1982.89 1994.5 1990.5 2002.11 1990.5 2011.5 1990.5 2020.89 1982.89 2028.5 1973.5 2028.5 1964.11 2028.5 1956.5 2020.89 1956.5 2011.5Z" stroke="#000000" stroke-width="6.875" stroke-miterlimit="8" fill-rule="evenodd"/><path d="M2345.5 2017C2345.5 2007.89 2353.11 2000.5 2362.5 2000.5 2371.89 2000.5 2379.5 2007.89 2379.5 2017 2379.5 2026.11 2371.89 2033.5 2362.5 2033.5 2353.11 2033.5 2345.5 2026.11 2345.5 2017Z" stroke="#000000" stroke-width="6.875" stroke-miterlimit="8" fill-rule="evenodd"/><path d="M2947.5 2017C2947.5 2007.89 2955.11 2000.5 2964.5 2000.5 2973.89 2000.5 2981.5 2007.89 2981.5 2017 2981.5 2026.11 2973.89 2033.5 2964.5 2033.5 2955.11 2033.5 2947.5 2026.11 2947.5 2017Z" stroke="#000000" stroke-width="6.875" stroke-miterlimit="8" fill-rule="evenodd"/><path d="M3336.5 2017C3336.5 2007.89 3344.11 2000.5 3353.5 2000.5 3362.89 2000.5 3370.5 2007.89 3370.5 2017 3370.5 2026.11 3362.89 2033.5 3353.5 2033.5 3344.11 2033.5 3336.5 2026.11 3336.5 2017Z" stroke="#000000" stroke-width="6.875" stroke-miterlimit="8" fill-rule="evenodd"/><path d="M3938.5 2017C3938.5 2007.89 3946.11 2000.5 3955.5 2000.5 3964.89 2000.5 3972.5 2007.89 3972.5 2017 3972.5 2026.11 3964.89 2033.5 3955.5 2033.5 3946.11 2033.5 3938.5 2026.11 3938.5 2017Z" stroke="#000000" stroke-width="6.875" stroke-miterlimit="8" fill-rule="evenodd"/><path d="M672.5 1490.5C672.5 1481.11 679.887 1473.5 689 1473.5 698.113 1473.5 705.5 1481.11 705.5 1490.5 705.5 1499.89 698.113 1507.5 689 1507.5 679.887 1507.5 672.5 1499.89 672.5 1490.5Z" stroke="#000000" stroke-width="6.875" stroke-miterlimit="8" fill-rule="evenodd"/><path d="M1655.5 1492.5C1655.5 1483.11 1663.11 1475.5 1672.5 1475.5 1681.89 1475.5 1689.5 1483.11 1689.5 1492.5 1689.5 1501.89 1681.89 1509.5 1672.5 1509.5 1663.11 1509.5 1655.5 1501.89 1655.5 1492.5Z" stroke="#000000" stroke-width="6.875" stroke-miterlimit="8" fill-rule="evenodd"/><path d="M1153.5 985.5C1153.5 976.111 1161.11 968.5 1170.5 968.5 1179.89 968.5 1187.5 976.111 1187.5 985.5 1187.5 994.889 1179.89 1002.5 1170.5 1002.5 1161.11 1002.5 1153.5 994.889 1153.5 985.5Z" stroke="#000000" stroke-width="6.875" stroke-miterlimit="8" fill-rule="evenodd"/><path d="M2635.5 1494.5C2635.5 1485.11 2642.89 1477.5 2652 1477.5 2661.11 1477.5 2668.5 1485.11 2668.5 1494.5 2668.5 1503.89 2661.11 1511.5 2652 1511.5 2642.89 1511.5 2635.5 1503.89 2635.5 1494.5Z" stroke="#000000" stroke-width="6.875" stroke-miterlimit="8" fill-rule="evenodd"/><path d="M3654.5 1494.5C3654.5 1485.11 3662.11 1477.5 3671.5 1477.5 3680.89 1477.5 3688.5 1485.11 3688.5 1494.5 3688.5 1503.89 3680.89 1511.5 3671.5 1511.5 3662.11 1511.5 3654.5 1503.89 3654.5 1494.5Z" stroke="#000000" stroke-width="6.875" stroke-miterlimit="8" fill-rule="evenodd"/><path d="M3146.5 985.5C3146.5 976.111 3153.89 968.5 3163 968.5 3172.11 968.5 3179.5 976.111 3179.5 985.5 3179.5 994.889 3172.11 1002.5 3163 1002.5 3153.89 1002.5 3146.5 994.889 3146.5 985.5Z" stroke="#000000" stroke-width="6.875" stroke-miterlimit="8" fill-rule="evenodd"/><path d="M2132.5 477.5C2132.5 468.111 2139.89 460.5 2149 460.5 2158.11 460.5 2165.5 468.111 2165.5 477.5 2165.5 486.889 2158.11 494.5 2149 494.5 2139.89 494.5 2132.5 486.889 2132.5 477.5Z" stroke="#000000" stroke-width="6.875" stroke-miterlimit="8" fill-rule="evenodd"/><path d="M116.556 1157.44 132.767 1157.44 132.321 1159.42C131.295 1159.64 130.559 1159.88 130.113 1160.15 129.667 1160.42 129.268 1160.83 128.917 1161.37 128.566 1161.91 128.201 1162.75 127.823 1163.9 127.445 1165.05 126.972 1166.92 126.404 1169.52L123.649 1181.92 145.412 1181.92 148.168 1169.48C148.411 1168.37 148.62 1167.19 148.796 1165.93 148.971 1164.67 149.059 1163.68 149.059 1162.95 149.059 1161.68 148.742 1160.8 148.107 1160.3 147.472 1159.8 146.465 1159.51 145.088 1159.42L145.533 1157.44 161.744 1157.44 161.298 1159.42C160.272 1159.64 159.536 1159.88 159.09 1160.15 158.644 1160.42 158.245 1160.83 157.894 1161.37 157.543 1161.91 157.178 1162.75 156.8 1163.9 156.422 1165.05 155.949 1166.92 155.381 1169.52L148.451 1200.97C148.1 1202.56 147.87 1203.82 147.762 1204.75 147.654 1205.69 147.6 1206.53 147.6 1207.29 147.6 1208.5 147.904 1209.36 148.512 1209.86 149.12 1210.36 150.14 1210.66 151.572 1210.77L151.126 1212.76 134.915 1212.76 135.361 1210.77C136.388 1210.61 137.158 1210.35 137.671 1209.98 138.184 1209.62 138.617 1209.11 138.968 1208.46 139.319 1207.81 139.643 1207.02 139.941 1206.09 140.238 1205.16 140.684 1203.36 141.278 1200.68L144.601 1185.65 122.838 1185.65 119.474 1200.97C119.177 1202.32 118.961 1203.43 118.826 1204.31 118.691 1205.19 118.623 1206.18 118.623 1207.29 118.623 1208.45 118.893 1209.29 119.434 1209.8 119.974 1210.31 121.028 1210.64 122.595 1210.77L122.149 1212.76 105.938 1212.76 106.384 1210.77C107.411 1210.61 108.181 1210.35 108.694 1209.98 109.207 1209.62 109.64 1209.11 109.991 1208.46 110.342 1207.81 110.666 1207.02 110.964 1206.09 111.261 1205.16 111.707 1203.36 112.301 1200.68L119.191 1169.48C119.434 1168.37 119.643 1167.19 119.819 1165.93 119.994 1164.67 120.082 1163.68 120.082 1162.95 120.082 1161.68 119.765 1160.8 119.13 1160.3 118.495 1159.8 117.488 1159.51 116.11 1159.42Z" fill-rule="evenodd"/><text fill="#000000" fill-opacity="0" font-family="Arial,Arial_MSFontService,sans-serif" font-size="55.3198" x="105.938" y="1205.84">𝐻</text><path d="M252.035 1150.64C259.925 1152.72 265.983 1157.22 270.212 1164.12 274.44 1171.02 276.554 1179.35 276.554 1189.1 276.554 1198.89 274.447 1207.21 270.232 1214.09 266.017 1220.97 259.952 1225.44 252.035 1227.52L251.063 1224.4C257.304 1222.32 261.944 1218.22 264.984 1212.08 268.023 1205.95 269.543 1198.16 269.543 1188.7 269.543 1179.57 268.03 1171.98 265.004 1165.94 261.978 1159.9 257.29 1155.85 250.941 1153.77ZM198.005 1150.64 199.099 1153.77C192.777 1155.85 188.096 1159.9 185.056 1165.94 182.017 1171.98 180.497 1179.57 180.497 1188.7 180.497 1198.16 182.017 1205.95 185.056 1212.08 188.096 1218.22 192.736 1222.32 198.977 1224.4L198.005 1227.52C190.088 1225.44 184.023 1220.97 179.808 1214.09 175.593 1207.21 173.486 1198.89 173.486 1189.1 173.486 1179.35 175.6 1171.02 179.828 1164.12 184.056 1157.22 190.115 1152.72 198.005 1150.64Z" fill-rule="evenodd"/><path d="M213.194 1173.33C214.896 1173.33 216.24 1173.89 217.227 1175.01 218.213 1176.13 218.706 1177.59 218.706 1179.4 218.706 1180.84 218.382 1182.43 217.733 1184.19L218.22 1184.35C220.867 1180.62 223.387 1177.86 225.778 1176.06 228.169 1174.26 230.634 1173.37 233.174 1173.37 235.687 1173.37 237.619 1174.09 238.97 1175.53 240.32 1176.98 240.996 1178.99 240.996 1181.55 240.996 1183.25 240.604 1185.67 239.821 1188.81L237.186 1199.43C236.457 1202.37 236.092 1204.45 236.092 1205.67 236.092 1206.75 236.268 1207.53 236.619 1208.02 236.97 1208.5 237.524 1208.75 238.281 1208.75 239.091 1208.75 239.956 1208.42 240.874 1207.75 241.793 1207.09 243.09 1205.83 244.765 1203.96L247.075 1206.23C244.751 1208.72 242.725 1210.54 240.996 1211.68 239.267 1212.83 237.294 1213.41 235.079 1213.41 233.323 1213.41 231.918 1212.78 230.864 1211.52 229.81 1210.27 229.284 1208.67 229.284 1206.72 229.284 1204.96 229.729 1202.38 230.621 1198.98L232.404 1191.97C233.053 1189.43 233.478 1187.55 233.681 1186.33 233.883 1185.12 233.985 1184.13 233.985 1183.38 233.985 1181.51 233.674 1180.17 233.053 1179.34 232.431 1178.52 231.418 1178.11 230.013 1178.11 228.878 1178.11 227.656 1178.56 226.345 1179.47 225.035 1180.37 223.643 1181.73 222.171 1183.56 220.698 1185.38 219.516 1187.15 218.625 1188.87 217.733 1190.58 217.004 1192.7 216.436 1195.21L212.586 1212.76 205.575 1212.76 211.492 1187.06C212.086 1184.47 212.384 1182.47 212.384 1181.07 212.384 1179.99 212.208 1179.2 211.857 1178.72 211.506 1178.23 210.952 1177.99 210.195 1177.99 209.358 1177.99 208.473 1178.33 207.541 1179.02 206.608 1179.71 205.332 1180.96 203.711 1182.77L201.401 1180.5C203.886 1177.91 205.953 1176.06 207.601 1174.97 209.25 1173.87 211.114 1173.33 213.194 1173.33Z" fill-rule="evenodd"/><text fill="#000000" fill-opacity="0" font-family="Arial,Arial_MSFontService,sans-serif" font-size="40.0815" x="201.401" y="1208.4">𝑛</text><path d="M2053.53 2145.66 2070.43 2145.66 2069.99 2147.65C2068.77 2147.73 2067.82 2148.09 2067.13 2148.72 2066.44 2149.36 2065.96 2150.22 2065.69 2151.32 2065.42 2152.41 2065.29 2153.96 2065.29 2155.96L2065.29 2157.34C2065.29 2157.82 2065.3 2158.32 2065.33 2158.84L2065.69 2174.68C2065.72 2175.84 2065.73 2178.72 2065.73 2183.31L2065.69 2191.78 2066.1 2191.78 2088.51 2145.66 2094.63 2145.66 2094.63 2172.7C2094.63 2177.15 2094.51 2183.52 2094.26 2191.78L2094.67 2191.78 2111.08 2160.05C2111.71 2158.86 2112.36 2157.46 2113.05 2155.86 2113.74 2154.25 2114.08 2152.86 2114.08 2151.7 2114.08 2149.43 2112.73 2148.08 2110.03 2147.65L2110.48 2145.66 2127.05 2145.66 2126.61 2147.65C2125.36 2147.81 2124.17 2148.49 2123.04 2149.7 2121.9 2150.9 2120.39 2153.24 2118.5 2156.73L2094.14 2201.51 2087.9 2201.51 2087.9 2171.85C2087.9 2167.04 2088.02 2162.02 2088.27 2156.81L2087.86 2156.81 2066.18 2201.51 2059.82 2201.51 2057.91 2156.44C2057.8 2154.2 2057.57 2152.49 2057.2 2151.3 2056.84 2150.11 2056.34 2149.24 2055.72 2148.7 2055.1 2148.16 2054.22 2147.81 2053.09 2147.65Z" fill-rule="evenodd"/><text fill="#000000" fill-opacity="0" font-family="Arial,Arial_MSFontService,sans-serif" font-size="55.8467" x="2053.09" y="2194.53">𝑊</text><path d="M2216.4 2138.87C2224.29 2140.95 2230.35 2145.44 2234.58 2152.35 2238.8 2159.25 2240.92 2167.58 2240.92 2177.33 2240.92 2187.11 2238.81 2195.44 2234.6 2202.32 2230.38 2209.19 2224.32 2213.67 2216.4 2215.75L2215.43 2212.63C2221.67 2210.55 2226.31 2206.44 2229.35 2200.31 2232.39 2194.18 2233.91 2186.38 2233.91 2176.93 2233.91 2167.79 2232.39 2160.21 2229.37 2154.17 2226.34 2148.13 2221.65 2144.07 2215.31 2141.99ZM2162.37 2138.87 2163.46 2141.99C2157.14 2144.07 2152.46 2148.13 2149.42 2154.17 2146.38 2160.21 2144.86 2167.79 2144.86 2176.93 2144.86 2186.38 2146.38 2194.18 2149.42 2200.31 2152.46 2206.44 2157.1 2210.55 2163.34 2212.63L2162.37 2215.75C2154.45 2213.67 2148.39 2209.19 2144.17 2202.32 2139.96 2195.44 2137.85 2187.11 2137.85 2177.33 2137.85 2167.58 2139.96 2159.25 2144.19 2152.35 2148.42 2145.44 2154.48 2140.95 2162.37 2138.87Z" fill-rule="evenodd"/><path d="M2177.56 2161.55C2179.26 2161.55 2180.6 2162.11 2181.59 2163.23 2182.58 2164.35 2183.07 2165.82 2183.07 2167.63 2183.07 2169.06 2182.75 2170.66 2182.1 2172.41L2182.58 2172.57C2185.23 2168.85 2187.75 2166.08 2190.14 2164.29 2192.53 2162.49 2195 2161.59 2197.54 2161.59 2200.05 2161.59 2201.98 2162.31 2203.33 2163.76 2204.68 2165.21 2205.36 2167.21 2205.36 2169.78 2205.36 2171.48 2204.97 2173.9 2204.18 2177.03L2201.55 2187.65C2200.82 2190.6 2200.46 2192.68 2200.46 2193.89 2200.46 2194.97 2200.63 2195.76 2200.98 2196.24 2201.33 2196.73 2201.89 2196.97 2202.64 2196.97 2203.46 2196.97 2204.32 2196.64 2205.24 2195.98 2206.16 2195.32 2207.45 2194.05 2209.13 2192.19L2211.44 2194.46C2209.12 2196.95 2207.09 2198.76 2205.36 2199.91 2203.63 2201.06 2201.66 2201.63 2199.44 2201.63 2197.69 2201.63 2196.28 2201 2195.23 2199.75 2194.17 2198.49 2193.65 2196.89 2193.65 2194.95 2193.65 2193.19 2194.09 2190.61 2194.99 2187.21L2196.77 2180.19C2197.42 2177.65 2197.84 2175.78 2198.04 2174.56 2198.25 2173.34 2198.35 2172.36 2198.35 2171.6 2198.35 2169.74 2198.04 2168.39 2197.42 2167.57 2196.8 2166.75 2195.78 2166.33 2194.38 2166.33 2193.24 2166.33 2192.02 2166.79 2190.71 2167.69 2189.4 2168.6 2188.01 2169.96 2186.54 2171.78 2185.06 2173.61 2183.88 2175.38 2182.99 2177.09 2182.1 2178.81 2181.37 2180.92 2180.8 2183.44L2176.95 2200.98 2169.94 2200.98 2175.86 2175.29C2176.45 2172.7 2176.75 2170.7 2176.75 2169.29 2176.75 2168.21 2176.57 2167.43 2176.22 2166.94 2175.87 2166.46 2175.32 2166.21 2174.56 2166.21 2173.72 2166.21 2172.84 2166.56 2171.9 2167.25 2170.97 2167.93 2169.7 2169.18 2168.07 2170.99L2165.76 2168.72C2168.25 2166.13 2170.32 2164.29 2171.97 2163.19 2173.61 2162.1 2175.48 2161.55 2177.56 2161.55Z" fill-rule="evenodd"/><text fill="#000000" fill-opacity="0" font-family="Arial,Arial_MSFontService,sans-serif" font-size="40.0815" x="2165.76" y="2196.62">𝑛</text></g></svg>